<mxfile host="app.diagrams.net" modified="2023-11-04T08:52:15.486Z" agent="Mozilla/5.0 (Windows NT 10.0; Win64; x64) AppleWebKit/537.36 (KHTML, like Gecko) Chrome/119.0.0.0 Safari/537.36" etag="x0N8Pu46pez7x1sXAHBd" version="22.0.8" type="google">
  <diagram name="Trang-1" id="utm_JgZDDFW3BCXG7l2s">
    <mxGraphModel grid="1" page="1" gridSize="10" guides="1" tooltips="1" connect="1" arrows="1" fold="1" pageScale="1" pageWidth="827" pageHeight="1169" math="0" shadow="0">
      <root>
        <mxCell id="0" />
        <mxCell id="1" parent="0" />
        <mxCell id="IUG1O-Y_2TdF6H-YGGcq-30" value="" style="endArrow=classic;html=1;rounded=0;shape=flexArrow;strokeWidth=4;fontFamily=Times New Roman;fillColor=#6d8764;strokeColor=#3A5431;" edge="1" parent="1">
          <mxGeometry width="50" height="50" relative="1" as="geometry">
            <mxPoint x="30" y="632.58" as="sourcePoint" />
            <mxPoint x="125" y="632.58" as="targetPoint" />
          </mxGeometry>
        </mxCell>
        <mxCell id="IUG1O-Y_2TdF6H-YGGcq-31" value="" style="endArrow=classic;html=1;rounded=0;shape=flexArrow;strokeWidth=4;fontFamily=Times New Roman;fillColor=#6d8764;strokeColor=#3A5431;" edge="1" parent="1">
          <mxGeometry width="50" height="50" relative="1" as="geometry">
            <mxPoint x="359.5" y="631.91" as="sourcePoint" />
            <mxPoint x="459.5" y="631.91" as="targetPoint" />
          </mxGeometry>
        </mxCell>
        <mxCell id="IUG1O-Y_2TdF6H-YGGcq-32" value="Transformer Encoder" style="rounded=1;whiteSpace=wrap;html=1;fontSize=29;fontStyle=1;strokeWidth=4;fillColor=#bac8d3;strokeColor=#23445d;fontFamily=Times New Roman;" vertex="1" parent="1">
          <mxGeometry x="359.5" y="40" width="655.5" height="140" as="geometry" />
        </mxCell>
        <mxCell id="IUG1O-Y_2TdF6H-YGGcq-33" value="" style="endArrow=classic;html=1;rounded=0;exitX=0.168;exitY=-0.041;exitDx=0;exitDy=0;exitPerimeter=0;strokeWidth=4;fontFamily=Times New Roman;" edge="1" parent="1">
          <mxGeometry width="50" height="50" relative="1" as="geometry">
            <mxPoint x="482.63" y="40" as="sourcePoint" />
            <mxPoint x="483.5" y="-60" as="targetPoint" />
          </mxGeometry>
        </mxCell>
        <mxCell id="IUG1O-Y_2TdF6H-YGGcq-34" value="Classifier&lt;br style=&quot;font-size: 24px;&quot;&gt;Head" style="rounded=1;whiteSpace=wrap;html=1;fontSize=24;fontStyle=1;strokeWidth=4;fillColor=#e3c800;fontColor=#000000;strokeColor=#B09500;fontFamily=Times New Roman;" vertex="1" parent="1">
          <mxGeometry x="423.12" y="-170" width="120" height="110" as="geometry" />
        </mxCell>
        <mxCell id="IUG1O-Y_2TdF6H-YGGcq-35" value="" style="endArrow=classic;html=1;rounded=0;exitX=0;exitY=0.5;exitDx=0;exitDy=0;strokeWidth=4;fontFamily=Times New Roman;" edge="1" parent="1" source="IUG1O-Y_2TdF6H-YGGcq-34">
          <mxGeometry width="50" height="50" relative="1" as="geometry">
            <mxPoint x="496.5" y="60" as="sourcePoint" />
            <mxPoint x="346.5" y="-115" as="targetPoint" />
          </mxGeometry>
        </mxCell>
        <mxCell id="IUG1O-Y_2TdF6H-YGGcq-36" value="Manure&lt;br style=&quot;font-size: 21px;&quot;&gt;Class" style="rounded=1;whiteSpace=wrap;html=1;fontSize=21;fontStyle=1;strokeWidth=4;fillColor=#e3c800;fontColor=#000000;strokeColor=#B09500;fontFamily=Times New Roman;" vertex="1" parent="1">
          <mxGeometry x="226.5" y="-145" width="120" height="60" as="geometry" />
        </mxCell>
        <mxCell id="IUG1O-Y_2TdF6H-YGGcq-37" value="" style="endArrow=classic;html=1;rounded=0;strokeWidth=4;fontFamily=Times New Roman;exitX=0.627;exitY=-0.014;exitDx=0;exitDy=0;exitPerimeter=0;" edge="1" parent="1" source="IUG1O-Y_2TdF6H-YGGcq-53">
          <mxGeometry width="50" height="50" relative="1" as="geometry">
            <mxPoint x="775" y="330" as="sourcePoint" />
            <mxPoint x="775.13" y="180" as="targetPoint" />
          </mxGeometry>
        </mxCell>
        <mxCell id="IUG1O-Y_2TdF6H-YGGcq-38" value="" style="rounded=1;whiteSpace=wrap;html=1;fontSize=18;fontStyle=1;strokeWidth=4;fillColor=#f8cecc;strokeColor=#b85450;fontFamily=Times New Roman;" vertex="1" parent="1">
          <mxGeometry x="767" y="230" width="17" height="50" as="geometry" />
        </mxCell>
        <mxCell id="IUG1O-Y_2TdF6H-YGGcq-39" value="" style="endArrow=classic;html=1;rounded=0;strokeWidth=4;fontFamily=Times New Roman;" edge="1" parent="1" source="IUG1O-Y_2TdF6H-YGGcq-48">
          <mxGeometry width="50" height="50" relative="1" as="geometry">
            <mxPoint x="667" y="330" as="sourcePoint" />
            <mxPoint x="667" y="180" as="targetPoint" />
          </mxGeometry>
        </mxCell>
        <mxCell id="IUG1O-Y_2TdF6H-YGGcq-40" value="" style="endArrow=classic;html=1;rounded=0;strokeWidth=4;fontFamily=Times New Roman;" edge="1" parent="1">
          <mxGeometry width="50" height="50" relative="1" as="geometry">
            <mxPoint x="558" y="439" as="sourcePoint" />
            <mxPoint x="558.08" y="180" as="targetPoint" />
          </mxGeometry>
        </mxCell>
        <mxCell id="IUG1O-Y_2TdF6H-YGGcq-41" value="" style="rounded=1;whiteSpace=wrap;html=1;fontSize=18;fontStyle=1;strokeWidth=4;fillColor=#f8cecc;strokeColor=#b85450;fontFamily=Times New Roman;" vertex="1" parent="1">
          <mxGeometry x="550" y="230" width="17" height="50" as="geometry" />
        </mxCell>
        <mxCell id="IUG1O-Y_2TdF6H-YGGcq-42" value="NIRsViT&lt;br style=&quot;font-size: 27px;&quot;&gt;Architecture" style="rounded=0;whiteSpace=wrap;html=1;fontSize=27;fontStyle=1;fillColor=#f0a30a;fontColor=#000000;strokeColor=#BD7000;strokeWidth=6;fontFamily=Times New Roman;" vertex="1" parent="1">
          <mxGeometry x="702.75" y="-110" width="180" height="80" as="geometry" />
        </mxCell>
        <mxCell id="IUG1O-Y_2TdF6H-YGGcq-43" value="" style="shape=image;verticalLabelPosition=bottom;labelBackgroundColor=default;verticalAlign=top;aspect=fixed;imageAspect=0;image=data:image/png,iVBORw0KGgoAAAANSUhEUgAAAecAAAHoCAYAAABzWyeBAAAAAXNSR0IArs4c6QAAAARnQU1BAACxjwv8YQUAAAAJcEhZcwAAEnQAABJ0Ad5mH3gAAB5BSURBVHhe7d17rG5pXR/wtd53nzM3EYtQim0g5iAqVAOYwAtIglxEm+pIYi8xTaNJ+wdtQ2Kb2IZYQAJC5GKZijPcHFCGAhVIi1Yqt9PU8CplTtLWJk1a/misASoMtwrM2ftdq8+z3mdG/tjZ2e79e9Lfzvl8ZtY+77NP8jvP/bvOngTGzWYzDwBAGqv2KwCQxPI35+1225oAwP9v/uYMAMkIZwBIRjgDQDLCGQCSEc4AkIxwBoBkhDMAJCOcASAZ4QwAyQhnAEjmTP/znR/99KeH9/7hf22tGPO6PLfuWivQ/athnMfWOL/5YC6zFvv/FTIelj4etkaYMubo/0uT8io33TSVX4ML78bQNVqUrTQGbqe5vsZGv8qWaVxdDx53UWtGjr2q+76e0Ui1j6Hjr/vzoH0OtLtcz3xrBFmukOBj1KNmPZZTHX+w9dfLHp3iJnVV7s+xXE2RdjfPw+6m1gjyxEc9anjhU5/SWic7Uzj/2rV7h1dcvdpaMeaDaZge2iGcv7YO3QTz5RpOrRFkLBt1dT246HKeYm+UuZz+6Vvqjdq+EeWwQzgflW4eBa57eSGZoy/+spXW34iezFLza2Xs5YUn0nQpfvxjWaODb0SuUQ2S1ghSRj0c3VI+RJ/5coyC3/GX/RRds+77XR1/sIOvljsv8Hyu7y9jDw7nw9vK2t/WGkGed+XK8KafuL21ThZ/MwAA5yKcASAZ4QwAyQhnAEhGOANAMsIZAJIRzgCQjHAGgGSEMwAkI5wBIBnhDADJCGcASEY4A0AywhkAkhHOAJCMcAaAZIQzACQjnAEgGeEMAMmMm81m3m63rXk6d3/q3uEVH7vaWnHG9dQ+BTpcDePcPgeYDkqx4Fea8Wgcxt3YWkHKVK6O2ucgcxn34beWwuv2jSDjYRl/8NKPZeyr63FzOq/mYY4ed53K+4PXvVi2+xhbd17Hj391OAyX/m/gGtVSwWezjHqYLpcP0ctUFinyXlpE16uWfsYXXu67wLKr6/Hzubt5/0R6zvdcGd74U7e31snOFM5v/+S14ZUfiQ3nepkefD36BDSBZad6+Ht0M7hmnc912bCRphJQ1/9COVMdLulxip2Aelgjx18v/uhx1xeog/vb50CHt5W+HrRGkLr20cG3KmO/6cuB674ESfscZClXuxh8Phc9agYbd3N5gWqNQLvywhN5nup9F73206X6xC7SD33fleENf+/HW+tkwccNADgv4QwAyQhnAEhGOANAMsIZAJIRzgCQjHAGgGSEMwAkI5wBIBnhDADJCGcASEY4A0AywhkAkhHOAJCMcAaAZIQzACQjnAEgGeEMAMkIZwBIZtxsNvN2u23N03nHJ64Nr/qdq60VY9wNw8HXWiPQXF8/xv3nCNNB+TIGFqzmeRjn9jlInc/1N1ojSJ3Lo2+Z93MaaQ6ez2J1WPZT9PjLP5HqqMcpfuxHN5e+rlsjyLJEwZu0rtGlPw0cf+neOLXPgTpsz0V82eBLpCrzub7ePgea6v4MnIBl3YOHX89Q9Dl61hMfO7z+H97eWic7Uzjf87Frw2veFxzOR/Nw6eutEejoUvmyitsFu8vlyzr2WI2H87AqYRppmc/gcOrl8NZyWC/Fzun6/jk0nOt8rss6RVpedm6J/+HVtLyQBu/RKf4FcgnTyJqlj9HnqJsSJrErVHR4ya8vJtPl+D1az1P4fgqe0HFX+hj8sveDT33s8KoXv6C1ThY/6wDAuQhnAEhGOANAMsIZAJIRzgCQjHAGgGSEMwAkI5wBIBnhDADJCGcASEY4A0AywhkAkhHOAJCMcAaAZIQzACQjnAEgGeEMAMkIZwBIZtxsNvN2u23N03nXh+8dXvfuq60VY5zKm8JhawSa1+VpnyPMB+XLuP8cpoy9jj9Srbe+HjnyfnY3jcs6RVodzsP6/tYIMO7mYbVrjSBz2Ue7y9Gbqe75Mp/BZcdpHsYe2ymynx3O0QPCV6nHXM5ljaLHXwY+HcTv0Tr+yKp1f0Zb5jJ4Pp/51McOr3rxC1rrZGcK5/f81r3DHW//eGvFqJdJvVSijUdlw7bPIcolHd3Lqf78YhVcNXjzV8v2r0XDJyC+ZF2n6DDtM6HxpvoCGb2fOoRzPfPTpfCVj1XH3OMs1YLRRcs5WnXaU9F2wXt0fX3q9mIW6ZlPKeH8z04Xzn6sDQDJCGcASEY4A0AywhkAkhHOAJCMcAaAZIQzACQjnAEgGeEMAMkIZwBIRjgDQDLCGQCSEc4AkIxwBoBkhDMAJCOcASAZ4QwAyQhnAEhGOANAMmcP57nHU75EP9Vx3z/r00stHfl808eo50HH/eZ5nuq475/n+aaPUc+x3zzPU78ct8fO/ZTSU/kS+ZR/uzjuz8r0lPkcj/v+OZ8uNevaH/P9jM84lbXflc9RT613zJ9zrqfUHYOfpZ+nNG42m3m73bbm6bznt+4d7rj7460VpG6si6B0c2wfo8yl4DxGVy06lOyiw5wuRSOVQ7Xatc9Rlsu0fU5uPihfVrGrVANqdX/cOi3nKLiP1Ri8lRa1r8FdrZf/6ii4s6WP0zp+TheBZZdxBw99tZuGMXg+n/GDjxte/ot/o7VOlurH2nWtLsLTw3F/znmexXG/cZ6nOe63zvvEK1XrC0/U00mtfBGe5eI77jfO85Sax337zE90vfq0u/nY3zvHUx33/XM9HcYfvkbf/NTaQU917J9xjmcZe/Dz53mB8N+cASAZ4QwAyQhnAEhGOANAMsIZAJIRzgCQjHAGgGSEMwAkI5wBIBnhDADJCGcASEY4A0AywhkAkhHOAJCMcAaAZIQzACQjnAEgGeEMAMkIZwBIZtxsNvN2u23N03nfv/7k8MZf+XBrBRmHYV6XL8Hm6JJjKRhcczyah2EqT7Dw2ZznYaz9DO5qXfe5zmug2s+lr5Gil+iB+Qy2P0fRqx/fz1pynNrnCGU+hymyYFHX6GgXP/xV3fPtc5Bx6WP4qe9SctiVdarrFWRc6rVGoOihP/05jx9e+i//bmud7Ezh/P53//5w1y//bmvFqBt1vrRurTjh+7X+rCE6SK7vyuYK3lmlXPiZqofpaAqvOx2USS2XVahyWFeBc7rfR8F9XMI5OEyKed1nPveXf7DIOa19rEEaqe7560fhe355GY1eoyp6j/ZS1mkMDOdh1+EFqsMaPe15f3V4yZt+prVO5sfaAJCMcAaAZIQzACQjnAEgGeEMAMkIZwBIRjgDQDLCGQCSEc4AkIxwBoBkhDMAJCOcASAZ4QwAyQhnAEhGOANAMsIZAJIRzgCQjHAGgGSEMwAkM242m3m73bbm6XzgHb833PWqD7ZWkHEY5lX5Emxuv8aZ2q9xxlJyrBOQ3Vxm82gXPqlzLRg9/FoyevHH4E4u83nUGnHmdXnnju7rNMXPZ7SpdHBX9mekuka7ckDD91J9Opz5DndoF4dl39e5jdJjb9a5DF6jp//oE4eX/voLW+tkZwvnt3x8ePNL39dauc2RG6Cqhz+65mo1jOt1awQK3ljLXB4etlagJfCD57SOvcxrZnMJvB7hvIw9+uKvfU1umc/oftZ9Gbw1u6nLnnzPP2C6fj32zNc7NHrPd7hDnv5jPzC87L0/21on82NtAEhGOANAMsIZAJIRzgCQjHAGgGSEMwAkI5wBIBnhDADJCGcASEY4A0AywhkAkhHOAJCMcAaAZIQzACQjnAEgGeEMAMkIZwBIRjgDQDLCGQCSGTebzbzdblvzdD5w10eGu178ntbKbl7+DTNHFmvGcf9ECi63qEPfHe0/R5rqGkXPa53T9jGpuY55t2utQKvyzh29n6ap396PsnQvvo/zrow92rI9e2zQ4PGX9Rnrfgo2HR7u91SU9Tp+Njuco6f/2A8ML3vvz7bWyc4Uzu9/w28Pd/7jd7RWctEXyvogfLPO9YKeO1wA0XpcztXYIUzqfPbqb3b1ogqez/0e7TCfq3X7EKCMeXXpoDVi1Beo+bDDC+l61eceiX7Zq3N6+XJrxAnfTz1eSIvoc/S0v/7kU4dz7O4AAM5NOANAMsIZAJIRzgCQjHAGgGSEMwAkI5wBIBnhDADJCGcASEY4A0AywhkAkhHOAJCMcAaAZIQzACQjnAEgGeEMAMkIZwBIRjgDQDLCGQCSGTebzbzdblvzdN7/hn833PlP3tFagea5fchrXB+UV5rYd5p52g3DNLVWoHFsH4I8uD7B6zSu+/R1Dp7T6D52Mq7j53Oucxl9PmsfV6WvUVbjMB6U8xlqHqZdOZ/RV9N6NYylv5Hmcocsd0mkskary5dbI07t5xy5n+qdHH0+S7myo1ojxjN+9EnDL/z6P2qtk50pnD/wxn8/3Plz97RWkOUyjT4BRXCQ9rj46rijRz7WPta+RlrWp9MajcE/xKkXX+A6LfMZve714JdLOlxd9+CLfzhYD3N0X0u96XJgmNZ6NwWHc5nG3eW6P1s7yLwehzk6nMuyT6VupLkMfarjD7aryxRYdqpXXfAa9fCsJ3/X8LoXvaC1TnbmcL7rn76rtYL0CufoS7VcfMtFHSj0DfIBpY/Li0SknuEc/BK1rHn0i1l0H6voNao6hPNcwrkGdKQloG661FrnV+tNgfWqutunm+r+jJ3PJUw61JwPYvfoXLq4uym2n9U+nOPqXphwfuKV4fX/4PbWOlmH2wYAOA/hDADJCGcASEY4A0AywhkAkhHOAJCMcAaAZIQzACQjnAEgGeEMAMkIZwBIRjgDQDLCGQCSEc4AkIxwBoBkhDMAJCOcASCZcbPZzNvttjVP531v/shw5z9/d2sFmuf2IdA47p8oq/I+E1mvmcs/kcbax9W6taKUPvZYo3WHOR1LzVVczbH8E9/H8tT9FG1d1j26rwfrYa7rFKnUmy4H7tGl3kFrxNndVPdnawSZy96cg6dzXpea5YlU+7i7FDz4YqrLFHg+pzqX8d0M96wnXhl++YW3t9bJzhTO7/rwp4bXvvvjrRVnHuMv/noIIldtOVAXYBN0c4HGPl+IvsZ3ssMxKhdpp/mMfonoMfYu426/BlrWJ7puj/ksol9MeixRj/l89hMeO9zxMz/eWic7Uzjf89Frw2t/82prxVj2QIcZ3odpXOEuB+CiuQDj77WfLoQpfujLvg++UMN1CpJueuzP8IVvvwYLv0dLP8OHHt3H4tlPuDLc8dOnC+fsxw0AbjjCGQCSEc4AkIxwBoBkhDMAJCOcASAZ4QwAyQhnAEhGOANAMsIZAJIRzgCQjHAGgGSEMwAkI5wBIBnhDADJCGcASEY4A0AywhkAkhHOAJDMuNls5u1225qn887/cG34pQ9cba0Yc/s13Pjglxg9OlpqBvZwsXSzx6vXRRp/tOhO9tJhPvtMaBHZ0V597OUi7Kc6pz3mtcfYw/s5h3fzh77/yvAv/v7trXWyM13fc+nxvB5Dn6HXs6pP6XTUU8qFP70c92ed56mO+/55nw6O+2NupCdcufjG7E/pZvhz3J/jOf8zHfO98zzR9epTa3Z4TqvGDQCQiHAGgGSEMwAkI5wBIBnhDADJCGcASEY4A0AywhkAkhHOAJCMcAaAZIQzACQjnAEgGeEMAMkIZwBIRjgDQDLCGQCSEc4AkIxwBoBkhDMAJDNuNpt5u9225um88+q14Zfef7W1Ao1j+xBontuHIMHl/kz02EtHO0znXnDhbnMaqNdc9tjy9UuH7RSu9jF6K/VYpwtSs8u6dzJH/7WwjDt8i46lYvB8PufxV4Zf+Tu3t9bJzhTO93zs2vCa98WG8zKxqw47a5pj57fDJbVcKNEvJuWlJHo2Hxx6j5eoDiXDRS9R/dJh3Pv9tP8cqsf4Ay/p6HoP6jCfPdao137qUXNaly+BdZewj57PGs7B++m5j7sy3PmTpwvnHlsZADgH4QwAyQhnAEhGOANAMsIZAJIRzgCQjHAGgGSEMwAkI5wBIBnhDADJCGcASEY4A0AywhkAkhHOAJCMcAaAZIQzACQjnAEgGeEMAMkIZwBIZtxsNvN2u23N0/mN/3htePUHr7ZWnLnLq8Lcfg0ytl8DLePuUHcYg8de9VijOvbo8Zexj5E1o+stSs0u8xnf17HH+Eu9cRW3R8dO8xnZxwfU+Yze813WqFj6Gq3OaWBfVz3WqNSMHvszH/29w6uf81OtdbIzhfPd/+na8MqPxYbzMgXr5WOoaR27CebgeotaL/hSmeumOojdWMsq1TWKHv9qir9UysFa1bUKMo7TsA6stzcPB+FrVIZe+ho9n+uyRuvgC7DO6aX11FrnV8P5IPySLvuoQ+ity9hr3Uh13XuM/6DUjVbHHzmnB+OujL81gtQ+Ro/9Sd/2pOFFj3tRa52sx3s7AHAOwhkAkhHOAJCMcAaAZIQzACQjnAEgGeEMAMkIZwBIRjgDQDLCGQCSEc4AkIxwBoBkhDMAJCOcASAZ4QwAyQhnAEhGOANAMsIZAJIRzgCQzLjZbObtdtuap3PPf/7k8Nrf+93WCjKWf1dzawRaT0vtKGOpNwbWq8Zxjh97qbmqY4+0rFHsfFbrUrPOQaQ6n6va1yCrWm+Mnc+6j9bRa1Ss6n4Kns91qbcO3qNjmc+DwDVa5jN43FX0ulfrUjP6HqnrXutG61Ezeo/WdR+HDns+eOxPeOhThp++8nOtdbIzhfPHPveh4Tf/9ztbK8ZqmIab1ketFeeW1fVlkqPUegfBC3ZpPCrPrrViXBqOhtvW11srRt38l0tfoy+Vm8f7y/hj53Q97EJr1v0ZffHX+bwUfKFUtW74xV/H3z6TU91JNaIugv1tF9fXaTlG+cf+0Ft+eLjyF9/aWifzY20ASEY4A0AywhkAkhHOAJCMcAaAZIQzACQjnAEgGeEMAMkIZwBIRjgDQDLCGQCSEc4AkIxwBoBkhDMAJCOcASAZ4QwAyQhnAEhGOANAMuNms5m3221rns4n/uSDw2//8dtaK8ZqnIdLq11rxbl5PBzGUjvKzauj8kYztVaMS+NuWI+xNQ9KzTr2SONQ16j2M24+q9rPg+Dx1zU6GOL20zjWmrHjrvN5EFzzAbW/kerYg0v20Wc6w+27GTujteYFGX45nXX3x41/Wgaef4c+7NbnDd/7yLta62RnCufPfOXXhv/1xZe3Voy5TO7c4S/y++s5btF2S63YTTDN8TXrXq0HIFJdo33N2Lo1SKPDJNqurNE0rFsrt8M5Pkp7rHu0/f68GD8MPCr7qcd9d1FE36O7DuFcz1D0OXr0bc8cnvuXX91aJ/NjbQBIRjgDQDLCGQCSEc4AkIxwBoBkhDMAJCOcASAZ4QwAyQhnAEhGOANAMsIZAJIRzgCQjHAGgGSEMwAkI5wBIBnhDADJCGcASEY4A0AywhkAkhHOAJDMuNls5u1225qn89+/+K+Gez//+taKMg7TPLbPcXbB7x9z6edFMM/DMHXo61Tms5QO1WNG6/hj12oMH3fVY4169HOe49e9rs/UPse5GOez3nUX4i4pi95nj8bWrPV67Pto3/WQpw0/+eiXtNbJzhTO/+2L7xn+4E/uaK0Y+zCJ/4v8btkEF+PARooPp1rvgYOafz7348/9g6E/m8/89i/OvfbTjafHfPbQ616Otn/Jyz+f3/2Qpw5/6zE/31on82NtAEhGOANAMsIZAJIRzgCQjHAGgGSEMwAkI5wBIBnhDADJCGcASEY4A0AywhkAkhHOAJCMcAaAZIQzACQjnAEgGeEMAMkIZwBIRjgDQDLCGQCSGTebzbzdblvzdD71hQ8MH/3sm1ort2kY26cby7x8iR/7bpnPizGn8zIJuc0XaH/2mM6LMP7V2GHkpeQF2J4XxnIrhW+l+N353Q/ZDH/zMT/fWic7Uzh/4vMfHH7nM29rrShzl7/GT8vXi3MBZlbDbv+yYz65UdR7qVzSN+yW73MvR1vVmyl4jcYO4fy4P0c4+7E2ACQjnAEgGeEMAMkIZwBIRjgDQDLCGQCSEc4AkIxwBoBkhDMAJCOcASAZ4QwAyQhnAEhGOANAMsIZAJIRzgCQjHAGgGSEMwAkI5wBIBnhDADJjJvNZt5ut615Or//+X87fOgzb22tKHN5U5jb5zjzMLZPN5gy7LHHfM4XYz6XsQd2tZbqMZ8XRT2b4xg//ug57bFGy73UYdv36GuP09ltTgOtOu3N6L+9fudDnjH8tb/yitY62ZnC+Q8+/2+GD3/2La0VZR7WHSb4xlU2Vvh87jfrxYjn2PH3OKh91qiP1TB1OJ/lzJcnzsW5Q8Yyn9HnaNmjF+NwlnXfpd/7Pc78d9z2rOEZj3pda53Mj7UBIBnhDADJCGcASEY4A0AywhkAkhHOAJCMcAaAZIQzACQjnAEgGeEMAMkIZwBIRjgDQDLCGQCSEc4AkIxwBoBkhDMAJCOcASAZ4QwAyQhnAEhm3Gw283a7bc3TufaF9w9XP3dna8UYh3lYjXNrZTaXvl4MY4f5XJfxXwR1P9Unyr5erFqvxxr12KP1bK6C134588FrFH+H7OvFr33s/qzG0snoNeplPU7Bfe2w55cndj4feduzhyf/pTta62RnCuf/+aV7hv/yhde2VpT4w9/DapiWQ3BjqmsUf1H1cTH2Uw899ug+SKNFh+nc4eWxz54fL8wa9bEu418Fjn+p1z5HOSjzeRD8snfrLT8yPOrhd7fWyS7KWgLADUM4A0AywhkAkhHOAJCMcAaAZIQzACQjnAEgGeEMAMkIZwBIRjgDQDLCGQCSEc4AkIxwBoBkhDMAJCOcASAZ4QwAyQhnAEhGOANAMsIZAJIZN5vNvN1uW/N0Pv2ldw5/+IXXtFac1TC1T3mtxrl8rc+NaVXGPrbP2dW+RrlIK17P0Ri8SH3WfW7nKca49DF+pdYdai59DRx7VdcnfI06bfyDsezR9jlCXaPotT8o63MQXPO2W35k+I5H3N1aJztTON/31bcO/+eLv9BaN5a5w26tryT5X0v2Yo9UX5E9ncqy97inesxnrxWKrxs7o7Val1eIDgu/RElwV/fjD1Y62WOPRvdzH80ddn7wIn37rc8bHv/IO1vrZGcK56989c3Dl7780ta6sfQI0V3ZqRchnOuB2vezwyFIbh/OseOu89nlQrlB7fdn8Bot617F1q3nKHrte9Tcjz/+v37ulq9xfd0ttaLHHh/4D7/1OcP3P/JXW+tk/pszACQjnAEgGeEMAMkIZwBIRjgDQDLCGQCSEc4AkIxwBoBkhDMAJCOcASAZ4QwAyQhnAEhGOANAMsIZAJIRzgCQjHAGgGSEMwAkM242m3m73bbm6Xz5q28Z7vvSS1rrxjK3J9JUn+Ci+3Lj8jVS7euNaCpzOUcvfFHrEmN/NmPn88GawWtfz1GXvo7BNUvR6H5Wy3lqnyNMHf6eOc+1j7Fjf/itzx2+75G/2lonO1M4//GX3z58+r5XtlaMulAuqjjLfJbNFW01Rh4pLoq6k2Kv03hLH8P351yu/fhxx1/7rWZ00ZLOPX68Gj2nddxd5rN9jvLQW58/fOcj3tpaJztTOP/Rl98x/I/7frG1YtSlEs5x6htv/Nvk/qIKvwBIr15U+f8bWOljp3DucfF3+Ltel/Gv26dI0XPa48Wkxxp96y3PHx7ziLe11snynzcAuMEIZwBIRjgDQDLCGQCSEc4AkIxwBoBkhDMAJCOcASAZ4QwAyQhnAEhGOANAMsIZAJIRzgCQjHAGgGSEMwAkI5wBIBnhDADJCGcASEY4A0Ay42azmbfbbWuezue+8rbhj+57eWsFGZd/w43DHFq3vs2MHTraZexzfNV1KRldtdYLr1kWaRVYtdZajbHvsrV3qwvzfjy3J86+YmzNYZjar3HmObqPVa/5jB//qsOFV+/lSMu9HHje92Kzo7r5lucPD/v2t7XWyc4Uzl/4yluGz37pZa0VZV4u/mir4Alel2cV3M9arsPQl75GOyhPDb5IPQ5WrbkODNN1qXgwxs/opQ41e5jmKfg6rSc+Npr39YIDrwRzfNzVV4j4qrulr9GrVO+7HrdTrD7hHO/g5h8ebn3Y6cI57vYCAEIIZwBIRjgDQDLCGQCSEc4AkIxwBoBkhDMAJCOcASAZ4QwAyQhnAEhGOANAMsIZAJIRzgCQjHAGgGSEMwAkI5wBIBnhDADJCGcASEY4A0Ay42azmbfbbWuezp9+Yzt85esfaq0Y4/LM+0agfd04q1Isst4DLkLNWq/H29y4/BNrLAVXgVVrD9fRow/uY0/LyZxjz2f0aZ+Xf6L1qNmn6lSrduhsPUvZ9bhDelgdfM9w+ba/3VonO1M4AwD9+LE2ACQjnAEgGeEMAMkIZwBIRjgDQDLCGQCSEc4AkIxwBoBkhDMAJCOcASAZ4QwAqQzD/wPip4Ab3vV34QAAAABJRU5ErkJggg==;" vertex="1" parent="1">
          <mxGeometry x="-170" y="540" width="181.63" height="182" as="geometry" />
        </mxCell>
        <mxCell id="IUG1O-Y_2TdF6H-YGGcq-44" value="" style="shape=image;verticalLabelPosition=bottom;labelBackgroundColor=default;verticalAlign=top;aspect=fixed;imageAspect=0;image=data:image/jpeg,/9j/4AAQSkZJRgABAQEAYABgAAD//gA+Q1JFQVRPUjogZ2QtanBlZyB2MS4wICh1c2luZyBJSkcgSlBFRyB2NjIpLCBkZWZhdWx0IHF1YWxpdHkK/9sAQwAIBgYHBgUIBwcHCQkICgwUDQwLCwwZEhMPFB0aHx4dGhwcICQuJyAiLCMcHCg3KSwwMTQ0NB8nOT04MjwuMzQy/9sAQwEJCQkMCwwYDQ0YMiEcITIyMjIyMjIyMjIyMjIyMjIyMjIyMjIyMjIyMjIyMjIyMjIyMjIyMjIyMjIyMjIyMjIy/8AAEQgCWAJYAwEiAAIRAQMRAf/EABwAAQABBQEBAAAAAAAAAAAAAAABAgMEBQYHCP/EAEAQAQABAQIIDAYBBAEEAwEAAAABAhFRAwQGEhMxUpEFBxQVF1NUYXSTsdI1NjdBc5IyIXKh8HEWIkNVM0LxY//EABoBAQEBAQEBAQAAAAAAAAAAAAABAgUDBAb/xAAmEQEAAQMDBQEAAwEBAAAAAAAAAQIREwMSUTEyUmGRFCEiQTME/9oADAMBAAIRAxEAPwDV5N8WfDGVHA9PCeJY3iODwNVdVEU4auuKrY16qZhuOg/KLt/BXmYT2O94nvkDA+Iwvq74HgnQflH2/grzMJ7DoPyi7fwV5mE9j3sB4J0H5Rdv4K8zCew6D8ou38F+ZhPY97AeCdB+UXb+CvMwnsOg/KLt/BfmYT2PewHgnQflF2/gvzMJ7DoPyi7fwV5mE9j3sB4J0H5Rdv4K8zCew6D8ou38FeZhPY97AeCdB+UXb+CvMwnsOg/KLt/BXmYT2PewHgnQflF2/grzMJ7DoPyi7fwV5mE9j3sB4J0H5Rdv4K8zCew6D8ou38FeZhPY97AeCdB+UXb+CvMwnsOg/KLt/BXmYT2PewHgnQflH2/grzMJ7DoPyi7fwV5mE9j3tAPBeg/KPt/BXmYT2HQflF2/grzMJ7HvQDwXoPyi7fwV5mE9h0H5Rdv4K8zCex70kHgnQflH2/grzMJ7DoPyi7fwV5mE9j3tAPBeg/KLt/BXmYT2HQflF2/grzMJ7HvQDwXoPyi7fwV5mE9h0H5R9v4L8zCex72A8E6D8ou38FeZhPYdB+UXb+CvMwnse9gPBOg/KLt/BXmYT2HQflF2/grzMJ7HvQDwXoPyj7fwV5mE9h0H5R9v4K8zCex70A8F6D8ou38FeZhPYdB+UXb+CvMwnse9gPBOg/KLt/BfmYT2HQflF2/grzMJ7HvYDwToPyi7fwV5mE9h0H5Rdv4L8zCex72A8E6D8ou38FeZhPYdB+UXb+CvMwnse9gPBOg/KLt/BXmYT2HQflF2/grzMJ7HvYDwToPyi7fwV5mE9h0H5Rdv4L8zCex72A8E6D8ov/YcFeZhPYdB+UXb+CvMwnse9gPBOg/KLt/BXmYT2HQflF2/grzMJ7HvYDwToPyi7fwV5mE9h0H5R9v4K8zCex72A8E6D8ou38FeZhPYdB+UXb+CvMwnse9gPBOg/KLt/BXmYT2HQflF2/grzMJ7HvYDwToPyi7fwV5mE9h0H5Rdv4K8zCex72A8E6D8ou38FeZhPYdB+UXb+CvMwnse9gPBOg/KLt/BXmYT2HQflF/7DgrzMJ7HvYDwToPyj7fwV5mE9h0H5Rdv4L8zCex72A8E6D8ou38FeZhPYdB+UXb+CvMwnse9gPBOg/KLt/BXmYT2HQflF2/grzMJ7HvYDwToPyi/9hwV5mE9h0H5Rdv4K8zCex72A8E6D8ou38FeZhPYPewHA8T/AMgYHxGF9XfOB4nvkDA+Iwvq74AAALYRbF4JEWxeWxeF0iLYvLYvC6RFsXlsXhdIi2Ly2LwukRbF5bF4XSIti+C2LwukRbF5bF4XSgti8ti8LgWxeWxeFwLYvLYvC6UFsXlsXhcC2Ly2LwulBbF5bF4XSgti8ti8LgWxeWxeFwLYvLYvC6RFsXlsXhdIi2Ly2LwukRbF5bF4XSIti8ti8LpEWxeWxeF0iLYvLYvC6RFsXlsXhdIi2Ly2LwukRbF5bF4XSIti8ti8LpEWxeWxeF0iLYvLYvC6RFsXlsXhdIi2Ly2LwukRbF5bF4XSIti8ti8LpEWxeWxeF0iLYvLYvC6RFsXgXcFxPfIGB8RhfV3zgeJ75AwPiML6u+AJ1BOoHiWUvCeM4LhiqmmqmzMp+zUc743tU/qy8qPjVf8AZS0z7qYiz8vq6lW+f5Z3O+N7VP6nO+N7VP6sEW0PLJVyzud8b2qf1Od8b2qf1YIWgyVcthRwvjefH/dT+q9zrjW1TuavB/zhfeVcfy869Wq/Vm8641tU7jnXGtqncwhljLXyzedca2qdyedca2qdzBAy18s3nXGtqncor4WxrO/lT+rFW6/5S1TH8rTq1X6sznbG9qn9TnbG9qn9WCN2hvLVyzudsb2qf1Odsb2qf1YIWgyVcs7nbG9qn9VVPC2NbVO5r1VKTEJOrVy2HO2NbVP6nO2NbVO5gjNmctfLO52xrap3HO2NbVO5ghYyV8s7nbGtqncieFsasn/up/VhInVJaFy1csmeF8bt/lT+qOd8b2qf1YM6x62h65KuWdzvje1T+pzvje1T+rBC0GSrlnc743tU/qc743tU/qwQtBkq5Z3O+N7VP6o53xvap/Vgi2gyVcs7nfG9qn9TnfG9qn9WCFoMlXLO53xvap/U53xvap/VghaDJVyzud8b2qf1XqeFsazY/wC6n9WrXqf4x/wxVEM16lXLP52xrap3J52xrap3MEYs88lfLO52xrap3HO2NbVP6sFBYyV8s/nbGtqncpq4Wxvap/VhqaliIXLVyzedsb2qdxztje1TuYCWrQ1lq5Z3O2N7VO452xvap3MALQZauWfztje1T+pztje1T+rAC0GWrlmTwvje1T+qOd8b2qf1YMoatDcalXLP53xvap/U53xvap/VghaDJVyzud8b2qdxzvje1T+rBQWgyVcthHC+N7VP6p53xvap/VgUpS0MzqVcs7nfG9qn9TnfG9qn9WCJaDJVyzud8b2qf1Od8b2qf1YIWgyVcs6eF8b2qf1W+d8b2qf1YsrbURDVOpVyzud8b2qf1Od8b2qf1YItoayVcs7nfG9qn9TnfG9qn9WCFoMlXLO53xvap/UYIkxBkq5ercT30/wPiML6u+cDxPfT/A+Iwvq758D9WE6gnUDwfKj41V/ZS0rc5U/Gq/7KWmffT0h+T1v+kgCvMABVg/5wvrGD/nC+8q+ryr6gDDAAAt1/yXFuv+TVPVqnqpAbaABRVSpVUkpKoBlkAAROqUonVILMhOser2AAEJAQAoAAAAL1P8YWV6n+MMVsVqgGGAABTVqVKaiBSlCWmhCUAAAokJQ29ISCASIAVQlFKWWZABAACVtclbahukAVoAAAJR6txPfT/A+Iwvq75wPE99P8D4jC+rvnOfrwnUE6geDZUfGqv7KWmbnKj41V/ZS0z76ekPyet/0kAV5gAKsH/OF9Ywf84X3lX1eVfUAYYAAFuv8AlK4t1/yap6tU9VIDbQAAqpUqqSSVQDLIAAidUpROqQWZ1hI9XsAAAAgBQAAAAXqf4wsr1P8AGGK2K1QDDAhICEVKlNWogUgNNAlAAAKJ1oTI29IEJAQJATSlEJZZkAEAAJW1yVtqG6QBWgAAAlHq3E99P8D4jC+rvnA8T30/wPiML6u+c5+vCdQTqB4LlTVZw3X/AGUtLnNxlV8br/spaV0KY/iH5bVpjfKrOM5SLZ57YVZxnKQsbYVxhIpm1Xymlj16ls2RPVqNKmr+ZZnKaTlNLDDFSYKGZymk5TSwwxUmChmcppUVYeJljCxp0wuGmGRpoNNDHF2QYqWRpoNNDHDZBipZGmhNOHiGMmDZBOlSyuUQcohjDOOGcNLJ5RScohjBjgw0snlEE4eLGMGODDSu6SDSQtDW2GtkLukg0kLQbYNkLukg0kLQbYNkLk4WIRpoWqlKxTDcaVMwv6aDTQsC7YXFSv6aDTQsBtgxUr2mhkUYWM2GCyKP4x/wxXTDy1NOmIX9JBpYWhjbDx2Qu6WDSwtBtg2Qu6WEVYSLFtTVqIphYohc0kGkhaG9sN44XdJBpIWg2wY4XdJBpIWg2wY4TOFi1Gmhaq1oa2w9Y06bL2mg00LIbYMVK9poNNCyG2FxUr8YaFWmhjwlNkMTpUr+mhGmhZDZBipXtNCdNCwGyDFSvThoW9NCiVCxTDdOlSvaaDTQsi7YaxUr2mg00LIbYMVK9poFkNsEaNMvYeJ76f4HxGF9XfOB4nvp/gfEYX1d85T9KE6gnUDwPKr43V/ZS0rdZVfG6v7KWldCnpD8vq98gDTzAAU16ltcr1LbUPWjoAK0ACgAgAAAAmEJgSUgCAAISAACAAAACmpSqqUtQ9KegAqgADIo/jH/AAx2RR/GP+GK3lq9FQDDwAAFNSpTVqCOqAGnoAKAALVWtCataGntHQAAABMJRCUZkAAABE6lCudShYbpAFaAAAAew8T30/wPiML6u+cDxPfT/A+Iwvq75yH6EJ1BOoHgeVXxur+ylpW6yq+N1/2UtK6FPSH5fV75AGnmAApr1La5XqW2oetHQAVsAAAEAAAAEwhMCSkAQEJAAAAQAAAAU1KVVSlqHpT0AFUQkBDJo/jH/DGZNH8Y/wCGK3lq9FQDDwAAFNWpUpq1BHVADT0AFAAFqrWhNWtDT2joAAgEgmEohIzIAgAAiVCuVCw3SAK0AAAA9h4nvp/gfEYX1d84Hie+n+B8RhfV3zkP0ITqAHgeVXxur+ylpLYbLK2uqOHa7J/8dLR6Sq906af6w/O6ujM1yyrYLYYukqvNJVe1sYwzyy7YvRbDF0lV5pKrzYYZ5ZFepbti9ZrwlVmtbz6r2opelGjNmVb3lvexc+q8z6r12t4ZZVsXlsXsXPqvM+q82mGWVb3ptYmfVeqiuqzWm1J0ZhkjHz6rzPqvNqYpZAx8+q8z6rzaYpZBDHz6r1VNVV5tSdKWRahazpM6b0szjldFnOm9OdN5YxyuptWc6SapsNpjleGNn1XmfVeu1cMskY2fVeZ9V5tMMskYufVeZ9V5tMMsiqVFsLFddV6jPqvWKXrTozZlWwWwxc+q8z6r12tYZ5ZVsFsMXPqvM+q82mGWVbDIomM2P6/Zrc+q9VpsJH/2/wAM1UTLFf8A5qqv9bK2L4LYvhrdNhNr/BpsJtf4ZxS8vx1ctlbF8FsXw1umwm1/g02E2v8ABik/HVy2VsXwiqYva7T4Ta/wqpwtcz/Wr/C45PyVR/N2bbBbDFz6rzPqvNqYZZVsFsMXPqvM+q82mGWVbBbDFz6rzPqvNphldqn+qLYY1WEqt1o0lV7W17xoTbqyrYLYYukqvNJVeu1cE8sq2C2GLpKrzSVX/wCDaYJ5ZcTCbYvhgVYWuPv/AIRpa9r/AAbJPy1T/rYWwWxe1+lr2v8ABpa9r/Bsk/JVy2FsXwWxe1+lr2v8Glr2v8GyT8tXLYTMLbDjC17X+FzPqvNq/nmn/WQljZ9V5n1Xm0wyyBj59V5n1Xm0wyyBj59V4m0xS9q4nvp/gfEYX1d84Hie+n+B8RhfV3zju2H2D7A+ecrfjtf46Wib3K347X+OlonWo7YcWvukAaZAAU16ltcr1LbUPSjoAK2AAKqVKqNSM1dEgDAAAqpUqqUSeisBGEJQkBE6pSidQKAGnoAAAAor1KVValYetHRAkVpAlAAkBCQBAkBCqj+SE0fySUq6LoDL5wAAAFqrWpVVa0NPojogSKqBIC3UhNWtCvSOgAKAAQvLMLySxWADAAAAiva+J75AwPiML6u+cDxPfIGB8RhfV3riOmk+yE/YHzxlb8dr/HS0be5W/Ha/x0tE61HbDi190gDTIAIpr1La5XqW2oetHQAVsAAVUqVUakZq6JAGAABVSpVUok9FYCMAACJ1JROoFADT0AAAAUVqVValYetHQAVoAAAAAAAAVUfyUqqNaJV0XAGXzgAAALVWtCataGn0R0AFUABRVrUqqtalYekdAAaAAIXlmF5JedYAMAAACK9r4nvkDA+Iwvq71wXE98gYHxGF9XeuI6YAD56yt+O1/jpaJt8r8JMcP1/jpaHSVOxRT/WHJr0pmqV8WNJUaSpraziqXxY0lRpKjaYql2vUtqc+Z/oWrEN00TCoU2lpZbKhTaWliypVGpbtM6YLJNMyui1nyZ8lkxyui1nyZ8ljHK6qpWM+TSVQWSdKZZQxdNUaapNsphqZQxdNUaao2yYamUTqYumqNNUbZMNS8LOfJnytlxyvCznyZ8ljHK8haz5M+Sy45V1qVM1TKLSzdNMxCsUWlqrZWKLS0LSrFFqbQsqFJaFlQpAsqVUfyWyKpgSaZmGQLOklGklmzzxSvixpJNJJYxSvixpJTpJLGKU1a0Lc1zMozpas9oomy6LWdJnSWXZK6LWdJnSWNkqqtakmbUK1EWSIBUiAEwvLCrPklmqmZXRaz5M+UszsldFrPkz5LGyV0Ws+QsmyXuHE98gYHxGF9XeuC4nvkDA+Iwvq75w3SQCQfOGWHx+v8dLQt9lh8fr/AB0tC7VHbD4auoA0gABGtUpjWqGZABAABTOtUpnWLAANAACJSidakIAFAAAAVAIyAAAAACgAAABACJBAJAARKUAACgAAAKJ1hOsVuAAAAAAAAAAAAAAAAAAah7lxPfIGB8RhfV3zgeJ75AwPiML6u9cJ9SRAD5xyw+P1/jpaFvssPj9f46Whdqjth8NXUAaQAAjWqUxrVDMgAgAApnWqUzrFgAGgABEpROtSEACgAAAKgEZAAAAABQAAAAgIEShKASAAhKJAAFAAAAUTrCdYrcAAAAAAAAAAAAAAAAAA1D3Lie+QMD4jC+rvXBcT3yBgfEYX1d64T6gAHzjlh8fr/HS0LfZYfH6/x0tA7Wn2w+GrqkQNokQWgmNapTEptgZlIi2C2EEiLYLYUSpnWm2ETKEAi0tGkiLS0EqZSiVIABQAAAFQhKMgAAAAAoAAAAQAiRACRFoCUSWgAi0tVUiLQEiLS0FM6wnWDcAf1AAAAAAAAAARaCRFpaCRFpaCRFoNQ9z4nvkDA+Iwvq75wPE98gYHxGF9XeuE+pKAB845YfH6/wAdLQN/lh8fr/HS0Dt0dsPhq6gDSAAAAoAgAAAAAAAAIShQAFABAAEgCAAAAEJRCRABAAAAAAFAAESlCgAAAAAAlCQQkEAAFM60JnWhW46AAAAEqUoVQAAAAAHunE98gYHxGF9XfOB4nvkDA+Iwvq75wX1ggB845YfH6/x0tA3+WHx+v8dLQO3R2w+GrqANIAAACgCAAAAAAAAAhKFAAUAAAESAIAAAAQlEJEAEAAAABCQUAAQlEqAAAAAACUJBCQQAAUzrQmdaFbjoAAAAhCZQqgAAAAAPdOJ75AwPiML6u9cFxPfIGB8RhfV3rgvrAAfOOWHx+v8AHS0Df5YfH6/x0tA7dHbD4auoA0gAAAKAIAAAAAAAACAUAAAAABUgDIAAABCUQkQAQAAAAABQABEpRKgAAAAAAlCQAEAAFM60JnWhW46AAAAIlCUKoAAAAAD3Tie+QMD4jC+rvXBcT3yBgfEYX1d64L6wAHzVlnhppyhrj/8AnS5/lFX+w3eWnzFX+OlzzuafbDOOnhe5RJyif9hZG7Jjp4XuUT/sGnlZAx08L0YeZlVpp7liNaosk6dK7pp7jTT3LQWNlK7pp7jTT3LQWNlK7pp7jSytBZNlK7pZNLK2JY2Urmlk0srYtjZSuaWTSytkJZNlK5pJTpJWwNkLmkk0krYGyFekk0k2KCdQbITp57jTz3LM6xbN46eF7Tyaee5ZCxjp4XtPPduNPPduWQsY6eF7Tz/sHKJ7tyyFjFTwvconu3HKJ7tyyJYxU8L3KJ7jlE9yyFjFTwvconu3I5TP+wtKJ1lljSo4X+VVf7Byqr/YWBbNYqOF/lVX+wcqq7tywFjFRwv8qq7tyYxmZ/8Axjpp1lknSo4ZGnk08rIWZx08L2nk08rIhjp4XtPJp5WRTHTwu8pmLtyOVVf7CxOsLNYqOF/lU9245VV3blgLLio4X+U1d245VV/sLCCxio4ZHKJn/wDDlE/7CwBjp4XuUT/sHKJ/2FkDHTwv8on/AGDlErAGOnhenGJRp5WkBGnTwvaeTTysguOnhe08mnlZAx08L2nkWQMdPD6C4nvkDA+Iwvq75wPE98gYHxGF9XfOAghID5ky0+Yq/wAdLnnQ5afMVf46XPO5p9kKANgACY1qlMa1QzIAIAAEBAJAEAACAgEgIgAATqCdQq1OsJ1itgAAAAAoAAAAonWrUTrFgAGgABNOtCadYkqgBgAAABROsJ1g3AAKAAACAAAACEoFgAAAAAFfQXE99P8AA+Iwvq75wPE99P8AA+Iwvq75wHkAA+ZMtPmKv8dLnnQ5afMVf46XPO5p9kKANgACY1qlMa1QzIAIAAEBAJAEAACAgEgIgAATqCdQq1OsJ1itgAAAAAoAAAAo+6tR9xYABoAATGtCY1iSqAGAAAAFE6wnWDcAAoAAAIAAAAISgWAAAAAAV9BcT30/wPiML6u+cDxPfT/A+Iwvq75wHkAA+Ysta6Yyirtn/wAdLns+m+G0y5qmMpa/6z/8VDm86rane7mnP9Ye8aN4bDPpvgz6b4a/OqvneZ1W1O9q64fbYZ9N8GfTfDX51W1O8zqtqd5cw+2xium3XCrSUbUNZnVbU7zOq2p3l0nQ9tnpKNqDSUbTWZ1W1O8zqtqd5cwe2z0lG1BpKNqGszqtqd5nVbU7y5g9tnpKNqCMJRtQ1mdVtTvRn1bU7y5g9tppKNqDSUbUNXn1bU7zPq2p3l0/P7bTSUbUGko2oavPq2p3mfVtTvLn5/baaSjahOko2oarPq2p3omuraneXX8/tttLRtQaWjahqc+ranejPq2qt6XPze230tG1BpaNqGpz6tqreZ9W1VvLn5vbbaWjagnC0Wfyhqc+raneZ9W1O8ufm9tln0264M+m9r4qqs/lO8zqr53rdcPtsM+m+DPpva/Oq2p3mdVtTvLmH22GfTeZ9N7X51W1O8zqtqd5cw+2wz6bzPpva/OqvnenOm+S5h9s/PpvM+m9gZ03yZ03yXMLPz6bzPpvhgZ1V87zOqvneXMLPz6b4UTXTbrhh503ytzVVbrkusaLYZ9N8GfTtQ1+dVfKM6q+d5dcLY59N8GfTfDX51V87zOqvneXMLYZ9N8JjCU2/wAoa7OqvlFVVVn8p3lzD7bTSUbUI0lG1DU59W1O8z6tqd5c/P7bbSUbUGko2oanPq2p3mfVtTvLn5/bbaSjahOko2oajPq2p3mfVtTvLn5/baThKNqDSU7UNbFVW1O8zqtqd5dcPtstJTtQZ9O1DW51W1O8zqtqd5cw+2y0lO1BpKdqGtzqtqd5nVXzvLmH22Wkp2oM+m+Gtzqtqd5nVbU7y5h9tln03wZ9O1DW51W1O8zqtqd5dMHtss+m+DPpvhrc6raneZ1W1O8uYPbZZ9O1CnSUbUNfNVW1O9bz6tqd5dY0fbaaSjag0lG1DV59W1O8z6tqd5dcHttNJRtQaSjahq8+raneZ9W1O8uYPbaaSjagavPq2p3hcwe30zxPfT/A+Iwvq75wPE99P8D4jC+rvnBfGH2D7A+VcuvmWv8AFQ5p0uXXzLX+KhzTt0dsPup6ADSgAAAAAAACEoAAAAARKUSLCAEUAAAUVxqCNQMgAAACUJAAEAAFudatROsWAEDSQAFNWpKKtQKQEaAFAAEwlEJEAAAAAAAAAARKhXKgWABFAAAAfTXE99P8D4jC+rvnA8T30/wPiML6u+cNyw+wfYHyrl18y1/ioc06XLr5lr/FQ5p26O2H3U9ABpQAAAAAAABCUAAAAAIlKJFhACKAAAKK41BGoGQAAABKEgACAAC3OtcW51iwADQAApq1KlNWoFIA0AAAAmEohIgAAAAAAAAACJUK5UCwAIoAAAI+muJ76f4HxGF9XfOB4nvp/gfEYX1d84bmB9g+wPlXLr5lr/FQ5pvcvMYzcp8JFk//ABUejmeU90u1RP8AWHQppm0MkY3Ke6TlPdLd12SyRjcp7pOU90lzZLJGNynuk5T3SXNkskY3Ke6TlPdJc2SyRjcp7pOU90lzZLJQx+U90o5T3SXNkskY3Ke6TlPdJc2SyRjcp7pOU90lzZLJRLH5T3SnT2/aS67ZXhZ0xpkNsrws6Y03cG2V4WdMaYNssmNQxuU90nKe6VumyWSMblPdJynukubJZIxuU90nKe6S5slkpYvKe6U8p7pLmyWSMblPdJynukumyWSMblPdKOU90lzZLKW51rPKe6VPKO6S7UUSyELHKO6TlHdKXXbLIGPyjuk5R3SXNsshTVqWeUd0k4e37SXNsrgtaXuNL3C2ldFrS9xpe4LSui1pe40vcFpXoSsaaz7SafulbptlfFjT90mn7pLm2V8WNP3SafukubZXxY0/cafuLm2V8WNP3SafukubZXxY0/cafukubZXpUKNP3KdIl1imV0WtIaUutpXRa0ppS5aV0WtKF0tL6f4nvp/gfEYX1d84Hie+n+B8RhfV3zhuWH2D7A+RsvvmjCfio9HMOny++aMJ+Kj0cw7FHbDq0dsADbQAAAAAAAAhKAABQABVSpVUiSqAVAAAAFACKAAAAAAAAAAISgUAAAAICAVAKgAAACkBFAAAAAAAAAAAAAAAAABH1HxPfT/A+Iwvq75wPE98gYHxGF9XfOI5AfYPsD5Gy++aMJ+Kj0cw6fL75own4qPRzDsUdsOrR2wANtAAAAAAAACEoAAFAAFVKlVSJKoBUAAAAUAIoAAAAAAAAAAhKBQAAAAgIBUAqAAAAKQEUAAAAAAAAAAAAAAAAAEfUfE99P8AA+Iwvq75wPE/8gYHxGF9XfOI5AfYPsD5Gy++aMJ+Kj0cw6jL75own4qPRy7sUdsOrR2wANtAAAAAAAACEoAAFAAFVKlVSJKoBUAAAPsCgBFAAAAALJACySyQAsLAEJslFkigWSWABYWAEFiYgEhYWKgFhYAFgCkTYixFAsLAAskskATZJZIIE2SWSCBNklkggTZJZIIE2SWSCBNklkggTZII+ouJ76f4HxGF9XfOB4nvp/gfEYX1d84jkB9g+wPkzL2I/wCp8J+Kj0cxZDp8vPmfCfio9HMO1p9sOnT2wWQWQkaVFkFkCQRMQiyEyCosi4si5ICLIuLIuSAiyLkxEBAFkFkJBEWQWQkFRZCqmIQmkSU2QWQkERZBZCQEWQWQkBTZFxZFyQEWRcWRckBFkXFkXJAKYi5VZFyKVSoiyLiyLkgIsi4si5ICLIuRZFypAIsi4si5IgiyLiyLkgIsi5MUxbqExrBObFxmxckVlGbFxmxckBGbFxmxckAimLoTmxdBCREZtN0GbTdCQEZsXQZtN0JARFNN0JzKbo3JhIKcym6DMpuhUBdTmU3QZlN0blQF1OZTdG5VmU3RuFSopzKbo3GZTdG5UApzKbo3GZTdG5UApzKbo3CoB9HcT30/wPiML6u+cDxPfT/A+Iwvq75wXwh9g+wPkzL35nwn4qPRzLpsvPmfCfio9HMu1p9sOnT2wANKAAiQkFAAQkACAgEgCAACYQmkJVACAAAAIAAAAABNKpTSqVAAAABCUAAIAACY1oTGsFQCsgAAAJjUlEakiACgAgmEohIgAAAAqUqlAQkQAAAFfR3E99P8D4jC+rvnA8T30/wPiML6u+cF8IfYPsD5My9+Z8J+Kj0cy6fLyJ/6nwn9P/FR6OYsm52tPth0qe2ALJuLJuaUCybiybgQJmJulFk3DQhNk3SWTcAFk3Fk3AEFk3SmIm6QAsm4sm4ZAsm4sm4BNKLJuVUxNwspCybiybhkCybpLJuACybiybgQFk3Fk3SAFk3SWTdIAWTcWTcCaVSKYm5Nk3KAWTcWTdIAWTcWTcAhNk3SiybpACybpLJuQAsm4sm6QExrRZN0piJt1CKgsm4sm5UAsm4sm4ALJuLJuBMJIibiybhALJuLJuACybiybgTCURE3Jsm6RALJuksm4ALJuksm6QFSmybpVWTcoBZN0lk3CAWTcWTcAFk3SCvo7ie+n+B8RhfV3zgeJ76f4HxGF9XfOC+EAB835Y4hi2EygrqqwUTOjp+8tBzZivVRvl1GV3x6v8dLROvR2w5detqRVMRVP1ic24p1Mb5ObcU6mN8ssaYz6vlP1ic2Yr1Ub5ObcU6mN8ssDPq+U/WJzbinUxvk5sxTqY3yy0hn1fKfrD5sxTqY3yc2Yr1Mb5ZgGfV8p+sPmzFOpjfJzZinUxvlmAZ9Xyn6w+bMU6mN8pjgzFOpjfLLIEnX1fKfrE5sxTqY3yc2Yp1Ub5ZgXTPq+U/WHzZinVRvk5sxTqo3yzAuZ9Xyn6w+bMU6qN8pjgzFOpjfLLILmfV8p+sXm3FOpjfJzbinUxvlliXTPq+U/WJzbinUxvk5txTqY3yywuZ9Xyn6xObMU6mN8nNuKdTG+WWFzPq+U/WJzbinUxvk5txTqY3yywuZ9Xyn6xObcU6mN8nNuKdTG+WWFzPq+U/WJzbinUxvk5txTqY3yywuZ9Xyn6xObcV6mN8nNuK9VG+WWFzPq+U/WJzbivVRvk5txXqo3yywvJn1fKfrE5txXqo3yc24r1Ub5ZYXkz6vlP1ic24r1Ub5ObcV6qN8ssLmfV8p+sTm3FeqjfJzbivVRvlmILpn1fKfrE5txXqo3yc24p1Ub5ZgXXPq+U/WHzbivVRvk5txXqo3yzAumfV8p+sTm7FeqjfJzdivVRvllhcz6vlP1ic3Yr1Ub5ObsV6qN8ssLmfV8p+sTm7FeqjfJzdivVRvllhcz6vlP1ic3Yt1Ub5Tzfi3VRvllBeTPq+U/WLzfi3VRvk5vxbqo3yygvJn1fKfrF5vxbqo3yc34t1Ub5ZQXkz6vlP1i834t1Ub5Ob8W6qN8soLyZ9Xyn6xeb8W6qN8nN+LdVG+WUF5M+r5T9YvN+LdVG+Tm/FuqjfLKC8mfV8p+sXm/FuqjfJyDFuqjfLKC8mfU8p+sXkGLdVG+TkGLdVG+WUF5M2p5T9YvIMW6qN8nIMW6qN8soLyZtTyn6xeQYt1cb5GUF5M2p5T9excT30/wPiML6u+cDxPfT/A+Iwvq75x3bD7B9gfPGV3x6v8dLRN7ld8er/HS0Tr0dsONX3SANMAACUAJEJAAAIQmBJSAiAABAQCQBAAAAAAAAAAAAAAAAAAEggRIAAAAAAAAAACAAAAAAAAAAAAAAAAAAD2Lif+QMD4jC+rvnA8T30/wPiML6u+ch+gD7B9gfPGV3x6v8dLRN7ld8er/HS0Tr0dsONX3SANMAACUJAAAAAICBJSAiAABAQCQBAAAAAAAAAAAAAAAAAAEoSgRIAAAAAAAAAACAAAAAAAAAAAAAAAAAAD2Lie+n+B8RhfV3zgeJ76f4HxGF9XfOQ/QAH2B885W0zz9X+Olos2XQZWfHa/x0tG61E/1hw9Sqd0rebJmyuDV2N0rebJmyuBc3St5slkrgXN0rdkli4Fzct2Fi4Fzct2SmIVhc3KLCxWIl1NhYqAupsLFSJC6BIogSAgSAgAUAAAALCNaoRTYWKhC6mwsVAXU2CqUAAKAAAIAAFAAAAABAAAtAEiEgAAAAAAAAAAAA9i4nvp/gfEYX1d84Hie+n+B8RhfV3zjv0AfYPsD58ys+O1/jpaNvMrPjtf46WjdWjthwdTvkAaYAAAAAAAAAAAAAAESlEgACgAAAIAVQAAACNapTGtUiSACAACEygUAAAAQlAACqAAAAAAAAAAJQkQQkAAAAAAAAAAB7FxPfT/AAPiML6u+cDxPfIGB8RhfV3zjv0AfYPsD58ys+O1/jpaNvMrPjtf46WjdWjthwdTvkAaYAAAAAAAAAAAAAAESlEgACgAAAIAVQAAAExrSpjWqRJABAABCUCgAAACJSiQAFUAAAAAAAAAAShIgCASAAAAAAAAAD2Lie+n+B8RhfV3wOO/QB9gB8+ZWfHa/wAdLRg6tHbDgandIA2yAIACrYACwAFgALAAgAAiQAALNABYACwgAAAAACNaoAABkAAQBZoALAAWBAFgAAAAAAAAAAAASAAAAAAAgAAAAAK//9k=;" vertex="1" parent="1">
          <mxGeometry x="140" y="540" width="77" height="77" as="geometry" />
        </mxCell>
        <mxCell id="IUG1O-Y_2TdF6H-YGGcq-45" value="" style="shape=image;verticalLabelPosition=bottom;labelBackgroundColor=default;verticalAlign=top;aspect=fixed;imageAspect=0;image=data:image/jpeg,/9j/4AAQSkZJRgABAQEAYABgAAD//gA+Q1JFQVRPUjogZ2QtanBlZyB2MS4wICh1c2luZyBJSkcgSlBFRyB2NjIpLCBkZWZhdWx0IHF1YWxpdHkK/9sAQwAIBgYHBgUIBwcHCQkICgwUDQwLCwwZEhMPFB0aHx4dGhwcICQuJyAiLCMcHCg3KSwwMTQ0NB8nOT04MjwuMzQy/9sAQwEJCQkMCwwYDQ0YMiEcITIyMjIyMjIyMjIyMjIyMjIyMjIyMjIyMjIyMjIyMjIyMjIyMjIyMjIyMjIyMjIyMjIy/8AAEQgCWAJYAwEiAAIRAQMRAf/EABwAAQEBAAMBAQEAAAAAAAAAAAABAgMEBQcIBv/EADwQAQABAQQFCwQBAwMFAQEAAAABAhESUVIDBhMxkQQFFBUXVHKSk7LSMjZBYTUhU6FCYnEWIkNV8CUm/8QAGgEBAQEBAQEBAAAAAAAAAAAAAAECBQMEBv/EACURAQACAQUBAAICAwEAAAAAAAABEQIDEhMxUTIUYUFSBCEiM//aAAwDAQACEQMRAD8A5Ow/WLv/ADV6mk+B2H6xd/5q9TSfB97AfBOw/WLv/NXqaT4HYfrF3/mr1NJ8H3sB8E7D9Yu/81eppPgdh+sXf+avU0nwfewHwTsP1i7/AM1+ppPgdh+sXf8Amr1NJ8H3sB8E7D9Yu/8ANXqaT4HYfrF3/mv1NJ8H3sB8E7D9Yu/81eppPgdh+sXf+avU0nwfewHwTsP1i7/zV6mk+B2H6xd/5q9TSfB97AfBOw/WLv8AzV6mk+B2H6xd/wCavU0nwfewHwTsP1i7/wA1eppPgdh+sXf+avU0nwfewHwTsP1i7/zV6mk+B2H6xd/5q9TSfB97AfBOw/WLv/NXqaT4HYfrF3/mr1NJ8H3sB8E7D9Yu/wDNXqaT4HYfrF3/AJq9TSfB97AfBOw/WLv/ADV6mk+B2H6xd/5q9TSfB97AfBOw/WLv/NXqaT4HYfrF3/mr1NJ8H3sB8E7D9Yu/81eppPgdh+sXf+avU0nwfewHwTsP1i7/AM1eppPgdh+sXf8Amr1NJ8H3sB8E7D9Yu/8ANfqaT4HYfrF3/mr1NJ8H3sB8E7D9Yu/81eppPgdh+sXf+avU0nwfewHwTsP1i7/zV6mk+B2H6xd/5q9TSfB97AfBOw/WLv8AzV6mk+B2H6xd/wCavU0nwfewHwTsP1i/9hzV6mk+B2H6xd/5q9TSfB97AfBOw/WLv/NXqaT4HYfrF3/mr1NJ8H3sB8E7D9Yu/wDNXqaT4HYfrF3/AJq9TSfB97AfBOw/WLv/ADV6mk+B2H6xd/5q9TSfB97AfBOw/WLv/NXqaT4HYfrF3/mr1NJ8H3sB8E7D9Yu/81eppPgdh+sXf+avU0nwfewHwTsP1i7/AM1eppPgdh+sXf8Amr1NJ8H3sB8E7D9Yu/8ANXqaT4HYfrF3/mr1NJ8H3sB8E7D9Yu/81eppPgdh+sXf+avU0nwfewHwTsP1i7/zX6mk+B2H6xd/5q9TSfB97AfBOw/WLv8AzV6mk+B2H6xf+w5q9TSfB97AfBOw/WLv/NXqaT4HYfrF3/mr1NJ8H3sB8E7D9Yu/81eppPgdh+sXf+avU0nwfewHwTsP1i7/AM1+ppPgdh+sXf8Amr1NJ8H3sB8E7D9Yu/8ANXqaT4HYfrF3/mr1NJ8H3sB8E7D9Yu/81+ppPgdh+sXf+avU0nwfewHwTsP1i7/zX6mk+B2H6xd/5q9TSfB97AfBOw/WLv8AzV6mk+A+9gAWxiWxiAFsYlsYgBbGJbGIAWxiWxiAFsYlsYgBbGJbGIAWxiWxiAFsYlsYgBbGJbGIAWxiWxiAFsYlsYgBbGJbGIAWxiWxiAFsYpbGIWolsYlsYhaiWxiWxiFqJbGJbGIWolsYlsYhaiWxiWxiFqJbGJbGIWolsYrbGIWBbGJbGIAWxiWxiAJbGJbGIWolsYlsYhaiWxiWxiFqFsYlsYhYFsYlsYgBbGJbGIAWxiWxiAFsYlsYgBbGJbGIAWxiWxiAJbGJbGIWolsYlsYhaiWxitsYhYAAAD87188crj/VT5WOuOV5qfK6WkYdOIin5nHUyrt6HXHK81PlOuOV5qfK6AtQ1vy9d/rjleanynXHK81PldAKg35eu/1xyvNT5W4545XZ9VPlea3G5mYhnLUy9eh1vyvNT5TrfleanyugJUM8mXrv9b8rzU+U635Xmp8roBUHJl67/W/K81PlYr545XZ9VPldNivcRELGplfbudccrzU+U645Xmp8roDdQ9OTL13+uOV5qfKdccrzU+V0AqDfl67/AFxyvNT5Vjnjldv1U+V56xvKgnPL16XXHK81PlOuOV5qfK6AzUPPky9d/rjleanynXHK81PldAWoOTL13+uOV5qfKdccrzU+V0AqDky9ejTzvyuY+qnytdb8rzU+V59G5piYh5ZamV9u91vyvNT5TrfleanyuiFQnJl673W/K81PlOt+V5qfK6IVByZeu91vyvNT5U635Xmp8rpMlQ1Gpl67/W/K81PlOt+V5qfK6AtQvJl67/W/K81PlOt+V5qfK6AVByZeu/1vyvNT5U645Xmp8ropJUHJl67/AFvyvNT5TrfleanyugFQvJl67/W/K81PlOt+V5qfK6AVC8mXrv8AW/K81PlOt+V5qfK6B+SoSdTL16fW/K81PlOt+V5qeDo/gYmIeU6mXrvdb8rzU8DrfleanyuiFQcmXrvdb8rzU+U635Xmp8rohUHJl67ek535XZH/AHU+Vx9ccrzU+V1dJuhxN44xT1xzyrt3+uOV5qfKdccrzU+V0BrbDe/L13+uOV5qfKdccrzU+V0A2wb8vXeq545XZ9VPlY655Zmp8rp1bmF2w3jnlXbv9c8szU+U655Zmp8roC7Ya3Zeu/1zyzNT5TrnlmanyugG2Ddl67/XPLM1Plc+j535XNP1U+V5Ln0f0s5RFPLUzyrt6PW/K81PlOt+V5qfK6IxUPDky9d7rfleanynW/K81PldEKg5MvXe635Xmp8r19Wuc+U6XnnQ01VU2TVT+P8AdD+aezqv/OaHxU+6Gcoja9NHPLkj/b7zG5UjdCvhfqI6ABX5o0jjb0jDqR0/LY9CgrQAA3G5huNyZM5KAyxIAAxXubYr3ELj2wA29gABY3osbxGwGXmAKAAN0bmmaNzTEvKewAQAAZaZFgAVoAAT8qgAAoAAQCSfw5QGXj/IAAADGk3Q4nLpN0OJvHp7YdADTYAQJVuYbq3MNPTHoAFAAHPo/pcDn0f0s5dPPU6bAYfOAAPZ1X/nND4qfdDxns6r/wA5ofFT7oZz+Xrof+kPvMblSNyvgfqoABX5n0jDk0jjdSOn5bHoBVaBFAbjc43JG5MmclAZYkAAYr3NsV7iFx7YAbewAAsb0WN4jYDLzAFAAG6NzTNG5piXlPYAIAAMtMiwAK0AAJKp+QABQAACN6Sfw5QGXj/IAAADj0m6HG5dJuhxN49PbDoAabACBKtzDdW5hp6Y9AAoAA59H9Lgc+j+lnLp56nTYDD5wAB7Oq/85ofFT7oeM9nVf+c0Pip90M5/L10P/SH3mNypG5XwP1UAAr8zTXfSxnRuR1On5iY2zTNhY0FpbNhY0BbNjcbkVJSZLS0EYktLQAtY0k2Q249L9K49tYdsXoL0MD0p9O2G70F6GAo2w3ehYriJcZJUG2HLtYNrDhCoTjhzbWDaw4Q2wceLm2sG1hwhtg48XYp00RDW3h1YVNsJOji7G3pXbw6wbIThxdjb0rt4dYNkHDi7G3g20Ouptg4sXPtoNtDgDbBxYufbQm2hwhtg4sXNtoNrDhDbBx4ubawbWHCG2Djxc21g2sOENsHHi5trBtYhwpJtg48XP0un9HS6f06QvHD1j/G03e6XT+k6XT+nSDjxPxdN3ul0/o6XT+nRDjhPxcHcq5TTUztYdalo2wcOMf6c+1g2sOFDbBxYufawbWHAqxjBx4uWdLFjO0hxzuZWoajThzbSDaQ4QqF44c20g2kOEKg44c20hy0aaIh1G6dyTEM56UTDtbeF28OsM7YeXDi7G3hdvDrBsg4cXZ28Pa1V0sVc+6GP91Puh/OPc1T/AJ7QeKn3QznjG2XppaWMZw/QkblT8K5bvwACvzHo3I49G5HUl+Yy7ABkAAVFRJABmQABx6Xc5HHpfpI7a0/pwgPV9YAAACAAACgAEKkblEAAAAFRRAAAAAAAAAABJVJFjtwgNQ+iOgBQABaWmad7TLzy7VFQQFBEncy1O5kbgAUAAG6dzDdO5JZy6aARgAAe5ql/PaDxU+6l4b3NUv57QeKn3Us5/Mt6f1D9CRuVI3K5LuQAA/Mejcjj0bkdSX5jLsAGQABUVEkAGZAAHHpdzkcel+kjtrT+nCA9X1gAAEggAAAoABCpCiAAAACoogAAAAAAAAAAk7lSQjtwgNQ+iOgBVAAWne2xS2y88uxFQQUASdzLU7mRYAFUAAbp3MN07klnLpoBGAAB7mqf89oPFT7oeG9zVP8AntB4qfdDOfzLen9Q/QkblSFcl3AAH5j0djdsYw6MaSqPyu0rx/w6+yX5+dCbd22MYLYxh0tpXibSvE2Sn48+u7bGJbGLpbSvE2leJsk/Hn13bYxW2HR2leJta8f8JOnJ+NM/y79sYlsOhta8Ta14nHJ+Ll679sYlsOhta8xta8Tjk/Fy9d+2MXHpZix1NrXmZnSVzvlY06XH/GmJu3OOveqxL1WLdPbil2B171WJeqxNpxS7FqOC9Vik11Ym04pdgda/ViX6sTa1wy7I61+rEv1Ym04Zdkda/ViX6sTacMuzEwtsYurfqxL9WJtThl2bYW2MXVv1Yl+rE2nDLs2wtsOrfqxL9WJtOGXatjEth1b9WKbSrE2nBLt2wtsOntKsTaVYm04J9du2C2HU2lWJtKsTacE+u3bBbDqbSrE2lWJtOCfXcthLYdPaV4m0rxNq/jz67tsYpbDp7SvE2leJtPx59dy2CZix09pXibSrE2kaEw5hx2yWytN7acg47ZLZKNrkHHbJbJRtctLTrzVMflL9WJSTpTLs2jrX6sS/VibU4Zdkda/ViX6sTacMuzO5lwX6sVvTiUsaUuYcN6cS9OJS8UuYcN6cS9OJRxS5m6Z/o616cUnSVRulNqTpTLuWxiWw6W0rxNpXibU/Hn13bYxLYxdLaV4m0rxNp+PPru2w9zVKf/3tB4qfdS/ltpXi9/U+uqdYdBbP+qn30s54/wDMtY6ExlEv0cqK47qgAPysqflXchyZACQAIBFQWBFBQRQEVBQAAABJVJFhkAaAAAAAAAAAFBFQAAUAASVSQABoAAAEckCKPMAQAFGakWpBqAAUAAVFAAQAAGZ3tMzvUhABsAAe/qd9w6DxUe+l4D39TvuHQeKj30s6nzK49v0iA4j6wAH5W/Kp+VdyHJkAAAJBFQhYABRFAEVJFAAAAElUkWGQBoAAAAAAAAAUEVAABQABFSQABoAAAEb/AAqKPMAQAFGakWpBqAAUAABQAEAABmd7TM71IQAbAAHv6nfcOg8VHvpeA9/U77h0Hio99LOp8yuPb9IgOI+sAB+VvyriiqVvS7jmThLkHHekvSJslyDjvSXpDZLkRi9LN6RYxlyjivSXpKXbLlHFekvSUbZcqOO9KxVMyG2Wxm0tCmhm0tCmklLQKQLCwaAsLAAsLAAAAAAFBFLCy0FsLCy0FsLCy0SWrEmC1iUFsLBbQWwsC0FsLAtsZBmYaGREpoZtAoqRY/qt1bLZGrpdLW2Rq6XSy2VWYshkstRBFUQBWZ3qlirEoLYWC2gthYFo9/U77h0Hip99LwbHv6nx/wD0Og8VPvpZ1PmWsZ/2/SAg4j61AB+UIaZhp3Xwz2AIgACIqKsAAoAAtO9Fp3iT00AMACAAAAAAAACACgAAACooAAgAAk71Sd4CANCgAAAAACAKALG9piGxiewAQABmrcy1VuZG4ABoAAAAAAAAe9qf9w6DxU++l4L3tT/uHQeKn30s5/Mrj2/R/wCFT8K4r7QAH5QhpmN7TuvhnsAREVFBEVFWAAUAAWneixvEnpoAYAEAAAAAAAAEAFAAAAFRQABAABJ3qk7wQAaFRQRUUEUARUUEVFAhtiGxiewRRAAGatzLVW5kbgAGgAAAAAAAB72p/wBw6DxU++l4L3tT/uHQeKn30s5/Mrj2/R/4VPwOK+1QAflCGmIlq2HdfDPaiWxiWwIolsFsArK2wgsAAoAAtO9CJsEpsS9GMcS9GMcRmpUZvRjHFb0YxxQqVEvRjHEvRjAVKiXoxgvRjAUol6MYL0YhSiXoxgvRipQJejGC9GIUol6MS9GIUol6MS9GIUqs3oxW9GIUol6MYL0YoUol6MS9GIUqTvL0YpNUW74UqVGb0YwXoxgWpaGb0YwXoxgKloZvRjBejGAqWhm9GK3oxClGb0Yl6MQpoZvRit6MYCmo3tOOKoxhq/GMcUZmJaGb8YxxL8YxxEqWhm/GMcS/GMcQqVq3MLVVFm+Gb0YwrcRKiXoxgvRjAtSol6MYL0YwFSol6MYS/TjHEWpaGb9OMcS/TjHEKloZv04xxL9OMcQqWnvan/cOg8VPvpfz9+nGOL39Tq4nWHk/9Y+qn8/76WdT5lcYm36QhUHEfYoAPyaA7z5AAAABuNzDcbhMlARkAAYrbYrFjtkBp6gCAAJKgDIAAAKAAAAAAKigACAADFW9tireNY9oANgAAAktADIAAAAAAAAACTuRZ3ILAANAADFW9tireqx2gA2AAP6DUz7j5P46PfS/n39BqZ9x8n8dHvpY1PmR+mBRw2gAH5NAd58gAKAANxuYbjcM5KAjIAgMVtsVqsdsgNPUAQABJUASAAAAAAAAAABUUAAQAAYq3tsVbxrHtABsAAAEloAZAAAAAAAAAASdyLO5BYABoAAYq3tsVb1WO0AGwAB/QamfcfJ/HR76X8+/oNTPuPk/jo99LGp8yP0yA4bQAD8mgO8+QAAAAbjcw3G4TJQEZAEBmtpitVx7ZAaeoAgACSoAyAAACgAAAAACooAAgAAxVvbYq3jWPaADYAAAJLQAyAAAAAAAAAAk7kWdyCwADQAAxVvbYq3qsdoANgAD+g1M+4+T+Oj30v59/QamfcfJ/HR76WNT5kfplFHDaAAfkWNPMrtpcMb2nfJ08XJtpNtLjBNmLk20m2lxgbMXJtpOk1RhwcTKTBx4y5+k1frgdJq/XBwBS8WHjn6TV+uB0mr9cHAEQcWHjn6TV+uBPKJnDg4CFOLFzbeTby4gXZi5dvJtpcQGzFy7eUnTzDjSrcGzFydJn9HSZ/TgBrix8c/SZ/XA6TP6cAHFh45+kz+jpM/pwAcWHjlnldUT+OCdMqwjg69W9EajSw8dnplWEcDplWEcHWBeHDx2emVYRwOmVYRwdYDhw8dnplWEcGul1frg6jQnFh47PS6sI4HS6v1wdYDiw8dnpdX64HS6v1wdYDiw8dnpdX64J0qZw4OuQpx4+Ox0mf0dJn9OADjxc/SZ/R0mf04AOPFz9Jn9HSZ/TgA48XY6VP64HSp/XB1wTjx8djpVX64HSp/XB1wOLHx2OlVfrgdKn9cHXA4sfHPPKqow4J0ur9cHXqZGuLDx2ul1frgdLq/XB1RDiw8drpdX64HS6v1wdZA4sPHZnllVn44M9Mq/XBwTuZGuLDx2emVfrgdMq/XB1gOLDx2emVYRwOmVfrg6wHFh47PTKsI4HSqpw4OssBx4ux0mf/oTpM/rg4UF48XY6TP/ANB0mf8A6HXA48XY6TP/AND+i1J081ay8nj/AH0e+l/LP6PUf7m5N46PfSxqfMplhjT9SqiuI+cAB+QI3tMxvad9qQAAAEZaZFgAFAACAgFAAAAZq3NM1bghkAbAQFABx1b0Wreg3AAigADTKiSoAgAAQEKiggKAAAAIoAAAAM1ItSDUIAiqioBO5lqdzAsKAKAALCLAioqAAAr+j1H+5uTeOj30v5x/R6j/AHNybx0e+ljU+ZTLp+pYVIVw4fIAKPyBG9pmN7TvtSAAAAjLTIsAAoAAQEAoAAACVblSrcEMADYCAoAOOrei1b0G4AEUAAaZUSVAEAACAhUUAAAAAAAAAAAGakWpBqARUUBAJ3MtTuZFgAFABBYRYBQAAAH9HqP9zcm8dHvpfzj+j1H+5uTeOj30sanzKZdP1LCpCuHD5ABR+PY0lFv1Q1tKM0PJiurNPEv1Zp4u9b6+D9vW2lGaDaUZoeTfqzTxL9WaeJZwft620ozQbSjNDyb9WaeJfqzTxLOD9vW2lGaGdpRmh5d+rNPFL9WaeJZwft6m0ozQu0ozQ8q/VmniX6s08S14P29TaUZoNpRmh5d+rNPEv1Zp4lnB+3qbSjNC7SjNDyr9WaeJfqzTxLOD9vV2lGaDaUZoeVfqzTxL9WaeJZwft6u0ozQbSjNDyr9WaeJfqzTxLOD9vV2lGaEq0lFn1Q8u/Vmnik11WfVPFLOD9vS2lGaDaUZoeXfqzTxL9WaeJbXD+3qbSjNBtKM0PLv1Zp4l+rNPE3HD+3qbSjNBtKM0PLv1Zp4l+rNPEs4Xo1aSm36oS/Tmh5s1VZp4l6rNPEtuNJ6V+nNBfpzQ829VmniXqsZ4lnE9K/Tmgv05oebeqxniXqs08SzielfpzQu0pzQ8y9VmniX6s08SydF6m0ozQbSjNDy79WaeJfqzTxLTh/b1NpRmhNpRmh5l+rNPEv1Zp4lnD+3qbSjNBGkozQ8u/VmnisVVZp4lpwvT2lGaDaUZoedeqzTxL1WaeJZwvS2lGaE2lGaHnXqs08S9VmniWcL0dpRmg2lGaHnXqs08S9VmniWcL0dpRmhdpRmh5t6rNPEvVZp4lnC9LaUZoNpRmh5t6rGeJeqzTxLOF6O0ozQu0ozQ829VmniXqs08SzhehVpKM0M7SjNDzq6qv6f908WL9WaeKbmo0nqbSjNBtKM0PLv1Zp4l+rNPE3HE9TaUZoNpRmh5d+rNPEv1Zp4lnE9SdJTZ9UM36c0POiqrNPFb04zxLXjehfpxgv04w6F6cZ4penGeK2cb0L9OMF+nGHQvTjPFL04zxLON6F+nGFiunGHn3pxnisVVYzxLTjehfpxgv04w6F6cZ4penGeJacb0L9OMF+nGHn3pxniXpxniWcb0L9OMP6PUeumdZuTf1j66PfS/jb04zxf02ocz/wBU8m/rP10fn/fSxnP/ADKZYf8AL9ZwqRuVxXwAAPxPCpCu46YAAAAioAAKAAAAAAAAJUqVAyANAAgAKyAAAAAAAAAAAAtKLANAAACAAAAAAAAMV/hhuv8ADBLQAgAAsb2mY3tLAACAACwiwCgCAAD+m1C+6eTeOj30v5l/Tah/dPJvHR76WdT5lMvmX60hUhXFcsAB+J1SFdx0wAAABFQAAUBAUAAAAABKlZq3AgA0ACAArISAAAAAAAAAAALSi0g0AAAIAAAAAAAAxX+GG6/wwS0AIAALG9pmN7SwAAgAAsIsAoAgAA/ptQ/unk3jo99L+Zf02of3Tybx0e+lnU+ZTL5l+tIVIVxXLAAfieFcUaS1q+7jqVLYxfL4VLYxfL4VLbLN9naC1LkVxbU2pZUuQce1NqWVLlRx7U2n/JZUuVGNp/ybT/kKlsY2n/JtP+RKlyMzuZ2hftFiFCwsACwsACwFZCqbJS0FEtLQUS0tBRLVsAFsLAQWwsBFpLEmbAbHHfkvhTkHHfL4U5Bx3y+FOQRQABAAGK/ww5K4tYsklpBbJLsoILdkskCN6kQtkrABYWCCLYWSAsJYsQChYWCCLYWAP6bUL7p5N46PfS/mbH9NqH908m8dHvpZ1PmUy+ZfrSFSFcVywAH4fpbYpbdyHXABAAEYbYJWABFAACAgGgFhAABad6LTvByADIAAADjq3otW9BoAABAWN7bEb2/wJKgCAADFW9tireSsMgIoAAADljcqRuVYZAAABWakWpAAAAAIaZhoAAQAAABQAAAH9NqH908m8dHvpfzL+m1D+6eS+Oj30s5/Mpl8y/WaoriuWAA/D9LbFLbuQ64AIAAjDbBKwAIoAAQEA0iiwiAApTvFp3g5ABkAARQHHVvRat6DQCAAAsb2/wAMRvb/AAJKgCAADFW9tireSsMgIoAAAg5Y3KkblaZAAABWakWpARUUBFAIaZhQUAQBAUAFAAQUB/S6h/dPJfHR76X80/pdQ/unkvjo99LOfzKZfMv1oqK4rlgAPw/S2zTEtWS7kOsBZJZIAWFkgjDksli7JIgtklkoqC2SWSCELZJFMgot2S7KwILdkuyCLTvguytNM27gtsLJwLJwGbAsnAsnANwFk4Fk4CW46t6NVUzbuS7OA1Ewgt2cC7OAtwgt2cC7OAkzCRvbZimbdzd2cBLgFuzgXZwDdCC3ZwLs4BuRire5Ls4MVU1W7iS4YFuzgXZwRbhBbs4F2cBbhBbs4LdqwDdDcblWKarNxdqwWGd0ILdqwLtWAm6EFu1YF2rAN0MVI3VRVgzcqwF3QgtyrAuVYBcILcqwLlWAboSGkiirBq7VgJuxQW7VgXasBN0ILdqwLtWAboQW7VgsUVYC7sUFuVYFyrAN2KC3KsC5VgG7FH9NqH908m8dHvpfzVyrB/Tah0z/ANU8m/p/ro99LOfzLOcxtl+slRXFc0AB+M6aKcI4NXKcI4JTvbd59kyzcpwjgXKcI4NAls3KcILlOENAWzcpwhyRo6bPpjgy5I3KkzLOzoyxwNnRljg2DNyxs6MscDZ0ZY4NgXLGzoyxwao0dFv0xwVqjeJMzS7KjLHA2VGWODYPOJljZUZY4GyoyxwaULljZUZY4LToqLfpjg0U7xJmWtnRljgbOjLHBsHlcsbOjLHA2dGWODYG6WNnRljgbOjLHBsFuSnRUTH0xwXY6PJTwao3NDznKbY2OjyRwTY6PJTwcgibpY2OjyU8E2OjyRwcgG6WNjo8kcGtlo8kcFaEnKWNlo8kcDZaPJHBsRndLGy0eSOBstHljg2BuljZaPJHBadDo8lPBpqkScprtnYaPJTwNho8lPByAzun1x7DR5KeBsNHkp4OQQ3T649ho8lPA2OjyU8IcgJun02GjyU8DYaPJTwbBjdPrGw0eSngbDR5KeDkQTdPrGw0eSngbDR5KeDkQk3T6zGg0eSnguw0eSnhDUb2kZnPK+3HsNHkp4QbDR5KeEOQE35euPYaPJTwg2GjyU8IcgJvn1x7DR5KeENbDR5KeDTSJvn1x7DR5KeEGw0eSnhDkA3z649ho8lPCDYaPJTwcgG+fXHsNHkp4QbDR5KeDkA3z649ho8lPCDYaPJTwcgG+fXHsNHkp4Gw0eSng5AN8+uPYaPJTwh7uqGh0dOsGgmKKY/7qfx/vpeM93VH+f0Hip91LOfzLWGeW6P9v0OqK47qgAPxpS2xS07z65UQBRFAckbnG5I3KzkoAyCKA1RvZao3iT05AB5gigLTvRad4kuQAeYAIACt0bmmaNzQ857AREUABploSQBGQABqllqkSemgBgAQABJbVAeaiKACEqsb2mY3tI857ABAABplpEkAEAAAAAAAAHu6pfz+g8VPupeE93VH+f0Hip91LOfzLWH1D9DqiuO64AK/GlO9tmmJwad59cgFggFhYA5I3OOxyRH9FZlQs/RYIBYWANUb2bGqI/qJPTkCwsHkBZ+iwUWneli0x/USXIFhYPICws/QAWFgN0bmmaNzQ857EUsQAAGmWhJAEZAAGqWWqRJ6aAGABAAEltUUeYAAASEb2mY3tIxPYAIAANMtIkgAgAAAAAAAA93VH+f0Hip91Lwnu6o/z+g8VPupZz+Zaw+ofodUVx3XABX5V6ByeP8Axxxk6Dyf+3HGXZkdi5cTm1P7S63QeT/244ydB5P/AG44y7Ityc2p/aXW6Dyf+3HGToPJ/wC3HGXZC5ObU/tLrdB5P/bjjLXQtB/bj/LnaSZk5tT+0ut0LQf24/ydC0H9uP8ALshcpzan9pdboWg/tx/k6FoP7cf5dkLlObU/tLrdC0H9uP8AKxyPQx/44dgLk5tT2XB0TQ5I4ydE0OSOMucLk5c/ZcHRNDkj/J0TQ5I4y5wuTlz9lwdE0OSOMnRdDG6iHOklycufrh6Po8sHR9HlhzBcnJn64ej6PLB0fR5YcwXJyZ+uHo+jywdH0eWHMFycmfrijQaOP9MLsNHlcgXJyZeuPYaPLBsNHlcgXKb8vXHsNHlg2Gjyw5AuTfl649ho8sGxoyuRS5N+Xrj2NGU2NGVyBcm/L1x7GjKbGjK5AuTfl649hRlI0NGVyBcm/L1x7KjBdlRg2Fym/L1x7KjBdlRg2FybsvWNlRgbKjBsLk3ZesbOnA2dODYXJun1jZ04GzpwbCzdPrGzpwNnTg2Fk5SxGjpwW5GDSls7pYuRgXIwaVDdLFyMC5GDaBulm5GBdjBoC5ZuxgXacGgW5ZuxgXYwaAuWbtOC3IwUEuUuRgXIwaAuWbkYFyMGkEuUuRg9zVOmI5+0H9P9VPuh4r29U/57QeKn3Qxn8y3pzO+H6CVFct3gAV+Xgkdh+fABQABqGVgSVARAAAAAAAABJVJFAAAAAAAAAAAAFRQABAAAAAAAAAAAAAAAABUUAAQABABQAAABUAUBEAAHt6p/z2g8VPuh4j29U/57QeKn3Qzn8y3pfcP0EqK5bvAAr8vSEjsPz4AKAANMtQJIAiAAAAAAAACSqSKAAAAAAIoAAAAAqKAAIAAAAAAAAAAAAAAAAKigioCKioAAKAAAAAAoCIIqAr29U/57QeKn3Q8R7eqf89oPFT7oZz+Zb0/uH6CVFct3gAV+XpAdh+fABQABbUQGrS1kCmrYLYZApq0tZICmrS1AKW0tQCltJlAKLS0AotLQCi0tAKLS1AKW0tQCltLUApbVtZUKW0tQCltLUApbS1AKW0tQCltLUApbS1EKKavQXoZCimr0F6GFKKavQXoYUopqKoW9DAUbW70F6GAKbvQXoYCimrYL0MoUU3egvQyFFNXoL0MoUU3egvQwFFN3oL0MBRthu9BehgSjbDd6Huap1R19oPFT7oeA9zVL+f0Hip91LOXzLenj/wBQ/Q0fhUVyncgAB+XpAdh+fABQABFQAAUAAAgFAAAAAAAAAAABAAAAAAFRQAAAAAAAAAAEVAQUBAVVQUBFRUQAAAARUAAVQAABAAAAFHuapfz+g8VPupeG9zVL+f0Hip91LOfzLWH1D9DKiuS7QAD8vSA7D8+ACgACKgAAoAABAKAAAAAAAAAAACAAAAAAKigAAAAAAAAAAIqAIAKIqqCAKAiAAAAAICoCqqAAAgAAACj3NUv5/QeKn3UvDe5ql/P6DxU+6lnP5lrD6h+hlRXJdoAB+XgHYfnwAAABAFAAsACwgAtQAsAEsAFsAFAEAAEAAAAAAUAAAAAAAAAAAEAEAUACwALBQLABEsAWyxACwBVsACwBFiQAAAB7mqX8/oPFT7qQYz+Zb0/qH6G/Cg5TswACv//Z;" vertex="1" parent="1">
          <mxGeometry x="248.12" y="540" width="77" height="77" as="geometry" />
        </mxCell>
        <mxCell id="IUG1O-Y_2TdF6H-YGGcq-46" value="" style="shape=image;verticalLabelPosition=bottom;labelBackgroundColor=default;verticalAlign=top;aspect=fixed;imageAspect=0;image=data:image/jpeg,/9j/4AAQSkZJRgABAQEAYABgAAD//gA+Q1JFQVRPUjogZ2QtanBlZyB2MS4wICh1c2luZyBJSkcgSlBFRyB2NjIpLCBkZWZhdWx0IHF1YWxpdHkK/9sAQwAIBgYHBgUIBwcHCQkICgwUDQwLCwwZEhMPFB0aHx4dGhwcICQuJyAiLCMcHCg3KSwwMTQ0NB8nOT04MjwuMzQy/9sAQwEJCQkMCwwYDQ0YMiEcITIyMjIyMjIyMjIyMjIyMjIyMjIyMjIyMjIyMjIyMjIyMjIyMjIyMjIyMjIyMjIyMjIy/8AAEQgCWAJYAwEiAAIRAQMRAf/EABwAAQEAAwEBAQEAAAAAAAAAAAABAgMGBQQHCP/EADsQAQABAQMHCgUEAgIDAQAAAAABAgMTURESFTFSYaEEBQc0N0F0kbHRFBZTcXIGNWKSIXMyQiIkMyX/xAAbAQEBAQADAQEAAAAAAAAAAAAAAQIDBQYHBP/EACoRAQABBAEEAQQDAAMBAAAAAAABAhESE1EDBBQVUjEzYXEFITIiI0EG/9oADAMBAAIRAxEAPwD9B6Huz+x8Ra+rvnA9D3Z/Y+ItfV3wB3B3A/nr9Wz/APu1/wCul4Wc9z9W/vtf+ul4TtaP8w6XqRGUrnSZ0oNsWhc4zpQC0LllcrFRJhcplQEsuUyoBZcqZ0iCxC50mdKAtoXOkzpQC0LnSZZQC0LllMsgpZcsmWUAsuWUyyAWX/J/lFRLB/kAsf5ACxlkyygFlyyZZQFtC5TKgFoXKZUIVLLlMoBYymUAsZTKAWAEQAAAAAAAAABRIUUAAAAAGQAAAAAV+x9D3Z/Y+ItfV3zgeh7s/sfEWvq7507vw7g7gfzz+rf32v8A10vCe7+rf32v/XS8J21H+YdLX/qQBpkAAVFGZAAAAE71TvCAAaAAAAAFAAAABUUQEUAAEAQABQAAgFRQAAAAAAEQAAAAAAAAAAhUhQAAAAABAAAAAAH7H0Pdn9j4i19XfOB6Huz+x8Ra+rvnTu/DuDuB/PP6t/fa/wDXS8J7v6t/fa/9dLwnbUf5h03U/wBSANMAACoq2ZkAQAAE71QIsADQAAAthFAQABBUBQCwAFkuAFi4AigAAAACgqKJdAAuABdQEAAAAAAS4AXLgAXFSFC4AFwALgAAAlwAUAEu/Y+h7s/sfEWvq75wPQ92f2PiLX1d86d6AO4O4H89/q2iZ59r/wBdLwrurB036p/e6/wpeK7Kir/jDzvV60xXMPju6sC7qwfYNZuLdL47urAu6sH2BmbpfJd1YF3Vg+uNbIzknrS+K7qwLurB9oZym6XxXdRd1YPtDOTdL4ruouqsH2rCTXJ5EvhuqsC6qwfcGyTyanw3VWBdVYPuDZJ5NT4bqrAuqsH3LBslPJqfBc14FzXg9ANkp5NTz7mvAua8HoBsk8mp59zXgXNeD0A2SeTU+C5rwLmvB6ImyTyannXNeBc14PRDZKeTU865rwLmvB6IbJPJqedc14FxXg9KNasz1ZSe6qeZcV4FxXg9MNsnl1PMuK8C4rweoG2Ty6nl3FeC3FeD0mUE9WTy6nl3FeBcV4PVE3Snl1PKuK8C4rweqG6Ty6nlXFeBcV4PVIN0nl1PLuK8C4rwesJvk8up5Pw9eBcV4PVDfJ5dTyrivAuK8HrIb5PLqeV8PaYHw9pg9inUqeRUnl1PG+HtMD4e0weyJ5NR5dTxvhrTA+HtMHsh5NR5dTx45NaYL8NaYcJexSySe5qPLqeL8NaYHw1ph6vaDyajy6ni/DWmHCT4a0w4S9oPJqPLqeL8NaYep8La4cJe0zSe6qPKqeF8La4ep8La4er3Q8qo8qp4Xwtrh6nwtrh6vdDyqjyqnhfC2uHCR7onl1HlVP0Doe7P7HxFr6u+cD0Pdn9j4i19XfPzPXB3B3A/BP1T+91/hS8V7X6p/e6/wpeK7Cn6Q8t1vuSANOMAAjWyYxrZIkgAgAAsakWElJAEQAAWEWAlQEZAAAAZAIgAAACxrVI1smZZlBQAAEZQxZQkpKgIgAAQEAyAZEVFAABlGpUjUrKACAAC0smNLJmQAAAAZsGbMqAIAAACD9A6Huz+x8Ra+rvnA9D3Z/Y+ItfV3zT3AdwdwPwT9U/vdf4UvFe1+qf3ur8KXiuwp+kPLdb7kgDTjAAI1smMa2SJIAIAALGpFjUkpIAiAACwiwEqAjIAAADIBEAAAAWNapGtWZZkABUUBGUMWUJKSoCIAAiwEAoDIAAqKgM41KkalZQAQAAWlkxpZMyAAAADNgzZlQBAAAAQfoHQ92f2PiLX1d84Hoe7P7HxFr6u+ae4DuCdQPwT9U/vdf4UvFdxz/zRYW3OlVdVVeXNjVkeZoPk+3Xw9j2PRp/qf/HmerRM9SXNDpNCcn26+Hsug+T7dfD2PadFx4S5odLoTk+3Xw9k0Jyfbr4ex7TomEubjWydHHMfJ8v/ADr4ezLQfJtuvh7JP8p0YNVUuaHS6D5Nt18PY0Hybbr4eye16Bpqc0Ol0Hybbr4exoPk23Xw9j2vQNNTmlh0mg+TbdfD2Z08xcmmP+dfD2Sr+V6BPRqcwOo0DybbtOHsaB5Nt2nD2Z9v2/5PHrcuOo0DybbtOHsaB5Nt2nD2Pb9v+Tx63LrDp9A8m27Th7MqeYOTbdpw9kn+Y7eOV8euXLjqtAcm27Th7GgOTbdpw9mfc9v+Txa3KjqtAcm27Th7GgOTbdpw9j3Pbfk8Wtyo6rQHJtu04exoDk23acPY9z235PErcuOqj9P8lyf87Th7L8v8l27Th7M+67b8nh9Ryg6v5f5Lt2nD2Pl/ku3acPY91235PD6jlB1fy/yXbtOHsfL/ACXbtOHse67b8nh9Rysa1dVT+nuSzP8AztOHsz+XuS/UtOHs45/nO2/K+B1ZckOt+XuS/UtOHsfL3JfqWnD2T3nbfk9f1nJjrPl7kv1LTh7Hy9yX6lpw9j3nbfk9f1nJModX8vcl+pacPZlH6d5Lk/8ApacPYq/nO2/J6/rS5MdZ8u8l+pacPY+XeS/UtOHsz73tvyeu6zkx1ny7yX6lpw9j5d5L9S04ex7ztvyeu6zkyHWfLvJfqWnD2WP07yXL/wDS04ex73tfyR/G9Zyg675c5L9S04ex8ucl+pacPZj3/aflfWdZyA6/5c5L9S04ex8ucl+pacPY9/2n5PWdZyKOv+XOS/UtOHsfLnJfqWnD2Pf9p+T1nWcnGpXWx+nOS5P/AKWnD2X5c5L9S04ezE//AEHaflfVddyI675c5L9S04ex8ucl+pacPZPf9p+T1XXciOu+XOS/UtOHsfLnJfqWnD2Pf9p+T1XXclSydZH6d5L9S04ey/LvJfqWnD2Sf5/tPyvqeu5Idb8u8l+pacPY+XeS/UtOHsnv+0/J6nruSHW/LvJfqWnD2Pl3kv1LTh7Hv+0/J6juPw5Jm6r5d5L9S04ezL5e5Lt2nD2Zn+f7T8r6juPw5MdZ8vcl27Th7Hy9yXbtOHsnv+1/J6juPw5MdZ8vcl27Th7Hy9yXbtOHse/7X8nqO4/Dkx1ny9yXbtOHsHvu1/J6juPw9Toe7P7HxFr6u+cD0Pdn9j4i19XfO9ekCdQTqB+Zc9fuFX4w896HPX7jP4w895/qf7l5/qf7kAcbAIoEa2bCNbNmr6rAAyoAAzp1MGdOpmr6NUshBxtqAAyoYM6Gavo1T9WYDjcgIoCKJcZRqUjUOJsAAABlRrZsKNbNxVR/blo+gAzZoAQGUMWUJU1CgMKAALTrRadZMf0sfVmA4by5QAvIAF5GUalSNSuOZckSABcAC6wqQMzKwoAtwQBVYsklYAEUAAAFsw6Huz+x8Ra+rvnA9D3Z/Y+ItfV3z6o4QnUE6gfmXPX7hV+MPPehz1+4VfjDz3n+p/uXn+p/uQBxuMAAjWzYRrZs1fVqABlQABnTqYM6dTNX0ap+rJFHG2AAMqGDOhmr6NU/VkKjjcgACoogzjUEahxNgAAAMqNbNhRrZuKr6uan6ADKgCAyhiyhKmoUBlQABY1osa0n6LH1ZgOFygAAAMo1BGpXHLcAAoACwEDMwsKAKgADJiySVgARQAAAVh0Pdn9j4i19XfOB6Huz+x8Ra+rvn1RwhOoJ1A/Muev3Gfxh573edeQTacumrOiP/GHxaNnbh5Xrd70Y6kxMunr7TqzXMxDzx6GjZ24NGTtw4/N6PLPh9Xh54+/Rk7cLo2duDzejyeH1eHnxrZvtjm2Y/wC8Lo+dqGJ73o8rHadXh8I+7R87UGj52oTzOlyvi9Xh8I+7R87UGj52oPM6XJ4vV4fCzp1Pr0fO1CxyGY/7QzPedLlY7Xq8PkV9fwU7UHwU7UM+V0uWvG6nD5B9fwU7UHwU7UHldLk8bqcPkZUPp+CnahY5JMf9oSe56fLVPb9S/wBGgfR8LO1CfCztQ4/I6fLWivhoG/4WdqF+Fnag8jp8mivh84+j4WdqD4WdqDyOnyaK+GqNQ3fD74LidqGN1HLemtpG64naguJ2oN1HJpraRuuN8FxvN1HJpra6NbNlFjk71u97jq6lMy5KaJYDO73l3vZzgwlgM7veXe8zgwlgyhbveuak1QsUyguaZqXhbSguaZpeC0osazNWIyMzVCxE3ZAONyAAAAMo1KxichlYtLUSyGOUylpW8MhjlMpaS8M4Vrz8hnpjKxVDYNeeZ5jJlDMYZ5nmMmUM2TVnrebiaJWKobBrvNxebkwlc4bBrvNxebjCTOGwa7zcGFS50r0Pdn9j4i19XfOB6Huz+x8Ra+rvn1Fxh3B3JP0HG84dbn7Q+V9XOHWp+0PlfNu6tuq/bSKD89lEULCSEixEIAAAAIqLZAAARQEVFhJAFQAAABAFQAAAUJRZRIABf6AABAWEAFsABYAEFAQAAAAAAAAAARFRqGZVAVAAAAuAAoAAAt0s29D3Z/Y+ItfV3zgeh7s/sfEWvq759IcwdwdyT9BxvOHW5+0PlfVzh1uftD5Xzbu/vVftoAfnUABJCRUAAAAEVFQAAEUBFRUkAVAAAAEAVABQAAlFlAABAABAWAAVAAABFUBAAAAAAAAAABEVGoZlUBQAAVAAAAAABYG3oe7P7HxFr6u+cD0Pdn9j4i19XfPpDlDuDuSfoON5w63P2h8r6ucOtz9ofK+bd396r9tAivzgCASEigAtgALAioWQAWyIqKWBFQJAFZABQARAFsACgABKLKAAFkAAEBYABUAAABVASwAJYACwAFgALAAthEVFiGZVAUAAAFQVAFQAABW3oe7P7HxFr6u+cD0Pdn9j4i19XfPpDlCdQTqBwfOkz8bP4w+LLL7OdOuz+MPieG7iI21ft+KqZuudOJnTig4cYZvK50mdOKBjBeSapM6UkXGC8rnSZ0oi2jgvLLOkzpQLRwXlc6UzpEIphJqlc6TOlBcY4S8rnSZ0oGMcF5XOkzpQMY4LyudJnSiLaOC8ss6TOliFo4XKWWdJnSgWjhLyudJnSiJaC8ss6TOliFoLyyzpM6UC0F5M6TLKC4wXlcsmWUFtCXlcsmWUExgvK5ZTLIixTBMyuWTLKC2hLyuWTLKBaC8rlkyygWgvK5ZMsoGMLlK5ZMsoGMGUrlkyygYwZSZ0mWUFxhLzyudJnSgYwXnlc6TOlAxgvPK5ZM6UC0F5XOkzpQLQXlcsmWUC0F5XOlM6QW0JMyZ0mWcUUtCXkzpMsoFoLyudIgWgvL0uh7s/sfEWvq75wPQ92f2PiLX1d89u7UJ1BOoHBc6ddn8YfE+3nTrs/jD4nh+v92r9vw1fUAcSAAJISCACgAAneqEJIAqAAAAAAIoAAAAAAAAAgSKAAgAAiosEgCoAAAAAAAAAAgCgAAAAAAAAAACCSKgqKioAAD0uh7s/sfEWvq75wPQ92f2PiLX1d89s7YJ1B3A4LnTrs/jD4n286ddn8YfE8P1/u1ft+Gr6gDiszcALF0kJCwIoti0gCFpEVFhJiUUGrJYALFgAsWAQsWUQLFlALFgELFlECxZQCxZAkCwAtiwAWLCKhCSAKAAAAAAAAAAIAt0AC4AFwALgAXAAuAIJIqC3SwAFgALPS6Huz+x8Ra+rvnA9D3Z/Y+ItfV3z2ztgnUE6gfn3O1rEcumMn/WHw30YPo546/P4w+B5LrdKmepLqa+rVlLffRhxL6MGgcWmlnbU330YF9GHFoDTSbam++jAvYwaFTVSbam69jBL2GoXVSbJbr2MC9jBpE1UmyW29jAvYakWOlSmyW69gvYaQ1UpnLdewXsYNIaqTZLdewXsYNIaqTOW69gvYaQ1UmyW69gvYwaQ1UmyW69gvYwaQ1UmyW69jAvYwaQ1UmyW69jAvYaQ1UmyW69jAvYwaQ1UmyW29jAvdzUGqk2S23u4vdzULqpM5bb3cXu5qDVSZy23u5L2MGtCOlSTXLbe7i93NQuqlnOW293F7uag1Umctt7uL3c1BqpM5bb3cXu5qDVSuctt7uL3c1BqpTOW293F7uag1Umctt5uS83NYuuFzlsvNxebmsMIM5bLzcXm5rDCDOWy83F5uawwgzlsvNxebmsMIM5bLzcXm5rDCDOWy83F5uawwhM5bLzcXm5rDCDOWy83F5uawwgzlsvNw1hhBnL2eh7s/sfEWvq75wPQ92f2PiLX1d89e7wJ1BOoH5xzx1+fxh8D7+eOvz+MPgeW6v8AuXS1/wCpAHGyAAAqAioAoAgqAigqAAAAAAAAAAAAAAAAAAAAAACKhBIAqAAAAAAAAAAAAAAAAAAAAAAAAAAAAAAPZ6Huz+x8Ra+rvnA9D3Z/Y+ItfV3z1jvgnUE6gfnHPHX5/GHwPv546/P4w+B5bq/7l0tf+pAHGyAAKggogCiAKgAAKgAAAAAAAAAAAAAAAAAAAAAAioQSAKgAAAAAAAAAAAAAAAAAAAAAAAAAAAAAD2eh7s/sfEWvq75wPQ92f2PiLX1d89Y74J1BOoH5xzx1+fxh8D0ed4/9+fxh8GSHletP/ZLpq4/5SxGWQyOO7NmIyyGRLlmIyyf5XJCXMWAzyQZIMjFgrLJBkgyMWAzyQZIMjFgM8kGSFyMWAzyQZIMjFgM8kGSDIxYDPJBkguYsBnkgyQZGLAZ5IMkGRiwGeSDJBkYsBnkgyQZGLAZ5IMkGRiwGeSFyQmRi1jZmwZsGRi1jZkgyQZGLWjbmwZsEVwY3ahtzYwM2MDODCWobc2MDNjAzgwlqG3NjAzYwM4MJahtzYwM2MDODCWobc2MDNjAzgwlqG3NjAzYwM4MJahuimDNg2QYS0jdmwZsGyDCWkbsyDNg2QYS0jdmwZsYJsg1y0jdmxgubGBshdctA3ZsYGbGBsg1y0jdmxguZTgbYNctA35lOBmU4G2DXLQN+ZTgZlOBtg1y0DfmU4Btg1y9Loe7P7HxFr6u+cD0Pdn9j4i19XfPYu6CdQTqB+dc79en8YfC+7nfr0/jD4Xk+t9yXT1/6kAcTIAod6p3qigCAAAAAAogCWAUUEVEAVCwqKiigJYRUUsIqKoRrVO9WbKAiCgAiopZYVFQsqghYACwqKhYACwoBYICBkVFQFRUAVFRYABQABUVJAAAAUAEeh0Pdn9j4i19XfOB6Huz+x8Ra+rvnuHaBOoJ1A/Oud+vz+MPhfdzv1+fxh8LyfW+5LqK/9SAOJgAA71TvVFAAAAAAAARQAAARQAAAAAAAAAACNaoqKAIAAIqKLCooKIoCCoAKAgoAABAQMioqAAAKiosAAoAAqKkgAAAAAD0Oh7s/sfEWvq75wPQ92f2PiLX1d89w7QJ1BOoH51zv1+fxh8L0udrGqeXTMR/1h8NxXg8h1upTsl1ddFWUtY2XFeBcV4OLbTyxhU1jZcV4FzXgbKOTCpr71Z3FeXUtxVgmyjlddTWNlxVgXFWBtp5NdTWNlxVgXFWBtp5NdXDWNlxVgXFWBtp5NdXDWNlxXgXFWBtp5NdXDWNlxVgXFWBtp5NdXDWNlxVgXFWBtp5NdXDWNtxVhxS4qw4pto5NdTWNlxVhxW4qw4m2jk11NQ23FWHFLirDibaOTXU1jbcVYcUuKsOJto5XXU1jbcVYcS4qw4m2jk11cNQ23FWHEuKsOJto5TXU1RrVsuKsC4qwNtHK66msbLirAuKsE2UcmuprGy4qwLirA2UcmupqVsuKsFuKsDbRyRRVw1o23NWBcVYG2jlcKuGsbLirAuKsDbRyYVcNaNtxVgXFWBto5MKuGtG24qwLirA20cmFXDUNtxVgXFWBto5MKuGsbLirAuasDbRyYVcNcDZFjVgtzVhxZ2Ucrrqa0bbmvAuasOJso5NdTWjbc1YcS5qw4myjk11NStlzVhxLmrDizsp5XXU1jZc1YFzVgbKeVwqaxsuasOJc1YcTZTyYVcNas7mrBbmrAnqUmFTWNlzVgXNWBspMKmsbLmrAuasDZSYVNY2XNWAbKeTCp9nQ92f2PiLX1d84Hoe7P7HxFr6u+e7diHcHcSOG5z65P4w+N9nOfXJ+0PjeA7n71X7fnn6gDgQAUFRUagASwAFgALAAWAAsAAACKAAAAAAAAAAAAAACgIqKlgBRUAAAAAAAAABQEUALAAAAKACAAoAIAAAAAIrZ0Pdn9j4i19XfOB6Huz+x8Ra+rvn0tsO4O4kcNzn1yfxh8b7Oc+uT9ofG8D3P3av2/PP1AHAgAAqKiwACgAAAAAIoAAJIAIoACoqACoAogCooCKgAAAoCKihAAigAAAAAAAAAKAigAAAAAAAAAAAAAAAAArZ0Pdn9j4i19XfOB6Huz+x8Ra+rvn0psO4O4kcNzn1yftD432c59cn8YfG8D3H3av2/PMf2APzlgALCooRAAKAAAAAAAAAIWAEUAAAAAAAAAAFQAAFRUAVFS5AAXWwAXLABcsAFywAXLABcsoCKAFwALgAXAAuABcAC4AFwALgAl1bOh7s/sfEWvq75wPQ92f2PiLX1d8+lth3B3EjkOX2VM8qmZjuh81xRhD7eXdZn7Q+Z8w7uurfV/f8A6/VT06bfRruKMILijCGwfn2Vcrrp4a7ijCC4owhsDZVya6eGu4owguKMIbAzq5XXTw13FGEFxRhDYGdXJrp4a7ijCC4owhsDOrk108NdxRhBcUYQ2BnVya6eGu4owguKMIbAzq5NdPDVc0YLcUYQ2BnVya6eGu4owhLmjCG0M6uU108NVzThBc04Q2hnVyYU8NVzThBc04Q2oZ1cmFPDXc04QXNOENqGdXJhTw1XVOBdU4NiGdXLOFPDC6pwLqnBmGdXJhTwwuqcC6pwZhnVyYU8MLqnAuqcGxDOrkwp4YXVOBdU4Mwzq5MKeGF1TgXVODYhnVyYU8MLqnBLqnBsFzq5TCnhhdU4F1TgzDKTGGF1TgXVODMMpMYYXVOBdU4MwykxhhdU4F1TgzDKTGGF3TgXVODMMpMYYXVOCXVODYGUmMMLunAu6cGYZSYwwu6cC7pwZhnJjDC7pwLunBmGcmMNc2dOCXdODORcpTGGF3TgXdODMMpMYYXdOBd04Mwykxhhd04F3GDMMpMYYXcYF3GDMMpMYYXcYF3GDMMpMYYXcYDMXKTGGroe7P7HxFr6u+cD0Pdn9j4i19XfPqjgDuDuJHKcu6zP2h8z6eXdZn7Q+Z8u7v79f7l+2n6AD8ygAAAAAAAAAAAAAAACKggKgKioDEBWQAAAAAAAFRQEAVJAAAAAAAAAAAAAAAAAAYyEioAKAACKCAAAAIKA1dD3Z/Y+ItfV3zgeh7s/sfEWvq759WfnDuDuJHKcu6zP2h8z6eXdZn7Q+Z8u7v79f7ftp+gA/MoAAAAAAAAAAAAAAAACCKIAqKgIgKyKgCoAKioAqAKCAAKkgAAAAAAAAAAAAAAAAAMZCRUAFAAAAQAAAAABq6Huz+x8Ra+rvnA9D3Z/Y+ItfV3z6s/OHcHcSOO5wtZjlcx/jVD5L6rCG/nLrc/aHyPm/dUU7qv2udTZfVYQX1WENY4MKTOpsvqsIL6rCGsMKTOpsvqsIL6rc1oYUmdTbfVbi+q3NQYUpsqbb6rcX1W5qDCk2VNt9VuL6rc1BhSbKm2+q3F9VuagwpNlTbfVbi+q3NQYUmyptvqtyX1W5rDCk2VNl9VuL6rc1hhSZ1Nl9VuL6rc1hhSZ1Nl9VuL6rc1hhSZ1Nl7O4vZ3NYYUmdTO9nct7O5rDCkzqbL2dxezuawwpM6mc2s7i+q3NcjUUUmdTZfVbi+qwhrDXSbKmy9q3F7Vuaw10pnU2XtW4vZ3NZBNFK51Nl7O4vZ3MBnCkzlnezuL2dzAMKTOWd7O4vZ3MAwpM5Z3s7i9ncwDCkzlnezuL2dzAMKTOWd7O4vZ3MAwpM5Z3s7i9ncwDCkzlnezuL2dzAMKTOpnezuL2dzAMKTOWd5O4vJ3MBcaUzqZ3k7i8ncwDGkzqZ3k7i8ncwDGkzqZ3k7i8ncwDGDOpneTuLydzAMYMpZ3k7i8ncwDGDKWd5O4awxgyls6Huz+x8Ra+rvnA9D3Z/Y+ItfV3z6codwdxI4rnLrc/aHyPr5y65P2h8j513X3qv2yAOAAAEVAABAAAAAAAAAAAAAAAAAAAAAAEkJFgAFQAAICElVAQAAAAAAAAAAAAAAAAAAAAAAAAAAAAAAZ9D3Z/Y+ItfV3zgeh7s/sfEWvq759MbDuDuJHFc5dbn7Q+R9fOXW5+0PkfOu6+9V+2QBwAAAioFwAsgAWAAsABYACwAFgALAAWAAsABYACwAFhJCRYABUAACAhJVQEsABYACwAFi4AWLgBYuAFj+wAsf2AFj+wAsf2AFltIAWT+wAstpACxaQAsWkALFpZ9D3Z/Y+ItfV3zgeh7s/sfEWvq759MaDuDuJHF84xPxc/wCO6HyZJwffzhH/ALU/aHzZIfNe6r/76v25I6cWack4GScG7JCZIfn2Sa4ask4GScG3JBkg2Sa4ask4Jmzg3xEZVyRgbJNUPnzZwM2cH0ZIwMkYJtk1Q+fNnAzZwfRkjAyRgbZNUPnzZwM2cH0ZIwMkYG2TVD582cDNnB9OSMDJGBtldMPmzZwM2cH05IwMkYLtNMPmzZwM2cH05IwIiME2ykdJ82bVhJm1YS+vJGBkjA2yuh8mbVhJm1YS+vJGBkjA2yaHyZtWEmbVhL68kYGSMDbJpfJm1YSZtWEvryRgZIwg2yuh8mbVhJm1YS+vJGEGSMDbJofJm1YSZtWEvryRgZIwNsmh8mZVhKZlWEvtyRgZIwg3Gh8WZVhJmVYS+3JGEGSMIN0njvizKsJMyrCX25sYQZIwg3SeO+LMqwlYoqwl9mSMIWIjCDdJHbvizKsJMyrZl92bGEGbGEG6V8d8OZVsyZlWEvuzYwgzYwg3SeO+HMqwkzKsJfdmxhBmxhCbpXx45fDmVbMmZVsy+/NjCDNjCF3SeO+DMq2ZMyrZl9+bGEGbGEJuk8d8GZVsyZlWzL782MIM2MIN0njvhzK9mS7r2ZehFNOEGbThBuk8WHn3dezJd17MvRzacITNpwg3SeLDz7uvZku69mXoZtOEGbThBulfFh593XsyXdezL0qaacIXNpwhd0rHaQ8y7r2ZLuvZl6ebThBm04QbpXxIeZd17Ml3Xsy9PNpwgzacIN0p4kcvMu69mS7r2Zenm04QzzadmPI3SviQ8m7r2ZLuvZl62bTsx5GbTsx5G6TxIeTd17Ml3Xsy9bNp2Y8jNp2Y8jdJ4kPJu69mR6ubTsx5Buk8SHl9D3Z/Y+ItfV3zgeh7s/sfEWvq759TfkDuDuSfoOQ5w61P2h8r6ucOtT9ofK+Zd39+v9v0R9AB+dQADvZMY1skkQUQQUBFgIFBUFFQQUgIFhkCI0oICgAAAAAAAQqQpZQBC4AFxYRYFhQFUAAICEFAVbgCFwAGUalSFRbgAoAC0smNLJWoAAAAGTFktlgALKAFgAUeT0Pdn9j4i19XfOB6Huz+x8Ra+rvn1l04dwdyT9ByHOHWp+0PlfVzh1qftD5XzLu/v1/t+iPoAPzqAARrZMY1qkigIqAApAQAKiKAALCLAsMkVEUABQAABQAAACFSFFAEAAEZQiwLCgCgABAAoAoAAADKAhUUAFQUBaWTGlkrUAAIqAKyYslWAAUAAAB5PQ92f2PiLX1d84Hoe7P7HxFr6u+fWnTh3ASOQ5w61P2h8robfme+tZry06sZa9Bb4/tLwvcfw/dV9WqqI/pzRVFnhD3dBb4/tJoLfH9pcPpO7+K5Q8Ie7oLfH9pNBb4/tJ6TvPiZQ8KNavc0Fvj+0roP+VPnJ6TvPiZQ8Ie7oP8AlT/aTQf8qf7Sno+8+JnDwh7ug/5U/wBpNB/yp/tJ6PvPiZw8JYe5oP8AlT/aTQf8qf7Sej7z4mcPDHuaD/lT5yaD/lT5yej7z4rnDw1e3oP+VPnJoP8AlT5yej7z4mcPEIe3oP8AlT5yscyb6fOT0fefEiuHij29C76fOU0Jvp85T0fefFrZS8Ue1oTfT5yuhd9PnJ6PvPibKXiD29C76fOU0Jvp85PR958TZS8Ue3oXfT5yaF30+cno+8+JspeIPb0Lvp85NC76fOT0fefE2UvEHt6F30+cmhd9PnJ6PvPibKXiK9rQu+nzk0Lvp85T0fefFdtLxR7Whd9PnJoXfT5yej7z4m2l4o9rQu+n+0mhd9PnJ6PvPibaXirD2dC76fOTQ2+nzk9H3nxWOrS8cezob7f2k0Nvp85PR958TbS8YezobfT5yaG30+cno+8+JtpeMQ9nQ32/tJobfT5yej7z4m2l449jQ++POTQ++nzk9H3nxXdQ8cexoffT5yaH3x5yej7z4m6h449jQ++nzk0Pvjzk9H3nxN1DyY1K9bRG+nzk0Rvp85T0XefFd1HLyR62iN9PnJojfT5yei7z4m6h5I9bRG+nzk0Rvp85PRd58V3UPKpZPUjmnJs+cror7ecr6PvPisdeh5Q9XRP4+cmifx85PR958TfQ8oeron8fOTRP4+cno+8+JvoeUyenon8fOTRe+POT0fefFd9HLzB6ei98ecmi98ecr6PvPivkUPMHp6L3x5yaL+3nJ6PvPieRQ8wenov7ech6PvPieRQ5boe7P7HxFr6u+cD0Pdn9j4i19XfPoTrQABFAQULCChYQUBBQEFAQUBBQEFAQVABQEFAQVAAUEFAQAAUBBQEFAQUBBQEFAQUAAAAAAAAAAAAAAATKoCZTKoCCgIKAgoCCgOB6Huz+x8Ra+rvgAAAAAAAAAAAAAAAAAAAAAAAAAAAAAAAAAAAAAAAAAAAAAAAAAAAAAAAAAAAAAAAAAAAAAAAAAAB//9k=;" vertex="1" parent="1">
          <mxGeometry x="140" y="648" width="76" height="76" as="geometry" />
        </mxCell>
        <mxCell id="IUG1O-Y_2TdF6H-YGGcq-47" value="" style="shape=image;verticalLabelPosition=bottom;labelBackgroundColor=default;verticalAlign=top;aspect=fixed;imageAspect=0;image=data:image/jpeg,/9j/4AAQSkZJRgABAQEAYABgAAD//gA+Q1JFQVRPUjogZ2QtanBlZyB2MS4wICh1c2luZyBJSkcgSlBFRyB2NjIpLCBkZWZhdWx0IHF1YWxpdHkK/9sAQwAIBgYHBgUIBwcHCQkICgwUDQwLCwwZEhMPFB0aHx4dGhwcICQuJyAiLCMcHCg3KSwwMTQ0NB8nOT04MjwuMzQy/9sAQwEJCQkMCwwYDQ0YMiEcITIyMjIyMjIyMjIyMjIyMjIyMjIyMjIyMjIyMjIyMjIyMjIyMjIyMjIyMjIyMjIyMjIy/8AAEQgCWAJYAwEiAAIRAQMRAf/EABwAAQEAAgMBAQAAAAAAAAAAAAABAgQDBQYHCP/EADQQAQABAQQIBQQBBQEBAQAAAAABAhESE1EDFBUxUmGRoQQFcbHRNDVBcvAGFiGBskIyYv/EABsBAQEBAAMBAQAAAAAAAAAAAAABAgMGBwUE/8QAKREBAAEDAwMEAwEBAQEAAAAAAAECERMEEhUDFFExM1JhBSFxMiJBI//aAAwDAQACEQMRAD8A86qK+w6+IoCCgItgoJYWKBdLCxQLpYWKfkLlhYoJdjYWKBcsSxkiIWFigl0sLFEW8pYWKBeUuwt2FgC8pdguwoXS8pdguwoF5S7BdhVEmZY3YLsMguXljdguwyC5eWN2C7DIgul5S5BchkFzdLG5BchkFzdLG5BchkFzdLG5BchkFzdLG5BchkFzdLG5BchkBuljFELhwyhUuzNUsMODDhmFzdLDDgw4Zhc3Sww4XCj+QyhUum6WGFH8gwo/kORC8m6WGFH8gwo/kORC8m6WGFH8gwqf5DkIJmU3VMMKn+QYVP8AIcgm6TfV5ceFT/IMKn+Q5A3Sm+ry48Kn+Q7v+lNHTHnugn/9U/8AUOod1/S33zQ/tT/1DNUzZy9Guqa4fe43KkblfOdkj0ABX5eVFfYdfAEAABUUAAQAAPyH5BQARQEEVAUAZAEUABYCFARREQUURQCQBEAAABFAAAAAAAAAAABYVIVJZkAEAAIZMYZAACAABAQkigIzIAA7r+lfvmh/an/qHSu6/pX75of2p/6hmr0cnR9yH3uNypG5Xz3Z4ABX5eVFfXdfAAAAFRRAAuABcD8h+S4oAlwALiKAAIgAAACwqQqAAAAAAJIAqAAACIoAAAAAAAACgACwqQqSzIAiAADJiyAAEAACAhJSVARAAB3X9LffND+1P/UOld1/S33zQ/tT/wBQzV6OXo+5D73G5Ujcr57s0AAr8y6rpcvc1XS5e7vYV+nu6nUe6qdDquly9zVdLl2l3wnd1HdVOh1XS5dpNV0uXaXfB3dR3VTodV0uXaWUeE0uXaXeOSNyTq6juann9U0uXaTVNLl2l6ATvKjuann9U0uXaTVNLl2l6AO8qO5qef1TS5dpI8Hpbd3aXoFp3p3lS9zU8/qem4fc1PTcPaXoxnvqvC9xU85qem4e0mp6bh7S9GHfV+DPLzmp6bh7Sanpsu0vRkbzvq/Bnl53UtNl7mpabL3ekE76vwmaXm9S02Xualpsvd6QO+r8GaXm9S02Xualpsvd6QO+r8GWXnI8Fpsu0rqem4fd6OFTv6/C5Zeb1PTcPuanpsvd6QTvq/Bll5vUtNw9pNT03D7vSB31fgyy83qWm4e0mpabLtL0jJJ19fgyy8zqWm4e0mpabh7S9MHf1+FyS8zqWm4e0mpabh7S9MHf1+DJLzOpabh7SseB03D2l6VlSk/kK/Bkl5nUdPw9pNR0/D2l6gZ5CvwZJeX1HT8PaTUdPw9peoF5CvwZJeX1HT8PaTUdNw9peoDkK/Bkl5fUdPw9pNQ0/D2l6kZ5Gvwu+XltR0/D2k1DT8PaXqQ5Gvwm+XltQ0/D2k1DT8PaXqQ5Gvwb3l48Dp+HtK6jp+HtL08b2SclX4Nzy2o6fh7Sajp+HtL1InJV+Dc8tqOn4e0mo6fh7S9SHJV+Fu8tHgNPb/8APaWWo6fh7T8PURvZJP5OvwPK6jp+HtPwajp+HtPw9UJydfgeV1HT8Pafg1HT8Pafh6oOTr8Dyuo6fh7T8LHgNPw9p+HqWVKT+Tr8Dymoafh7Sahp+HtPw9YJylfhbPJ6hp+HtPwahp+HtPw9YHKV+Czyeoafh7T8O5/pjwemo860NU0/4vU/ieKHZuw8l+5aP1j3hafyVdU2s5OlT/3D6fG5kxjcyfqdlgAB8ChUhWXRwBFAAGcbmDONzMigIoAAtO9Fp3pPoMwHG0AAEbwjeDIBloAVAAVYVIVkAAAAGTFkzKwAIoAAypYsqUn0GQDMKAAAAoDLQAAABDJI3qzIAIoAELG9kxjeyZqaAEAABlSxZUpKwoDLQAA7DyX7lo/WPeHXuw8l+5aP1j3hvp/6hydH/cPp8bmTGNzJ9x2MAB8ChUhWXRwBFAEBnG5gzjckigIoAAtO9Fp3pPoMwHG0AAEbwjeDIBloAVAAVYVIVkAAAAGTFkzKwAIoAAypYsqUn0GQDMKAAAAoDLQAAABG9kxjeyZkAEUACFjeyYxvZM1NACAAAypYsqUlYUBloAAdh5L9y0frHvDr3YeS/ctH6x7w30/9Q5Oj/uH0+NzJjG5k+47GAA+BQr1Uf094Xj0nb4X+3vC8ek7fD4XPaX7dc4jUfTyg9X/b3hePSdvg/t7wvHpO3wnPaX7OI1H08oPV/wBveF49J2+D+3vC8ek7fBz2l+ziNR9PKM43PUf294Xj0nb4ZbA8Nx6Tt8Mz+e0v2sfiNR9PLD1OwPDcek7fC7A8Nx6Tt8Jz2l+14jUfTyo9TsDw3HpO3wbA8Nx6Tt8HPaX7OI1H08stO96jYHhuPSdvhY8h8NH/AL0nb4J/O6X7OI1H08yPT7C8Nx19vg2F4bjr7fDPN6b7XidR9PMD0+wvDcdfb4NheG46+3wc5pvs4nUfTzBG96fYXhuOvt8GwvDcdfb4TnNN9nEaj6eaHpth+G46+3wbD8Nx19vhOb032vE6j6eZHpth+G46+3wbD8Nx19vg5zTfZxGo+nmR6bYfhuOvt8Gw/Dcdfb4Oc032vEaj6eahXpNh+G46+3wbE8Px19vhOb032cT1/p5sek2J4fjr7fBsTw/HX2+Dm9N9nE9f6ebHpNieH46+3wbE8Px19vg5vTfZxPX+nm2T0WxPD8dfb4XYvh+Ovt8JP5rTfZxXXecHo9i+H46+3wbF8Px19vhOa0/2cV13nB6PYvh+Ovt8GxfD8dfb4Oa032cV13nGVL0OxfD8dfb4NjeH46+3wnM6efK8X13QD0GxtBxV9jY2g4q+ycxp/s4vrPPj0GxtBxV9jY2g46+3wczp/s4vrPPj0GxtBxV9jY2g46+3wczp/s4vrOgHf7H0HHX2Nj6Djr7JzGn+14zrOgHf7H0HHX2Nj6Djr7HMaf7OM6zoB3+x9Bx19jY+g46+xzGn+zjOs6CN7J3uyNBH/qvsuydBxV9k5fT/AGcZ1nQjvdk6Dir7LsnQcVfZOW6H2vGdZ0I73ZOg4q+xsnQcVfZeW6H2cb1nRxvZO62ToI/9V9l2VoeKrszP5XoT6XON6zpB3eytDxVdjZWh4quycp0Tjus6Qd3srQ8VXY2VoeKrscp0Tjus6RlS7nZWh4quxHleh4quxP5TorH47rOnHc7M0PFV2NmaHiq7M8n0WuP6zph3OzNDxVdjZmh4quy8n0Tj+s6Z2Hkv3LR+se8NnZmh4quzc8r8v0Wj8dRVFVVtsZZw5Oj+S6NXUimP/WunoOrTVEy91G5kn4V2uH1gBR4RUV5XLmAEAABUVJWABLNfoALH6AFP0AB+gAP0AAAAAAAAAAAAAAABcAC4AFwAABUAAAAAAAAAASQkWEkAEAAJRZRQAEAAAEAAAABteX/V0ese8NVteX/V0ese8P06T36P6kw9h+FI3D0qPRxgCjwioryuXMAIAACoqNQACgAAAAAAAAAAAAAAAAAAAAAAAAAAAAAgAAAoAAAAAAAAkhIsJIAIAASiygAAgAAAAAAAA2vL/q6PWPeGq2vL/q6PWPeH6dJ79H9JewjcqRuV6VHo4gBR4RXDi2fgxuTy7HU3kpcw4sbkY3Ix1GSlyjixuRjcjHUZKXKrhxuRj8kxVSsdWmPVzDhx+Rj8jFWZqPLmHDj8jH5GKtc1HlzDhx+Rj8jFWZqPLmHDj8jH5GKszUeXMOHH5GPyMVaZqPLmHDj8jH5GKvwZqHMODH5GPykw1+DNR5c44MflJj8jDX4M1Hlzjgx+Rj8jDX4M1Hlzjgx+Rj8pMNfgzUeXOODH5GPyMNfgzUeXOODH5GPyMNfgzUeXOODH5SmscpXDWZqPLYGvrHKTWOUmGszUeWwNfWOUmscpMNZmo8tga+scpNY5SYa0zUeWwNfWOUmscpMNZmo8tga+scpNY5SYazNR5bA19Y5Saxykw1majy2Br6xyk1jlJhrM1HlsDX1jlJrHKTDWZqPLYGvrHKTWOUrhrM1DnkcGscpNY5LHRrTNR5c44NY5Gsclw1+DNR5c44NY5GscjDX4TNQ55RwT4jlKaxykwVmahsDX1jlJrHKTBWZqGwNfWOUmscpMFZmobA19Y5SaxykwVpmobA19Y5SazykwV+DPQ2Br6xyk1jkYK/BnobDa8v8Aq6PWPeHW6xybnlunveNoiz8x7w/RpejVHWpmfJlpn0e2jcqRuV6LHoACj53KLKPOIcCgKAACKggAWQALAAWAAsABYCQlRAGgARAAAAAAABRJ3Is7kEmQBS4AFwAS4AFwALgAXAAuABcAFAFZAFAAEncizuQQAUAAACAAVAABu+V/XUese8NJueV/XUese8ObT+7T/WqfV72NypG5XeH7YAAfO5RZR5xDgUBQAARUEkAVAAAAAAAABJVJAAaABEAAAAAAAFEncjKdzFUkAEAAAAAAAAAAAAAAAFIAFQAAABJ3IsoIAKAAAAgAoAKDd8r+uo9Y94aTc8r+uo9Y94c2n92n+tU+r3v4VPwru79oAD53KLKPOIcEqAoAAIqCSAKgAAAAAAAASJIADSAAAAAAAAAAE7mKzuRUkAEAFABAAAAUAAAAAAAAABJAFQAFSdyLKLCAAAAACwgAoAANzyv66j1j3hptzyv66j1j3hzaf3af6tM/t738Kxhk7tD9wAo+YWyWyg6RaHyrytslsopaC8lslsgWhLyWylsqxLQXlbZLZBdsFy2S2UF2wXW2S2UJNsH7W9JbLFVtCXlb0lssVLQl5W2S9KIloW8srZS2RC0F1tlbZRFtBdlbKWyIWguytlLZELQXZWyWyxUtBctlbZQLQXLZLZQXbCTJbOZbIFoC2S2QW0BbJbIJaAtktkC0BbJbILaAtktkC0CWyWyBaEuWyWyBaC5bJbIFoLlslsgWguWyWyBaC5bJbIFoLlslspIsRCLbJbKC2gW2S2UC0C2yWygWgutslsoBdbZLZQC62y3vKJnaGj9Y94aDe8o+4Uese8OToxfqQ3RP/UPokMkjcrtcPrgCj5eA6S+SoAAADFlLEFAagBFBCQAAGQQBUVAUAAAAAAAARQAFEAUABAAAAAAAAACVEAAAEAAAAAAAAJRZRQAEAAAAAAAAG/5R9w0frHvDQb/lH3DR+se8OXoe5DdH+ofRI3Kkbldqh9gAUfLwHSXybCopcAC4IrEgUBRFRVuISEgADIAACAoAAAAAAAAAACiAEIAKAAAAAAAAAAIAoAAAAAAAAACEosooACAAAAoAAAA3/KPuGj9Y94aDe8o+4aP1j3hy9D3Iao/1D6LG5UjcrtUPsACj5ZicjE5OMdQ2Q+HvlyYnIxOTjDZBvlyYnIxOTjDZBulyYnIxOTjDZBulyYnIxOTjDZBulyYkZGJycYbIN0uS/GSX+TANsG6Wd8vsBdsG6Wd+C/DANsG6Wd8vwwDbBulnfL8MA2wbpZ3y/DANsG6Wd8vwwDbBvlyX4LzjhU2wu6Wd6C9DANsG6Wd4vQwDbBulneS8xDbBeWV4vMQ2wl5ZXi8xDbBeWV4vMQ2wXlleLzENsF5ZXi8xDbBeWV4vMQtBdlaWoFi62lqBYutpagWLraWoFi62lqBYutpagWWJW0RSVAEQAAAgUFAQUBG/5R9w0frHvDRb3lH3DR+se8OXoe5DVH+ofRI3Kkbldqh9gAUfKAHU3wQAAAAAAAAAAAAAAAAAAAAAAAhCFRUaABQAAAAAAAAAAAAAABBQAAAAAAAAAAAgVFSVAEAAAgIFUBAAAb3lH3DR+se8NFveUfcNH6x7w5eh7kNUf6h9EjcqRuV2uH2ABR8oAdTfBAAAAAAAAAAAAAAAAAAAAAAACAVFRoAAAAAAAAAQAAAFABAABQAAAsABYACwAFgAUVFSQAQAACAgVQEAABveUfcNH6x7w0W95R9w0frHvDl6HuQ1R/qH0SNypG5Xa4fYAFHygc9ynIuU5OnZYfFxy4Bz3Kci5TkZYMcuAc9ynIuU5GWDHLgHPcjJlcjJMsLilrDZuUlynJM0GKWsNm5TkXKcjNBilrDZuU5FynIzQYpaw2rlORcpM0LhlqjauUlykzQYZao2rlJcpyM8GGWqNvDpyS5TkmeDDLVG3h05JcpyM8GGWqNvDpyS5TkvcQYZaqtq5TkXKckzwuKWqNq5TkXKcjNBilqjauU5FynIzQYpao2rlORcpyJ68QYpao2rlORcpyTuIMMtUbVynIuU5HcQuGWqNq5TksUU5HcQYZag3MOnIw6cjuIMMtMbeHTkuHTkncUmGWmNzDpyTDpyO4pMMtUbWHTkuHTkdxSsdGWoNrDpyXDpyO4pMMtQbWHTkuHTkdxBilqDbw6cjDpyTuIWOjMtQbeHTkYdOR3MGCWoNvDpyMOnI7iDBLUVt4dORh05J3EGCWoNvDpyMOnI7iDDLUG3h05GHTkdxBhlqLDaw6ciKKcjuIMMtUbdynIuU5J3ELhlqDbuU5FynI7iDDLUb3lH3DR+se8MLlOTc8ropjxtH+PzHvDm0/XierT/AFaelMVQ93G5UjcruUPpACj5iA6O+WACgADJiySSABlQAAAFAZaAAABVAAAC4AAAAAhcAC4AStwBC4AAsIsFxQEuoAfsuAH7LgB+y4AfsAC8lxUVmZagALyABeQALyABeVAC8gQEJeRQC8gAXkG55Z9bR6x7w0255Z9bR6x7w5tP7tP9Wn1e5jcqRuV3yH6QBR8xAdHfLAAAAGTFkkrAAyoAAACgMtACgAgoAoAAAAAAAAAAAkgAigACwiwgoAoAAAAAAAAAIKisy3AAgAAAAAAAAEBAqgIAADc8s+to9Y94abc8s+to9Y94c+m92n+rT6vcxuVI3K75D9IAo+YjkwasjBqydEyU+XzsdTjHJg1ZGDVkZKfK46nGOTBqyMGrIyU+THU42TLBqyZYNWTM9SnyR06nGOTBqyMGrJMlK7KnGOTBqyMGrIyUmypxjkwasjBqyMlJjqYDkwasjBryTJSuypxjkwasjBqyN9Pk2VOMcmDVkYNWRvp8rsqYDkwasjBqyZyUrjqcY5MGrIwasjJT5MdTjHJg1ZGDVkuSnyY6nGOTBqyMGrJMlPkx1OMcmDVkYNWS5KfJjqcY5MGrIwaskyU+THU4xyYNWRgV5JPVp8mOpxjkwK8jAryTJT5XHU4xyYNeRgV5GSnyY6nGsM8GvJY0NWRkp8mOpgOTBqyMGrIyU+THU4xyYNWRg1ZGSnyuOpxjkwasjBqyMlJjqcY5MGrIwasjJSY6nGOTBqyMGrIyU+THU4xyYNWRg1ZGSnyY6nGrONDVkuDVkzPUp8rHTqcY5MGrIwaskyUrjqcY5MGrIwasjJSY6nGOTBqyMCrIyU+THV4cY5cCrJMCrIy0+THX4cY5cCrIwKsjLT5MdfhxEOXAqyI0FeSZaPKx06/DjHLq9eRq9eRlo8rir8OIcur15Gr15GWjyYq/Dibnln1tHrHvDg1evJt+W6GqnxlEzH5j3hz6bqUz1qf3/wCrHTqifR7WNypCu/x6OUAUfPVRXmksACAAAqKSoAgAAH5AVQGQAUAAUBloAAAAhUhQAEUAAVFQABQAAAIAEaAAuABcAC4AFwAFhUhUUASwAAKio1AAKAAMo3MWUbkmFhQGWgABs+A+qp9Y94azZ8B9VT6x7w/To/fo/qVej1kfhSB6fHo/IAKPnqorzOWAAAABUUUAAAQAPyKoDIAKAAKAy0AAAAQqQoACKAAKigAIoAAAAAiyAAAAAAAAAKQsKkKy0AAAEgqKy1AAKAAMo3MWUbkkhQGWwABs+A+qp9Y94azZ8B9VT6x7w/TpPfo/qVej1kKkK9Ph+QAUfPVRXmbAAAAAqKKAIAAB+QFUBAAAABQGWgAAACFRUAAUAAVFAAQAAABQBFAFLACFgALAAWABVhUhUUAAAQFRUWAAaAAGUbmLKNySsKAy0AANnwH1VPrHvDWbPgPqqfWPeH6dJ79H9Sr0eshU/CvT6fR+QAUeDuRkXIZjyvdLn2wxuQXIZBulNsMbkFyGQbpNsMbkFyGQbpNsMbkFyGQXldsMbkFyGQXk2wxuQXIZBeTbDG5BchkF5NsMbkFyGQXk2wxuQXYZBeTbDC7C3YULzKWhjdhbsKCWhLsF2FAsxsLFAslhYoolhYoFksFQhABQAAAEAAAAEVFEUBLoKBcAC6f5W2UkC62yWygWLytslsoFoLyWyXpJRYiEmZW9JelBdsJulb0l6UDbBulb0l+rNENsG6WV+rMv1ZsRdsG+WV+rMv1ZsQ2wb6mV+rNt+XV1T4uj/P5j3hpNvy36yj1j3h+jS0xmp/pvqe0/Ckbh6LHoACjwqg8pfoAAAFAAAAAAAAAAAAAAEAWGQAAAEAAAEAAEVFSQAAAABUAAAAEVPwqAAAAAAJISKgAAACCyiwkgCoAAIqAAKgAoNvy36yj1j3hqNvy36yj1j3hz6X3qf6PaxuCNw9Ej0aAFHhhFeUv0ABcAAAAAAAAAAAAAAAAQBYZAFuABcQAABQAARUEkAEsABYAWEkAAAARU/AgIqgAAACSEipIAAACSEiwkgCoAAIqAAKgAoNvy36yj1j3hqNvy76yj1j3hz6X3qf6r2sbhFeiR6KAKPA4k8jEnk41eY7YTdLPEnkYk8mAbYN0s8SeRiTyYBtg3SzxJ5F+WCm2F3SyvyX5Yhtg3SyvyX5Yhtg3SyvyX5Yhtg3SyvyX5Yhtg3SyvyX5Yhtg3SyvyX5YibYN0s7xeliJaDdLK8XpYhtg3SyvF6WIbYXdK3pW1jCloLytpagloW8raWoFoLytoiheQALgAXCAjeKoCAAAioIWFig0lhYoXEsLFC4lhdWFLrZjdLrIS8paGN0usgvJaGN1bkKpeVtDG5BchkF5NsMbkFyGQXk2wxuQXIZEEzJthjhxzMOObMTdK7YYYcczDhmG6TbDDDjm2vL6IjxdPrHvDgbXl/wBXT6x7w/TpKpzUf1JpiIeuhU/CvSo9HEAKPnwDzNgAAAAVFFAAAAAAAAAAAEVQGQAUABSFSFZAAUAAVFAARQAAjeEbwUBFAAEVBFAGgBAACBUUUAQAAFRRQAAAAgIJWFARQABteX/V0+se8NVteX/V0+se8P0aX3qf7CVej134VPwr0yPRwACj58A8zszaQAsWkALFpFRSx+wAP2AC2kAC0gAlpAA/YALaVAZP2AB+wABUhUssACKAAKiigCAAARvCN4KAKAAIqIigDQAAAAqKi3AAAAFRUlQAuABcCAhJlYUBFAAG15f9XT6x7w1W15f9XT6x7w/Rpfep/sJV6PXKfgemx6OAAUeAw6+GTDr4Zdrdp4Y6Ldp4Y6PLMsv19pDqcOvhkw6+GXbXaeGOhdp4Y6GWTtIdTh18M9DDr4Z6O2uU8MdC5Twx0MsnaQ6nDr4ZXDr4Zdpcp4Y6JdpygnqydpDrMOvhkw6+GXZ3acoLtOUJlk7WHWYdfDJh18Muzu05QXacoXLJ2sOsw6+GTDr4ZdndpygmmnKEyydrDrMOvhkw6+GXZ3acoLlOUGWTtYdZh18MmHXwy7O7TlBdpygyydrDrMOvhkw6+GXZ3acoS7TlBlk7WHXXKuGS5Xwy7G7TlBdpyhMsnaw665VwyXK+GXY3acoLtOUGWTtYddcq4ZLlXDLsbtOUF2nKDLJ20OuuVcMlyrhl2F2nKEu05QZDt2hcq4ZLlXDLsLtOUF2nKDIdu6+5VwyXKuGXYXacoLtOUGQ7d19yrhlblWUt67GUF2MoSeoYIaNyrKS7VlLeuxlBdjKDIYIaNyrKS7VlLeuxlBdjKDIYIaNyrhku1W7pb12MoYzTGUJkMMNS7OUl2cpbVkZFkZG8ww1bs5SXZyltWRkWRkbzFDVuzlJdnKW1ZGRZGRvMLVu1ZSXaspbl2Mi7GRvMUNO7VlJdqyluXYyLsZG9cUNO7VlJdqyluXYyLsZG8xQ1LtWUl2rKW3djIsjJN5ihqXaspLtWUtuyMi7GRvMUNS7VlJdqylt2RkWRkbzFDUu1ZSt2rKW1ZGS3YyNyx0oal2rKS7VlLbuxkXYyNxihqXaspLtWUtu7GRZGRuMUNS7VlK3ZyltWRkXYyNy4oat2cpLs5S2rIyLsZG4xQ1bs5SXZyltWRkWRkbjHDVuzlLa8BTOt0/4nfHvBdjJseCiNZp/x+Y936NJV/wDej+pV0/09N+BIV6fHo/EAKPLgPJX2AAAABFQQAABFFSVRJABEAAAAQBQAAABABAAABBABAAAABjO9kxneJKACACgADIBFAAAAAAAEuABcFRS4AFwALgAXAAuABcHP4P6mn/Xu4HP4P6mn1j3fp0fv0f1mr0elhUhXqUPnACjy4DyV9gAAAARUAAEAAEVAABABAABAAABAAEAAAAAElAAAEkACAYzvZMZVJQAQAAABkAAAKAAAJIAAAAKigACgAAAAAAADn8H9TT/r3cDn8H9TT/r3fp0fv0f1mr0elhUhXqUPmgCjy47PZfp1k2X6dZee8HrPi+l3FDrB2ey+cdZNl846ycHrPidxQ6wdpsvnHWTZfOOsnB6z4ncUOrR2my+cdZNlenWTg9Z8Uz0OrHabK9OsmyvTrJwes+JnodWO02V6dZNlenWTg9Z8TPQ6tHa7K9OsmyvTrJwes+JnodUO12VzjrJsrnHWU4PWfFM9Dqh2uyucdZNlc46ycHrPiZ6HVDtdlc46ybJ/XrJwes+JnodSO22T+vWTZP69ZOD1nxM9DqR22yf16ybJ/XrJwes+KZ6HUjttk/r1k2T+vWTg9Z8TPQ6gdvsn9esmyf16ycHrPiZ6HUDt9k/r1k2T+vWTg9Z8TPQ6gdvsn9esmyf16ycHrPiZ6HTjt9kenWU2Rzp6ycHrPimah1I7bZHOnrJsjnT1lOD1nxM1DqR22yOdPWTZHOnrJwes+JmodSxne7jZHOnrKT5Pb+aesrwes+JPWodOO42Pzp6ybH509ZOD1nxTNQ6cdxsfnT1k2Pzp6ycHrPiZqHTjuNj86esmx+dPWTg9Z8TNQ6kdvsjnT1k2RzjrJwes+JmodQO32RzjrJsjnHWTg9Z8TNQ6gdvsjnHWTZHOOsnB6z4mah1A7fZHOOsmyOcdZTgtZ8TNQ6gdvsjnHWTZHOOsnBaz4mah1A7fZHOOsmyOcdZOC1nxXNQ6hXbbI509ZNkc6esnBaz4mah1I7bZHOnrJsjnT1k4LWfEzUOpHbbI509ZNkc6esnBaz4mah1I7bZHOnrJsjnT1k4LWfEzUOpHbbI509ZNkc6esnBaz4mah1I7bZHOnrJsjnT1k4LWfEzUOpc/g/qaf9e7f2Rzp6y5ND5ZhaSKrY/xzlz6b8Lq6OrTVVT+olKutTMfp2UKliu+Q/EAKIKAgoCCgIKAgoCCgIKAlpaoCWlqgAAAAAAAAAAAAAAAAAAAAAAAAAAAAAAAAAAAAAAAAAAAAAAAAAAAACKJYAFAAAAAAAAAAAAAAAAAAAAAAAAAAAAAAAAAAAAAAAAAAAAAAAAAAAAAAAAAAAAAAAAAAAAAAAAAAAAAAH//2Q==;" vertex="1" parent="1">
          <mxGeometry x="248.12" y="647" width="77" height="77" as="geometry" />
        </mxCell>
        <mxCell id="IUG1O-Y_2TdF6H-YGGcq-48" value="" style="rounded=1;whiteSpace=wrap;html=1;fontSize=18;fontStyle=1;strokeWidth=4;fillColor=#f8cecc;strokeColor=#b85450;fontFamily=Times New Roman;" vertex="1" parent="1">
          <mxGeometry x="658" y="230" width="17" height="50" as="geometry" />
        </mxCell>
        <mxCell id="IUG1O-Y_2TdF6H-YGGcq-49" value="" style="endArrow=none;html=1;rounded=0;strokeWidth=4;fontFamily=Times New Roman;entryX=0.521;entryY=1.041;entryDx=0;entryDy=0;entryPerimeter=0;" edge="1" parent="1" target="IUG1O-Y_2TdF6H-YGGcq-48">
          <mxGeometry width="50" height="50" relative="1" as="geometry">
            <mxPoint x="667" y="446" as="sourcePoint" />
            <mxPoint x="667" y="283" as="targetPoint" />
          </mxGeometry>
        </mxCell>
        <mxCell id="IUG1O-Y_2TdF6H-YGGcq-50" value="" style="endArrow=classic;html=1;rounded=0;strokeWidth=4;fontFamily=Times New Roman;" edge="1" parent="1" source="IUG1O-Y_2TdF6H-YGGcq-51">
          <mxGeometry width="50" height="50" relative="1" as="geometry">
            <mxPoint x="871.13" y="330" as="sourcePoint" />
            <mxPoint x="881" y="181" as="targetPoint" />
          </mxGeometry>
        </mxCell>
        <mxCell id="IUG1O-Y_2TdF6H-YGGcq-51" value="" style="rounded=1;whiteSpace=wrap;html=1;fontSize=18;fontStyle=1;strokeWidth=4;fillColor=#f8cecc;strokeColor=#b85450;fontFamily=Times New Roman;" vertex="1" parent="1">
          <mxGeometry x="872" y="230" width="17" height="50" as="geometry" />
        </mxCell>
        <mxCell id="IUG1O-Y_2TdF6H-YGGcq-52" value="" style="endArrow=none;html=1;rounded=0;exitX=0.834;exitY=0.005;exitDx=0;exitDy=0;strokeWidth=4;fontFamily=Times New Roman;entryX=0.521;entryY=1.041;entryDx=0;entryDy=0;entryPerimeter=0;exitPerimeter=0;" edge="1" parent="1" source="IUG1O-Y_2TdF6H-YGGcq-53">
          <mxGeometry width="50" height="50" relative="1" as="geometry">
            <mxPoint x="880.3500000000001" y="328" as="sourcePoint" />
            <mxPoint x="880.6600000000001" y="282" as="targetPoint" />
          </mxGeometry>
        </mxCell>
        <mxCell id="IUG1O-Y_2TdF6H-YGGcq-53" value="Convolutional Neural Network" style="rounded=1;whiteSpace=wrap;html=1;fontSize=23;fontStyle=1;strokeWidth=4;fillColor=#d5e8d4;strokeColor=#82b366;fontFamily=Times New Roman;align=center;" vertex="1" parent="1">
          <mxGeometry x="448" y="326" width="517.5" height="177" as="geometry" />
        </mxCell>
        <mxCell id="IUG1O-Y_2TdF6H-YGGcq-54" value="" style="shape=image;verticalLabelPosition=bottom;labelBackgroundColor=default;verticalAlign=top;aspect=fixed;imageAspect=0;image=data:image/jpeg,/9j/4AAQSkZJRgABAQEAYABgAAD//gA+Q1JFQVRPUjogZ2QtanBlZyB2MS4wICh1c2luZyBJSkcgSlBFRyB2NjIpLCBkZWZhdWx0IHF1YWxpdHkK/9sAQwAIBgYHBgUIBwcHCQkICgwUDQwLCwwZEhMPFB0aHx4dGhwcICQuJyAiLCMcHCg3KSwwMTQ0NB8nOT04MjwuMzQy/9sAQwEJCQkMCwwYDQ0YMiEcITIyMjIyMjIyMjIyMjIyMjIyMjIyMjIyMjIyMjIyMjIyMjIyMjIyMjIyMjIyMjIyMjIy/8AAEQgCWAJYAwEiAAIRAQMRAf/EABwAAQABBQEBAAAAAAAAAAAAAAABAgMEBQYHCP/EAEAQAQABAQIIDAYBBAEEAwEAAAABAhFRAwQGEhMxUpEFBxQVF1NUYXSTsdI1NjdBc5IyIXKh8HEWIkNVM0LxY//EABoBAQEBAQEBAQAAAAAAAAAAAAABAgUDBAb/xAAmEQEAAQMDBQEAAwEBAAAAAAAAAQIREwMSUTEyUmGRFCEiQTME/9oADAMBAAIRAxEAPwDV5N8WfDGVHA9PCeJY3iODwNVdVEU4auuKrY16qZhuOg/KLt/BXmYT2O94nvkDA+Iwvq74HgnQflH2/grzMJ7DoPyi7fwV5mE9j3sB4J0H5Rdv4K8zCew6D8ou38F+ZhPY97AeCdB+UXb+CvMwnsOg/KLt/BfmYT2PewHgnQflF2/gvzMJ7DoPyi7fwV5mE9j3sB4J0H5Rdv4K8zCew6D8ou38FeZhPY97AeCdB+UXb+CvMwnsOg/KLt/BXmYT2PewHgnQflF2/grzMJ7DoPyi7fwV5mE9j3sB4J0H5Rdv4K8zCew6D8ou38FeZhPY97AeCdB+UXb+CvMwnsOg/KLt/BXmYT2PewHgnQflH2/grzMJ7DoPyi7fwV5mE9j3tAPBeg/KPt/BXmYT2HQflF2/grzMJ7HvQDwXoPyi7fwV5mE9h0H5Rdv4K8zCex70kHgnQflH2/grzMJ7DoPyi7fwV5mE9j3tAPBeg/KLt/BXmYT2HQflF2/grzMJ7HvQDwXoPyi7fwV5mE9h0H5R9v4L8zCex72A8E6D8ou38FeZhPYdB+UXb+CvMwnse9gPBOg/KLt/BXmYT2HQflF2/grzMJ7HvQDwXoPyj7fwV5mE9h0H5R9v4K8zCex70A8F6D8ou38FeZhPYdB+UXb+CvMwnse9gPBOg/KLt/BfmYT2HQflF2/grzMJ7HvYDwToPyi7fwV5mE9h0H5Rdv4L8zCex72A8E6D8ou38FeZhPYdB+UXb+CvMwnse9gPBOg/KLt/BXmYT2HQflF2/grzMJ7HvYDwToPyi7fwV5mE9h0H5Rdv4L8zCex72A8E6D8ov/YcFeZhPYdB+UXb+CvMwnse9gPBOg/KLt/BXmYT2HQflF2/grzMJ7HvYDwToPyi7fwV5mE9h0H5R9v4K8zCex72A8E6D8ou38FeZhPYdB+UXb+CvMwnse9gPBOg/KLt/BXmYT2HQflF2/grzMJ7HvYDwToPyi7fwV5mE9h0H5Rdv4K8zCex72A8E6D8ou38FeZhPYdB+UXb+CvMwnse9gPBOg/KLt/BXmYT2HQflF/7DgrzMJ7HvYDwToPyj7fwV5mE9h0H5Rdv4L8zCex72A8E6D8ou38FeZhPYdB+UXb+CvMwnse9gPBOg/KLt/BXmYT2HQflF2/grzMJ7HvYDwToPyi/9hwV5mE9h0H5Rdv4K8zCex72A8E6D8ou38FeZhPYPewHA8T/AMgYHxGF9XfOB4nvkDA+Iwvq74AAALYRbF4JEWxeWxeF0iLYvLYvC6RFsXlsXhdIi2Ly2LwukRbF5bF4XSIti+C2LwukRbF5bF4XSgti8ti8LgWxeWxeFwLYvLYvC6UFsXlsXhcC2Ly2LwulBbF5bF4XSgti8ti8LgWxeWxeFwLYvLYvC6RFsXlsXhdIi2Ly2LwukRbF5bF4XSIti8ti8LpEWxeWxeF0iLYvLYvC6RFsXlsXhdIi2Ly2LwukRbF5bF4XSIti8ti8LpEWxeWxeF0iLYvLYvC6RFsXlsXhdIi2Ly2LwukRbF5bF4XSIti8ti8LpEWxeWxeF0iLYvLYvC6RFsXgXcFxPfIGB8RhfV3zgeJ75AwPiML6u+AJ1BOoHiWUvCeM4LhiqmmqmzMp+zUc743tU/qy8qPjVf8AZS0z7qYiz8vq6lW+f5Z3O+N7VP6nO+N7VP6sEW0PLJVyzud8b2qf1Od8b2qf1YIWgyVcthRwvjefH/dT+q9zrjW1TuavB/zhfeVcfy869Wq/Vm8641tU7jnXGtqncwhljLXyzedca2qdyedca2qdzBAy18s3nXGtqncor4WxrO/lT+rFW6/5S1TH8rTq1X6sznbG9qn9TnbG9qn9WCN2hvLVyzudsb2qf1Odsb2qf1YIWgyVcs7nbG9qn9VVPC2NbVO5r1VKTEJOrVy2HO2NbVP6nO2NbVO5gjNmctfLO52xrap3HO2NbVO5ghYyV8s7nbGtqncieFsasn/up/VhInVJaFy1csmeF8bt/lT+qOd8b2qf1YM6x62h65KuWdzvje1T+pzvje1T+rBC0GSrlnc743tU/qc743tU/qwQtBkq5Z3O+N7VP6o53xvap/Vgi2gyVcs7nfG9qn9TnfG9qn9WCFoMlXLO53xvap/U53xvap/VghaDJVyzud8b2qf1XqeFsazY/wC6n9WrXqf4x/wxVEM16lXLP52xrap3J52xrap3MEYs88lfLO52xrap3HO2NbVP6sFBYyV8s/nbGtqncpq4Wxvap/VhqaliIXLVyzedsb2qdxztje1TuYCWrQ1lq5Z3O2N7VO452xvap3MALQZauWfztje1T+pztje1T+rAC0GWrlmTwvje1T+qOd8b2qf1YMoatDcalXLP53xvap/U53xvap/VghaDJVyzud8b2qdxzvje1T+rBQWgyVcthHC+N7VP6p53xvap/VgUpS0MzqVcs7nfG9qn9TnfG9qn9WCJaDJVyzud8b2qf1Od8b2qf1YIWgyVcs6eF8b2qf1W+d8b2qf1YsrbURDVOpVyzud8b2qf1Od8b2qf1YItoayVcs7nfG9qn9TnfG9qn9WCFoMlXLO53xvap/UYIkxBkq5ercT30/wPiML6u+cDxPfT/A+Iwvq758D9WE6gnUDwfKj41V/ZS0rc5U/Gq/7KWmffT0h+T1v+kgCvMABVg/5wvrGD/nC+8q+ryr6gDDAAAt1/yXFuv+TVPVqnqpAbaABRVSpVUkpKoBlkAAROqUonVILMhOser2AAEJAQAoAAAAL1P8YWV6n+MMVsVqgGGAABTVqVKaiBSlCWmhCUAAAokJQ29ISCASIAVQlFKWWZABAACVtclbahukAVoAAAJR6txPfT/A+Iwvq75wPE99P8D4jC+rvnOfrwnUE6geDZUfGqv7KWmbnKj41V/ZS0z76ekPyet/0kAV5gAKsH/OF9Ywf84X3lX1eVfUAYYAAFuv8AlK4t1/yap6tU9VIDbQAAqpUqqSSVQDLIAAidUpROqQWZ1hI9XsAAAAgBQAAAAXqf4wsr1P8AGGK2K1QDDAhICEVKlNWogUgNNAlAAAKJ1oTI29IEJAQJATSlEJZZkAEAAJW1yVtqG6QBWgAAAlHq3E99P8D4jC+rvnA8T30/wPiML6u+c5+vCdQTqB4LlTVZw3X/AGUtLnNxlV8br/spaV0KY/iH5bVpjfKrOM5SLZ57YVZxnKQsbYVxhIpm1Xymlj16ls2RPVqNKmr+ZZnKaTlNLDDFSYKGZymk5TSwwxUmChmcppUVYeJljCxp0wuGmGRpoNNDHF2QYqWRpoNNDHDZBipZGmhNOHiGMmDZBOlSyuUQcohjDOOGcNLJ5RScohjBjgw0snlEE4eLGMGODDSu6SDSQtDW2GtkLukg0kLQbYNkLukg0kLQbYNkLk4WIRpoWqlKxTDcaVMwv6aDTQsC7YXFSv6aDTQsBtgxUr2mhkUYWM2GCyKP4x/wxXTDy1NOmIX9JBpYWhjbDx2Qu6WDSwtBtg2Qu6WEVYSLFtTVqIphYohc0kGkhaG9sN44XdJBpIWg2wY4XdJBpIWg2wY4TOFi1Gmhaq1oa2w9Y06bL2mg00LIbYMVK9poNNCyG2FxUr8YaFWmhjwlNkMTpUr+mhGmhZDZBipXtNCdNCwGyDFSvThoW9NCiVCxTDdOlSvaaDTQsi7YaxUr2mg00LIbYMVK9poFkNsEaNMvYeJ76f4HxGF9XfOB4nvp/gfEYX1d85T9KE6gnUDwPKr43V/ZS0rdZVfG6v7KWldCnpD8vq98gDTzAAU16ltcr1LbUPWjoAK0ACgAgAAAAmEJgSUgCAAISAACAAAACmpSqqUtQ9KegAqgADIo/jH/AAx2RR/GP+GK3lq9FQDDwAAFNSpTVqCOqAGnoAKAALVWtCataGntHQAAABMJRCUZkAAABE6lCudShYbpAFaAAAAew8T30/wPiML6u+cDxPfT/A+Iwvq75yH6EJ1BOoHgeVXxur+ylpW6yq+N1/2UtK6FPSH5fV75AGnmAApr1La5XqW2oetHQAVsAAAEAAAAEwhMCSkAQEJAAAAQAAAAU1KVVSlqHpT0AFUQkBDJo/jH/DGZNH8Y/wCGK3lq9FQDDwAAFNWpUpq1BHVADT0AFAAFqrWhNWtDT2joAAgEgmEohIzIAgAAiVCuVCw3SAK0AAAA9h4nvp/gfEYX1d84Hie+n+B8RhfV3zkP0ITqAHgeVXxur+ylpLYbLK2uqOHa7J/8dLR6Sq906af6w/O6ujM1yyrYLYYukqvNJVe1sYwzyy7YvRbDF0lV5pKrzYYZ5ZFepbti9ZrwlVmtbz6r2opelGjNmVb3lvexc+q8z6r12t4ZZVsXlsXsXPqvM+q82mGWVb3ptYmfVeqiuqzWm1J0ZhkjHz6rzPqvNqYpZAx8+q8z6rzaYpZBDHz6r1VNVV5tSdKWRahazpM6b0szjldFnOm9OdN5YxyuptWc6SapsNpjleGNn1XmfVeu1cMskY2fVeZ9V5tMMskYufVeZ9V5tMMsiqVFsLFddV6jPqvWKXrTozZlWwWwxc+q8z6r12tYZ5ZVsFsMXPqvM+q82mGWVbDIomM2P6/Zrc+q9VpsJH/2/wAM1UTLFf8A5qqv9bK2L4LYvhrdNhNr/BpsJtf4ZxS8vx1ctlbF8FsXw1umwm1/g02E2v8ABik/HVy2VsXwiqYva7T4Ta/wqpwtcz/Wr/C45PyVR/N2bbBbDFz6rzPqvNqYZZVsFsMXPqvM+q82mGWVbBbDFz6rzPqvNphldqn+qLYY1WEqt1o0lV7W17xoTbqyrYLYYukqvNJVeu1cE8sq2C2GLpKrzSVX/wCDaYJ5ZcTCbYvhgVYWuPv/AIRpa9r/AAbJPy1T/rYWwWxe1+lr2v8ABpa9r/Bsk/JVy2FsXwWxe1+lr2v8Glr2v8GyT8tXLYTMLbDjC17X+FzPqvNq/nmn/WQljZ9V5n1Xm0wyyBj59V5n1Xm0wyyBj59V4m0xS9q4nvp/gfEYX1d84Hie+n+B8RhfV3zju2H2D7A+ecrfjtf46Wib3K347X+OlonWo7YcWvukAaZAAU16ltcr1LbUPSjoAK2AAKqVKqNSM1dEgDAAAqpUqqUSeisBGEJQkBE6pSidQKAGnoAAAAor1KVValYetHRAkVpAlAAkBCQBAkBCqj+SE0fySUq6LoDL5wAAAFqrWpVVa0NPojogSKqBIC3UhNWtCvSOgAKAAQvLMLySxWADAAAAiva+J75AwPiML6u+cDxPfIGB8RhfV3riOmk+yE/YHzxlb8dr/HS0be5W/Ha/x0tE61HbDi190gDTIAIpr1La5XqW2oetHQAVsAAVUqVUakZq6JAGAABVSpVUok9FYCMAACJ1JROoFADT0AAAAUVqVValYetHQAVoAAAAAAAAVUfyUqqNaJV0XAGXzgAAALVWtCataGn0R0AFUABRVrUqqtalYekdAAaAAIXlmF5JedYAMAAACK9r4nvkDA+Iwvq71wXE98gYHxGF9XeuI6YAD56yt+O1/jpaJt8r8JMcP1/jpaHSVOxRT/WHJr0pmqV8WNJUaSpraziqXxY0lRpKjaYql2vUtqc+Z/oWrEN00TCoU2lpZbKhTaWliypVGpbtM6YLJNMyui1nyZ8lkxyui1nyZ8ljHK6qpWM+TSVQWSdKZZQxdNUaapNsphqZQxdNUaao2yYamUTqYumqNNUbZMNS8LOfJnytlxyvCznyZ8ljHK8haz5M+Sy45V1qVM1TKLSzdNMxCsUWlqrZWKLS0LSrFFqbQsqFJaFlQpAsqVUfyWyKpgSaZmGQLOklGklmzzxSvixpJNJJYxSvixpJTpJLGKU1a0Lc1zMozpas9oomy6LWdJnSWXZK6LWdJnSWNkqqtakmbUK1EWSIBUiAEwvLCrPklmqmZXRaz5M+UszsldFrPkz5LGyV0Ws+QsmyXuHE98gYHxGF9XeuC4nvkDA+Iwvq75w3SQCQfOGWHx+v8dLQt9lh8fr/AB0tC7VHbD4auoA0gABGtUpjWqGZABAABTOtUpnWLAANAACJSidakIAFAAAAVAIyAAAAACgAAABACJBAJAARKUAACgAAAKJ1hOsVuAAAAAAAAAAAAAAAAAAah7lxPfIGB8RhfV3zgeJ75AwPiML6u9cJ9SRAD5xyw+P1/jpaFvssPj9f46Whdqjth8NXUAaQAAjWqUxrVDMgAgAApnWqUzrFgAGgABEpROtSEACgAAAKgEZAAAAABQAAAAgIEShKASAAhKJAAFAAAAUTrCdYrcAAAAAAAAAAAAAAAAAA1D3Lie+QMD4jC+rvXBcT3yBgfEYX1d64T6gAHzjlh8fr/HS0LfZYfH6/x0tA7Wn2w+GrqkQNokQWgmNapTEptgZlIi2C2EEiLYLYUSpnWm2ETKEAi0tGkiLS0EqZSiVIABQAAAFQhKMgAAAAAoAAAAQAiRACRFoCUSWgAi0tVUiLQEiLS0FM6wnWDcAf1AAAAAAAAAARaCRFpaCRFpaCRFoNQ9z4nvkDA+Iwvq75wPE98gYHxGF9XeuE+pKAB845YfH6/wAdLQN/lh8fr/HS0Dt0dsPhq6gDSAAAAoAgAAAAAAAAIShQAFABAAEgCAAAAEJRCRABAAAAAAFAAESlCgAAAAAAlCQQkEAAFM60JnWhW46AAAAEqUoVQAAAAAHunE98gYHxGF9XfOB4nvkDA+Iwvq75wX1ggB845YfH6/x0tA3+WHx+v8dLQO3R2w+GrqANIAAACgCAAAAAAAAAhKFAAUAAAESAIAAAAQlEJEAEAAAABCQUAAQlEqAAAAAACUJBCQQAAUzrQmdaFbjoAAAAhCZQqgAAAAAPdOJ75AwPiML6u9cFxPfIGB8RhfV3rgvrAAfOOWHx+v8AHS0Df5YfH6/x0tA7dHbD4auoA0gAAAKAIAAAAAAAACAUAAAAABUgDIAAABCUQkQAQAAAAABQABEpRKgAAAAAAlCQAEAAFM60JnWhW46AAAAIlCUKoAAAAAD3Tie+QMD4jC+rvXBcT3yBgfEYX1d64L6wAHzVlnhppyhrj/8AnS5/lFX+w3eWnzFX+OlzzuafbDOOnhe5RJyif9hZG7Jjp4XuUT/sGnlZAx08L0YeZlVpp7liNaosk6dK7pp7jTT3LQWNlK7pp7jTT3LQWNlK7pp7jSytBZNlK7pZNLK2JY2Urmlk0srYtjZSuaWTSytkJZNlK5pJTpJWwNkLmkk0krYGyFekk0k2KCdQbITp57jTz3LM6xbN46eF7Tyaee5ZCxjp4XtPPduNPPduWQsY6eF7Tz/sHKJ7tyyFjFTwvconu3HKJ7tyyJYxU8L3KJ7jlE9yyFjFTwvconu3I5TP+wtKJ1lljSo4X+VVf7Byqr/YWBbNYqOF/lVX+wcqq7tywFjFRwv8qq7tyYxmZ/8Axjpp1lknSo4ZGnk08rIWZx08L2nk08rIhjp4XtPJp5WRTHTwu8pmLtyOVVf7CxOsLNYqOF/lU9245VV3blgLLio4X+U1d245VV/sLCCxio4ZHKJn/wDDlE/7CwBjp4XuUT/sHKJ/2FkDHTwv8on/AGDlErAGOnhenGJRp5WkBGnTwvaeTTysguOnhe08mnlZAx08L2nkWQMdPD6C4nvkDA+Iwvq75wPE98gYHxGF9XfOAghID5ky0+Yq/wAdLnnQ5afMVf46XPO5p9kKANgACY1qlMa1QzIAIAAEBAJAEAACAgEgIgAATqCdQq1OsJ1itgAAAAAoAAAAonWrUTrFgAGgABNOtCadYkqgBgAAABROsJ1g3AAKAAACAAAACEoFgAAAAAFfQXE99P8AA+Iwvq75wPE99P8AA+Iwvq75wHkAA+ZMtPmKv8dLnnQ5afMVf46XPO5p9kKANgACY1qlMa1QzIAIAAEBAJAEAACAgEgIgAATqCdQq1OsJ1itgAAAAAoAAAAo+6tR9xYABoAATGtCY1iSqAGAAAAFE6wnWDcAAoAAAIAAAAISgWAAAAAAV9BcT30/wPiML6u+cDxPfT/A+Iwvq75wHkAA+Ysta6Yyirtn/wAdLns+m+G0y5qmMpa/6z/8VDm86rane7mnP9Ye8aN4bDPpvgz6b4a/OqvneZ1W1O9q64fbYZ9N8GfTfDX51W1O8zqtqd5cw+2xium3XCrSUbUNZnVbU7zOq2p3l0nQ9tnpKNqDSUbTWZ1W1O8zqtqd5cwe2z0lG1BpKNqGszqtqd5nVbU7y5g9tnpKNqCMJRtQ1mdVtTvRn1bU7y5g9tppKNqDSUbUNXn1bU7zPq2p3l0/P7bTSUbUGko2oavPq2p3mfVtTvLn5/baaSjahOko2oarPq2p3omuraneXX8/tttLRtQaWjahqc+ranejPq2qt6XPze230tG1BpaNqGpz6tqreZ9W1VvLn5vbbaWjagnC0Wfyhqc+raneZ9W1O8ufm9tln0264M+m9r4qqs/lO8zqr53rdcPtsM+m+DPpva/Oq2p3mdVtTvLmH22GfTeZ9N7X51W1O8zqtqd5cw+2wz6bzPpva/OqvnenOm+S5h9s/PpvM+m9gZ03yZ03yXMLPz6bzPpvhgZ1V87zOqvneXMLPz6b4UTXTbrhh503ytzVVbrkusaLYZ9N8GfTtQ1+dVfKM6q+d5dcLY59N8GfTfDX51V87zOqvneXMLYZ9N8JjCU2/wAoa7OqvlFVVVn8p3lzD7bTSUbUI0lG1DU59W1O8z6tqd5c/P7bbSUbUGko2oanPq2p3mfVtTvLn5/bbaSjahOko2oajPq2p3mfVtTvLn5/baThKNqDSU7UNbFVW1O8zqtqd5dcPtstJTtQZ9O1DW51W1O8zqtqd5cw+2y0lO1BpKdqGtzqtqd5nVXzvLmH22Wkp2oM+m+Gtzqtqd5nVbU7y5h9tln03wZ9O1DW51W1O8zqtqd5dMHtss+m+DPpvhrc6raneZ1W1O8uYPbZZ9O1CnSUbUNfNVW1O9bz6tqd5dY0fbaaSjag0lG1DV59W1O8z6tqd5dcHttNJRtQaSjahq8+raneZ9W1O8uYPbaaSjagavPq2p3hcwe30zxPfT/A+Iwvq75wPE99P8D4jC+rvnBfGH2D7A+VcuvmWv8AFQ5p0uXXzLX+KhzTt0dsPup6ADSgAAAAAAACEoAAAAARKUSLCAEUAAAUVxqCNQMgAAACUJAAEAAFudatROsWAEDSQAFNWpKKtQKQEaAFAAEwlEJEAAAAAAAAAARKhXKgWABFAAAAfTXE99P8D4jC+rvnA8T30/wPiML6u+cNyw+wfYHyrl18y1/ioc06XLr5lr/FQ5p26O2H3U9ABpQAAAAAAABCUAAAAAIlKJFhACKAAAKK41BGoGQAAABKEgACAAC3OtcW51iwADQAApq1KlNWoFIA0AAAAmEohIgAAAAAAAAACJUK5UCwAIoAAAI+muJ76f4HxGF9XfOB4nvp/gfEYX1d84bmB9g+wPlXLr5lr/FQ5pvcvMYzcp8JFk//ABUejmeU90u1RP8AWHQppm0MkY3Ke6TlPdLd12SyRjcp7pOU90lzZLJGNynuk5T3SXNkskY3Ke6TlPdJc2SyRjcp7pOU90lzZLJQx+U90o5T3SXNkskY3Ke6TlPdJc2SyRjcp7pOU90lzZLJRLH5T3SnT2/aS67ZXhZ0xpkNsrws6Y03cG2V4WdMaYNssmNQxuU90nKe6VumyWSMblPdJynukubJZIxuU90nKe6S5slkpYvKe6U8p7pLmyWSMblPdJynukumyWSMblPdKOU90lzZLKW51rPKe6VPKO6S7UUSyELHKO6TlHdKXXbLIGPyjuk5R3SXNsshTVqWeUd0k4e37SXNsrgtaXuNL3C2ldFrS9xpe4LSui1pe40vcFpXoSsaaz7SafulbptlfFjT90mn7pLm2V8WNP3SafukubZXxY0/cafuLm2V8WNP3SafukubZXxY0/cafukubZXpUKNP3KdIl1imV0WtIaUutpXRa0ppS5aV0WtKF0tL6f4nvp/gfEYX1d84Hie+n+B8RhfV3zhuWH2D7A+RsvvmjCfio9HMOny++aMJ+Kj0cw7FHbDq0dsADbQAAAAAAAAhKAABQABVSpVUiSqAVAAAAFACKAAAAAAAAAAISgUAAAAICAVAKgAAACkBFAAAAAAAAAAAAAAAAABH1HxPfT/A+Iwvq75wPE98gYHxGF9XfOI5AfYPsD5Gy++aMJ+Kj0cw6fL75own4qPRzDsUdsOrR2wANtAAAAAAAACEoAAFAAFVKlVSJKoBUAAAAUAIoAAAAAAAAAAhKBQAAAAgIBUAqAAAAKQEUAAAAAAAAAAAAAAAAAEfUfE99P8AA+Iwvq75wPE/8gYHxGF9XfOI5AfYPsD5Gy++aMJ+Kj0cw6jL75own4qPRy7sUdsOrR2wANtAAAAAAAACEoAAFAAFVKlVSJKoBUAAAPsCgBFAAAAALJACySyQAsLAEJslFkigWSWABYWAEFiYgEhYWKgFhYAFgCkTYixFAsLAAskskATZJZIIE2SWSCBNklkggTZJZIIE2SWSCBNklkggTZII+ouJ76f4HxGF9XfOB4nvp/gfEYX1d84jkB9g+wPkzL2I/wCp8J+Kj0cxZDp8vPmfCfio9HMO1p9sOnT2wWQWQkaVFkFkCQRMQiyEyCosi4si5ICLIuLIuSAiyLkxEBAFkFkJBEWQWQkFRZCqmIQmkSU2QWQkERZBZCQEWQWQkBTZFxZFyQEWRcWRckBFkXFkXJAKYi5VZFyKVSoiyLiyLkgIsi4si5ICLIuRZFypAIsi4si5IgiyLiyLkgIsi5MUxbqExrBObFxmxckVlGbFxmxckBGbFxmxckAimLoTmxdBCREZtN0GbTdCQEZsXQZtN0JARFNN0JzKbo3JhIKcym6DMpuhUBdTmU3QZlN0blQF1OZTdG5VmU3RuFSopzKbo3GZTdG5UApzKbo3GZTdG5UApzKbo3CoB9HcT30/wPiML6u+cDxPfT/A+Iwvq75wXwh9g+wPkzL35nwn4qPRzLpsvPmfCfio9HMu1p9sOnT2wANKAAiQkFAAQkACAgEgCAACYQmkJVACAAAAIAAAAABNKpTSqVAAAABCUAAIAACY1oTGsFQCsgAAAJjUlEakiACgAgmEohIgAAAAqUqlAQkQAAAFfR3E99P8D4jC+rvnA8T30/wPiML6u+cF8IfYPsD5My9+Z8J+Kj0cy6fLyJ/6nwn9P/FR6OYsm52tPth0qe2ALJuLJuaUCybiybgQJmJulFk3DQhNk3SWTcAFk3Fk3AEFk3SmIm6QAsm4sm4ZAsm4sm4BNKLJuVUxNwspCybiybhkCybpLJuACybiybgQFk3Fk3SAFk3SWTdIAWTcWTcCaVSKYm5Nk3KAWTcWTdIAWTcWTcAhNk3SiybpACybpLJuQAsm4sm6QExrRZN0piJt1CKgsm4sm5UAsm4sm4ALJuLJuBMJIibiybhALJuLJuACybiybgTCURE3Jsm6RALJuksm4ALJuksm6QFSmybpVWTcoBZN0lk3CAWTcWTcAFk3SCvo7ie+n+B8RhfV3zgeJ76f4HxGF9XfOC+EAB835Y4hi2EygrqqwUTOjp+8tBzZivVRvl1GV3x6v8dLROvR2w5detqRVMRVP1ic24p1Mb5ObcU6mN8ssaYz6vlP1ic2Yr1Ub5ObcU6mN8ssDPq+U/WJzbinUxvk5sxTqY3yy0hn1fKfrD5sxTqY3yc2Yr1Mb5ZgGfV8p+sPmzFOpjfJzZinUxvlmAZ9Xyn6w+bMU6mN8pjgzFOpjfLLIEnX1fKfrE5sxTqY3yc2Yp1Ub5ZgXTPq+U/WHzZinVRvk5sxTqo3yzAuZ9Xyn6w+bMU6qN8pjgzFOpjfLLILmfV8p+sXm3FOpjfJzbinUxvlliXTPq+U/WJzbinUxvk5txTqY3yywuZ9Xyn6xObMU6mN8nNuKdTG+WWFzPq+U/WJzbinUxvk5txTqY3yywuZ9Xyn6xObcU6mN8nNuKdTG+WWFzPq+U/WJzbinUxvk5txTqY3yywuZ9Xyn6xObcV6mN8nNuK9VG+WWFzPq+U/WJzbivVRvk5txXqo3yywvJn1fKfrE5txXqo3yc24r1Ub5ZYXkz6vlP1ic24r1Ub5ObcV6qN8ssLmfV8p+sTm3FeqjfJzbivVRvlmILpn1fKfrE5txXqo3yc24p1Ub5ZgXXPq+U/WHzbivVRvk5txXqo3yzAumfV8p+sTm7FeqjfJzdivVRvllhcz6vlP1ic3Yr1Ub5ObsV6qN8ssLmfV8p+sTm7FeqjfJzdivVRvllhcz6vlP1ic3Yt1Ub5Tzfi3VRvllBeTPq+U/WLzfi3VRvk5vxbqo3yygvJn1fKfrF5vxbqo3yc34t1Ub5ZQXkz6vlP1i834t1Ub5Ob8W6qN8soLyZ9Xyn6xeb8W6qN8nN+LdVG+WUF5M+r5T9YvN+LdVG+Tm/FuqjfLKC8mfV8p+sXm/FuqjfJyDFuqjfLKC8mfU8p+sXkGLdVG+TkGLdVG+WUF5M2p5T9YvIMW6qN8nIMW6qN8soLyZtTyn6xeQYt1cb5GUF5M2p5T9excT30/wPiML6u+cDxPfT/A+Iwvq75x3bD7B9gfPGV3x6v8dLRN7ld8er/HS0Tr0dsONX3SANMAACUAJEJAAAIQmBJSAiAABAQCQBAAAAAAAAAAAAAAAAAAEggRIAAAAAAAAAACAAAAAAAAAAAAAAAAAAD2Lif+QMD4jC+rvnA8T30/wPiML6u+ch+gD7B9gfPGV3x6v8dLRN7ld8er/HS0Tr0dsONX3SANMAACUJAAAAAICBJSAiAABAQCQBAAAAAAAAAAAAAAAAAAEoSgRIAAAAAAAAAACAAAAAAAAAAAAAAAAAAD2Lie+n+B8RhfV3zgeJ76f4HxGF9XfOQ/QAH2B885W0zz9X+Olos2XQZWfHa/x0tG61E/1hw9Sqd0rebJmyuDV2N0rebJmyuBc3St5slkrgXN0rdkli4Fzct2Fi4Fzct2SmIVhc3KLCxWIl1NhYqAupsLFSJC6BIogSAgSAgAUAAAALCNaoRTYWKhC6mwsVAXU2CqUAAKAAAIAAFAAAAABAAAtAEiEgAAAAAAAAAAAA9i4nvp/gfEYX1d84Hie+n+B8RhfV3zjv0AfYPsD58ys+O1/jpaNvMrPjtf46WjdWjthwdTvkAaYAAAAAAAAAAAAAAESlEgACgAAAIAVQAAACNapTGtUiSACAACEygUAAAAQlAACqAAAAAAAAAAJQkQQkAAAAAAAAAAB7FxPfT/AAPiML6u+cDxPfIGB8RhfV3zjv0AfYPsD58ys+O1/jpaNvMrPjtf46WjdWjthwdTvkAaYAAAAAAAAAAAAAAESlEgACgAAAIAVQAAAExrSpjWqRJABAABCUCgAAACJSiQAFUAAAAAAAAAAShIgCASAAAAAAAAAD2Lie+n+B8RhfV3wOO/QB9gB8+ZWfHa/wAdLRg6tHbDgandIA2yAIACrYACwAFgALAAgAAiQAALNABYACwgAAAAACNaoAABkAAQBZoALAAWBAFgAAAAAAAAAAAASAAAAAAAgAAAAAK//9k=;" vertex="1" parent="1">
          <mxGeometry x="500.31" y="594" width="77" height="77" as="geometry" />
        </mxCell>
        <mxCell id="IUG1O-Y_2TdF6H-YGGcq-55" value="" style="shape=image;verticalLabelPosition=bottom;labelBackgroundColor=default;verticalAlign=top;aspect=fixed;imageAspect=0;image=data:image/jpeg,/9j/4AAQSkZJRgABAQEAYABgAAD//gA+Q1JFQVRPUjogZ2QtanBlZyB2MS4wICh1c2luZyBJSkcgSlBFRyB2NjIpLCBkZWZhdWx0IHF1YWxpdHkK/9sAQwAIBgYHBgUIBwcHCQkICgwUDQwLCwwZEhMPFB0aHx4dGhwcICQuJyAiLCMcHCg3KSwwMTQ0NB8nOT04MjwuMzQy/9sAQwEJCQkMCwwYDQ0YMiEcITIyMjIyMjIyMjIyMjIyMjIyMjIyMjIyMjIyMjIyMjIyMjIyMjIyMjIyMjIyMjIyMjIy/8AAEQgCWAJYAwEiAAIRAQMRAf/EABwAAQEBAAMBAQEAAAAAAAAAAAABAgMEBQcIBv/EADwQAQABAQQFCwQBAwMFAQEAAAABAhESUVIDBhMxkQQFFBUXVHKSk7LSMjZBYTUhU6FCYnEWIkNV8CUm/8QAGgEBAQEBAQEBAAAAAAAAAAAAAAECBQMEBv/EACURAQACAQUBAAICAwEAAAAAAAABEQIDEhMxUTIUYUFSBCEiM//aAAwDAQACEQMRAD8A5Ow/WLv/ADV6mk+B2H6xd/5q9TSfB97AfBOw/WLv/NXqaT4HYfrF3/mr1NJ8H3sB8E7D9Yu/81eppPgdh+sXf+avU0nwfewHwTsP1i7/AM1+ppPgdh+sXf8Amr1NJ8H3sB8E7D9Yu/8ANXqaT4HYfrF3/mv1NJ8H3sB8E7D9Yu/81eppPgdh+sXf+avU0nwfewHwTsP1i7/zV6mk+B2H6xd/5q9TSfB97AfBOw/WLv8AzV6mk+B2H6xd/wCavU0nwfewHwTsP1i7/wA1eppPgdh+sXf+avU0nwfewHwTsP1i7/zV6mk+B2H6xd/5q9TSfB97AfBOw/WLv/NXqaT4HYfrF3/mr1NJ8H3sB8E7D9Yu/wDNXqaT4HYfrF3/AJq9TSfB97AfBOw/WLv/ADV6mk+B2H6xd/5q9TSfB97AfBOw/WLv/NXqaT4HYfrF3/mr1NJ8H3sB8E7D9Yu/81eppPgdh+sXf+avU0nwfewHwTsP1i7/AM1eppPgdh+sXf8Amr1NJ8H3sB8E7D9Yu/8ANfqaT4HYfrF3/mr1NJ8H3sB8E7D9Yu/81eppPgdh+sXf+avU0nwfewHwTsP1i7/zV6mk+B2H6xd/5q9TSfB97AfBOw/WLv8AzV6mk+B2H6xd/wCavU0nwfewHwTsP1i/9hzV6mk+B2H6xd/5q9TSfB97AfBOw/WLv/NXqaT4HYfrF3/mr1NJ8H3sB8E7D9Yu/wDNXqaT4HYfrF3/AJq9TSfB97AfBOw/WLv/ADV6mk+B2H6xd/5q9TSfB97AfBOw/WLv/NXqaT4HYfrF3/mr1NJ8H3sB8E7D9Yu/81eppPgdh+sXf+avU0nwfewHwTsP1i7/AM1eppPgdh+sXf8Amr1NJ8H3sB8E7D9Yu/8ANXqaT4HYfrF3/mr1NJ8H3sB8E7D9Yu/81eppPgdh+sXf+avU0nwfewHwTsP1i7/zX6mk+B2H6xd/5q9TSfB97AfBOw/WLv8AzV6mk+B2H6xf+w5q9TSfB97AfBOw/WLv/NXqaT4HYfrF3/mr1NJ8H3sB8E7D9Yu/81eppPgdh+sXf+avU0nwfewHwTsP1i7/AM1+ppPgdh+sXf8Amr1NJ8H3sB8E7D9Yu/8ANXqaT4HYfrF3/mr1NJ8H3sB8E7D9Yu/81+ppPgdh+sXf+avU0nwfewHwTsP1i7/zX6mk+B2H6xd/5q9TSfB97AfBOw/WLv8AzV6mk+A+9gAWxiWxiAFsYlsYgBbGJbGIAWxiWxiAFsYlsYgBbGJbGIAWxiWxiAFsYlsYgBbGJbGIAWxiWxiAFsYlsYgBbGJbGIAWxiWxiAFsYpbGIWolsYlsYhaiWxiWxiFqJbGJbGIWolsYlsYhaiWxiWxiFqJbGJbGIWolsYrbGIWBbGJbGIAWxiWxiAJbGJbGIWolsYlsYhaiWxiWxiFqFsYlsYhYFsYlsYgBbGJbGIAWxiWxiAFsYlsYgBbGJbGIAWxiWxiAJbGJbGIWolsYlsYhaiWxitsYhYAAAD87188crj/VT5WOuOV5qfK6WkYdOIin5nHUyrt6HXHK81PlOuOV5qfK6AtQ1vy9d/rjleanynXHK81PldAKg35eu/1xyvNT5W4545XZ9VPlea3G5mYhnLUy9eh1vyvNT5TrfleanyugJUM8mXrv9b8rzU+U635Xmp8roBUHJl67/W/K81PlYr545XZ9VPldNivcRELGplfbudccrzU+U645Xmp8roDdQ9OTL13+uOV5qfKdccrzU+V0AqDfl67/AFxyvNT5Vjnjldv1U+V56xvKgnPL16XXHK81PlOuOV5qfK6AzUPPky9d/rjleanynXHK81PldAWoOTL13+uOV5qfKdccrzU+V0AqDky9ejTzvyuY+qnytdb8rzU+V59G5piYh5ZamV9u91vyvNT5TrfleanyuiFQnJl673W/K81PlOt+V5qfK6IVByZeu91vyvNT5U635Xmp8rpMlQ1Gpl67/W/K81PlOt+V5qfK6AtQvJl67/W/K81PlOt+V5qfK6AVByZeu/1vyvNT5U645Xmp8ropJUHJl67/AFvyvNT5TrfleanyugFQvJl67/W/K81PlOt+V5qfK6AVC8mXrv8AW/K81PlOt+V5qfK6B+SoSdTL16fW/K81PlOt+V5qeDo/gYmIeU6mXrvdb8rzU8DrfleanyuiFQcmXrvdb8rzU+U635Xmp8rohUHJl67ek535XZH/AHU+Vx9ccrzU+V1dJuhxN44xT1xzyrt3+uOV5qfKdccrzU+V0BrbDe/L13+uOV5qfKdccrzU+V0A2wb8vXeq545XZ9VPlY655Zmp8rp1bmF2w3jnlXbv9c8szU+U655Zmp8roC7Ya3Zeu/1zyzNT5TrnlmanyugG2Ddl67/XPLM1Plc+j535XNP1U+V5Ln0f0s5RFPLUzyrt6PW/K81PlOt+V5qfK6IxUPDky9d7rfleanynW/K81PldEKg5MvXe635Xmp8r19Wuc+U6XnnQ01VU2TVT+P8AdD+aezqv/OaHxU+6Gcoja9NHPLkj/b7zG5UjdCvhfqI6ABX5o0jjb0jDqR0/LY9CgrQAA3G5huNyZM5KAyxIAAxXubYr3ELj2wA29gABY3osbxGwGXmAKAAN0bmmaNzTEvKewAQAAZaZFgAVoAAT8qgAAoAAQCSfw5QGXj/IAAADGk3Q4nLpN0OJvHp7YdADTYAQJVuYbq3MNPTHoAFAAHPo/pcDn0f0s5dPPU6bAYfOAAPZ1X/nND4qfdDxns6r/wA5ofFT7oZz+Xrof+kPvMblSNyvgfqoABX5n0jDk0jjdSOn5bHoBVaBFAbjc43JG5MmclAZYkAAYr3NsV7iFx7YAbewAAsb0WN4jYDLzAFAAG6NzTNG5piXlPYAIAAMtMiwAK0AAJKp+QABQAACN6Sfw5QGXj/IAAADj0m6HG5dJuhxN49PbDoAabACBKtzDdW5hp6Y9AAoAA59H9Lgc+j+lnLp56nTYDD5wAB7Oq/85ofFT7oeM9nVf+c0Pip90M5/L10P/SH3mNypG5XwP1UAAr8zTXfSxnRuR1On5iY2zTNhY0FpbNhY0BbNjcbkVJSZLS0EYktLQAtY0k2Q249L9K49tYdsXoL0MD0p9O2G70F6GAo2w3ehYriJcZJUG2HLtYNrDhCoTjhzbWDaw4Q2wceLm2sG1hwhtg48XYp00RDW3h1YVNsJOji7G3pXbw6wbIThxdjb0rt4dYNkHDi7G3g20Ouptg4sXPtoNtDgDbBxYufbQm2hwhtg4sXNtoNrDhDbBx4ubawbWHCG2Djxc21g2sOENsHHi5trBtYhwpJtg48XP0un9HS6f06QvHD1j/G03e6XT+k6XT+nSDjxPxdN3ul0/o6XT+nRDjhPxcHcq5TTUztYdalo2wcOMf6c+1g2sOFDbBxYufawbWHAqxjBx4uWdLFjO0hxzuZWoajThzbSDaQ4QqF44c20g2kOEKg44c20hy0aaIh1G6dyTEM56UTDtbeF28OsM7YeXDi7G3hdvDrBsg4cXZ28Pa1V0sVc+6GP91Puh/OPc1T/AJ7QeKn3QznjG2XppaWMZw/QkblT8K5bvwACvzHo3I49G5HUl+Yy7ABkAAVFRJABmQABx6Xc5HHpfpI7a0/pwgPV9YAAACAAACgAEKkblEAAAAFRRAAAAAAAAAABJVJFjtwgNQ+iOgBQABaWmad7TLzy7VFQQFBEncy1O5kbgAUAAG6dzDdO5JZy6aARgAAe5ql/PaDxU+6l4b3NUv57QeKn3Us5/Mt6f1D9CRuVI3K5LuQAA/Mejcjj0bkdSX5jLsAGQABUVEkAGZAAHHpdzkcel+kjtrT+nCA9X1gAAEggAAAoABCpCiAAAACoogAAAAAAAAAAk7lSQjtwgNQ+iOgBVAAWne2xS2y88uxFQQUASdzLU7mRYAFUAAbp3MN07klnLpoBGAAB7mqf89oPFT7oeG9zVP8AntB4qfdDOfzLen9Q/QkblSFcl3AAH5j0djdsYw6MaSqPyu0rx/w6+yX5+dCbd22MYLYxh0tpXibSvE2Sn48+u7bGJbGLpbSvE2leJsk/Hn13bYxW2HR2leJta8f8JOnJ+NM/y79sYlsOhta8Ta14nHJ+Ll679sYlsOhta8xta8Tjk/Fy9d+2MXHpZix1NrXmZnSVzvlY06XH/GmJu3OOveqxL1WLdPbil2B171WJeqxNpxS7FqOC9Vik11Ym04pdgda/ViX6sTa1wy7I61+rEv1Ym04Zdkda/ViX6sTacMuzEwtsYurfqxL9WJtThl2bYW2MXVv1Yl+rE2nDLs2wtsOrfqxL9WJtOGXatjEth1b9WKbSrE2nBLt2wtsOntKsTaVYm04J9du2C2HU2lWJtKsTacE+u3bBbDqbSrE2lWJtOCfXcthLYdPaV4m0rxNq/jz67tsYpbDp7SvE2leJtPx59dy2CZix09pXibSrE2kaEw5hx2yWytN7acg47ZLZKNrkHHbJbJRtctLTrzVMflL9WJSTpTLs2jrX6sS/VibU4Zdkda/ViX6sTacMuzO5lwX6sVvTiUsaUuYcN6cS9OJS8UuYcN6cS9OJRxS5m6Z/o616cUnSVRulNqTpTLuWxiWw6W0rxNpXibU/Hn13bYxLYxdLaV4m0rxNp+PPru2w9zVKf/3tB4qfdS/ltpXi9/U+uqdYdBbP+qn30s54/wDMtY6ExlEv0cqK47qgAPysqflXchyZACQAIBFQWBFBQRQEVBQAAABJVJFhkAaAAAAAAAAAFBFQAAUAASVSQABoAAAEckCKPMAQAFGakWpBqAAUAAVFAAQAAGZ3tMzvUhABsAAe/qd9w6DxUe+l4D39TvuHQeKj30s6nzK49v0iA4j6wAH5W/Kp+VdyHJkAAAJBFQhYABRFAEVJFAAAAElUkWGQBoAAAAAAAAAUEVAABQABFSQABoAAAEb/AAqKPMAQAFGakWpBqAAUAABQAEAABmd7TM71IQAbAAHv6nfcOg8VHvpeA9/U77h0Hio99LOp8yuPb9IgOI+sAB+VvyriiqVvS7jmThLkHHekvSJslyDjvSXpDZLkRi9LN6RYxlyjivSXpKXbLlHFekvSUbZcqOO9KxVMyG2Wxm0tCmhm0tCmklLQKQLCwaAsLAAsLAAAAAAFBFLCy0FsLCy0FsLCy0SWrEmC1iUFsLBbQWwsC0FsLAtsZBmYaGREpoZtAoqRY/qt1bLZGrpdLW2Rq6XSy2VWYshkstRBFUQBWZ3qlirEoLYWC2gthYFo9/U77h0Hip99LwbHv6nx/wD0Og8VPvpZ1PmWsZ/2/SAg4j61AB+UIaZhp3Xwz2AIgACIqKsAAoAAtO9Fp3iT00AMACAAAAAAAACACgAAACooAAgAAk71Sd4CANCgAAAAACAKALG9piGxiewAQABmrcy1VuZG4ABoAAAAAAAAe9qf9w6DxU++l4L3tT/uHQeKn30s5/Mrj2/R/wCFT8K4r7QAH5QhpmN7TuvhnsAREVFBEVFWAAUAAWneixvEnpoAYAEAAAAAAAAEAFAAAAFRQABAABJ3qk7wQAaFRQRUUEUARUUEVFAhtiGxiewRRAAGatzLVW5kbgAGgAAAAAAAB72p/wBw6DxU++l4L3tT/uHQeKn30s5/Mrj2/R/4VPwOK+1QAflCGmIlq2HdfDPaiWxiWwIolsFsArK2wgsAAoAAtO9CJsEpsS9GMcS9GMcRmpUZvRjHFb0YxxQqVEvRjHEvRjAVKiXoxgvRjAUol6MYL0YhSiXoxgvRipQJejGC9GIUol6MS9GIUol6MS9GIUqs3oxW9GIUol6MYL0YoUol6MS9GIUqTvL0YpNUW74UqVGb0YwXoxgWpaGb0YwXoxgKloZvRjBejGAqWhm9GK3oxClGb0Yl6MQpoZvRit6MYCmo3tOOKoxhq/GMcUZmJaGb8YxxL8YxxEqWhm/GMcS/GMcQqVq3MLVVFm+Gb0YwrcRKiXoxgvRjAtSol6MYL0YwFSol6MYS/TjHEWpaGb9OMcS/TjHEKloZv04xxL9OMcQqWnvan/cOg8VPvpfz9+nGOL39Tq4nWHk/9Y+qn8/76WdT5lcYm36QhUHEfYoAPyaA7z5AAAABuNzDcbhMlARkAAYrbYrFjtkBp6gCAAJKgDIAAAKAAAAAAKigACAADFW9tireNY9oANgAAAktADIAAAAAAAAACTuRZ3ILAANAADFW9tireqx2gA2AAP6DUz7j5P46PfS/n39BqZ9x8n8dHvpY1PmR+mBRw2gAH5NAd58gAKAANxuYbjcM5KAjIAgMVtsVqsdsgNPUAQABJUASAAAAAAAAAABUUAAQAAYq3tsVbxrHtABsAAAEloAZAAAAAAAAAASdyLO5BYABoAAYq3tsVb1WO0AGwAB/QamfcfJ/HR76X8+/oNTPuPk/jo99LGp8yP0yA4bQAD8mgO8+QAAAAbjcw3G4TJQEZAEBmtpitVx7ZAaeoAgACSoAyAAACgAAAAACooAAgAAxVvbYq3jWPaADYAAAJLQAyAAAAAAAAAAk7kWdyCwADQAAxVvbYq3qsdoANgAD+g1M+4+T+Oj30v59/QamfcfJ/HR76WNT5kfplFHDaAAfkWNPMrtpcMb2nfJ08XJtpNtLjBNmLk20m2lxgbMXJtpOk1RhwcTKTBx4y5+k1frgdJq/XBwBS8WHjn6TV+uB0mr9cHAEQcWHjn6TV+uBPKJnDg4CFOLFzbeTby4gXZi5dvJtpcQGzFy7eUnTzDjSrcGzFydJn9HSZ/TgBrix8c/SZ/XA6TP6cAHFh45+kz+jpM/pwAcWHjlnldUT+OCdMqwjg69W9EajSw8dnplWEcDplWEcHWBeHDx2emVYRwOmVYRwdYDhw8dnplWEcGul1frg6jQnFh47PS6sI4HS6v1wdYDiw8dnpdX64HS6v1wdYDiw8dnpdX64J0qZw4OuQpx4+Ox0mf0dJn9OADjxc/SZ/R0mf04AOPFz9Jn9HSZ/TgA48XY6VP64HSp/XB1wTjx8djpVX64HSp/XB1wOLHx2OlVfrgdKn9cHXA4sfHPPKqow4J0ur9cHXqZGuLDx2ul1frgdLq/XB1RDiw8drpdX64HS6v1wdZA4sPHZnllVn44M9Mq/XBwTuZGuLDx2emVfrgdMq/XB1gOLDx2emVYRwOmVfrg6wHFh47PTKsI4HSqpw4OssBx4ux0mf/oTpM/rg4UF48XY6TP/ANB0mf8A6HXA48XY6TP/AND+i1J081ay8nj/AH0e+l/LP6PUf7m5N46PfSxqfMplhjT9SqiuI+cAB+QI3tMxvad9qQAAAEZaZFgAFAACAgFAAAAZq3NM1bghkAbAQFABx1b0Wreg3AAigADTKiSoAgAAQEKiggKAAAAIoAAAAM1ItSDUIAiqioBO5lqdzAsKAKAALCLAioqAAAr+j1H+5uTeOj30v5x/R6j/AHNybx0e+ljU+ZTLp+pYVIVw4fIAKPyBG9pmN7TvtSAAAAjLTIsAAoAAQEAoAAACVblSrcEMADYCAoAOOrei1b0G4AEUAAaZUSVAEAACAhUUAAAAAAAAAAAGakWpBqARUUBAJ3MtTuZFgAFABBYRYBQAAAH9HqP9zcm8dHvpfzj+j1H+5uTeOj30sanzKZdP1LCpCuHD5ABR+PY0lFv1Q1tKM0PJiurNPEv1Zp4u9b6+D9vW2lGaDaUZoeTfqzTxL9WaeJZwft620ozQbSjNDyb9WaeJfqzTxLOD9vW2lGaGdpRmh5d+rNPFL9WaeJZwft6m0ozQu0ozQ8q/VmniX6s08S14P29TaUZoNpRmh5d+rNPEv1Zp4lnB+3qbSjNC7SjNDyr9WaeJfqzTxLOD9vV2lGaDaUZoeVfqzTxL9WaeJZwft6u0ozQbSjNDyr9WaeJfqzTxLOD9vV2lGaEq0lFn1Q8u/Vmnik11WfVPFLOD9vS2lGaDaUZoeXfqzTxL9WaeJbXD+3qbSjNBtKM0PLv1Zp4l+rNPE3HD+3qbSjNBtKM0PLv1Zp4l+rNPEs4Xo1aSm36oS/Tmh5s1VZp4l6rNPEtuNJ6V+nNBfpzQ829VmniXqsZ4lnE9K/Tmgv05oebeqxniXqs08SzielfpzQu0pzQ8y9VmniX6s08SydF6m0ozQbSjNDy79WaeJfqzTxLTh/b1NpRmhNpRmh5l+rNPEv1Zp4lnD+3qbSjNBGkozQ8u/VmnisVVZp4lpwvT2lGaDaUZoedeqzTxL1WaeJZwvS2lGaE2lGaHnXqs08S9VmniWcL0dpRmg2lGaHnXqs08S9VmniWcL0dpRmhdpRmh5t6rNPEvVZp4lnC9LaUZoNpRmh5t6rGeJeqzTxLOF6O0ozQu0ozQ829VmniXqs08SzhehVpKM0M7SjNDzq6qv6f908WL9WaeKbmo0nqbSjNBtKM0PLv1Zp4l+rNPE3HE9TaUZoNpRmh5d+rNPEv1Zp4lnE9SdJTZ9UM36c0POiqrNPFb04zxLXjehfpxgv04w6F6cZ4penGeK2cb0L9OMF+nGHQvTjPFL04zxLON6F+nGFiunGHn3pxnisVVYzxLTjehfpxgv04w6F6cZ4penGeJacb0L9OMF+nGHn3pxniXpxniWcb0L9OMP6PUeumdZuTf1j66PfS/jb04zxf02ocz/wBU8m/rP10fn/fSxnP/ADKZYf8AL9ZwqRuVxXwAAPxPCpCu46YAAAAioAAKAAAAAAAAJUqVAyANAAgAKyAAAAAAAAAAAAtKLANAAACAAAAAAAAMV/hhuv8ADBLQAgAAsb2mY3tLAACAACwiwCgCAAD+m1C+6eTeOj30v5l/Tah/dPJvHR76WdT5lMvmX60hUhXFcsAB+J1SFdx0wAAABFQAAUBAUAAAAABKlZq3AgA0ACAArISAAAAAAAAAAALSi0g0AAAIAAAAAAAAxX+GG6/wwS0AIAALG9pmN7SwAAgAAsIsAoAgAA/ptQ/unk3jo99L+Zf02of3Tybx0e+lnU+ZTL5l+tIVIVxXLAAfieFcUaS1q+7jqVLYxfL4VLYxfL4VLbLN9naC1LkVxbU2pZUuQce1NqWVLlRx7U2n/JZUuVGNp/ybT/kKlsY2n/JtP+RKlyMzuZ2hftFiFCwsACwsACwFZCqbJS0FEtLQUS0tBRLVsAFsLAQWwsBFpLEmbAbHHfkvhTkHHfL4U5Bx3y+FOQRQABAAGK/ww5K4tYsklpBbJLsoILdkskCN6kQtkrABYWCCLYWSAsJYsQChYWCCLYWAP6bUL7p5N46PfS/mbH9NqH908m8dHvpZ1PmUy+ZfrSFSFcVywAH4fpbYpbdyHXABAAEYbYJWABFAACAgGgFhAABad6LTvByADIAAADjq3otW9BoAABAWN7bEb2/wJKgCAADFW9tireSsMgIoAAADljcqRuVYZAAABWakWpAAAAAIaZhoAAQAAABQAAAH9NqH908m8dHvpfzL+m1D+6eS+Oj30s5/Mpl8y/WaoriuWAA/D9LbFLbuQ64AIAAjDbBKwAIoAAQEA0iiwiAApTvFp3g5ABkAARQHHVvRat6DQCAAAsb2/wAMRvb/AAJKgCAADFW9tireSsMgIoAAAg5Y3KkblaZAAABWakWpARUUBFAIaZhQUAQBAUAFAAQUB/S6h/dPJfHR76X80/pdQ/unkvjo99LOfzKZfMv1oqK4rlgAPw/S2zTEtWS7kOsBZJZIAWFkgjDksli7JIgtklkoqC2SWSCELZJFMgot2S7KwILdkuyCLTvguytNM27gtsLJwLJwGbAsnAsnANwFk4Fk4CW46t6NVUzbuS7OA1Ewgt2cC7OAtwgt2cC7OAkzCRvbZimbdzd2cBLgFuzgXZwDdCC3ZwLs4BuRire5Ls4MVU1W7iS4YFuzgXZwRbhBbs4F2cBbhBbs4LdqwDdDcblWKarNxdqwWGd0ILdqwLtWAm6EFu1YF2rAN0MVI3VRVgzcqwF3QgtyrAuVYBcILcqwLlWAboSGkiirBq7VgJuxQW7VgXasBN0ILdqwLtWAboQW7VgsUVYC7sUFuVYFyrAN2KC3KsC5VgG7FH9NqH908m8dHvpfzVyrB/Tah0z/ANU8m/p/ro99LOfzLOcxtl+slRXFc0AB+M6aKcI4NXKcI4JTvbd59kyzcpwjgXKcI4NAls3KcILlOENAWzcpwhyRo6bPpjgy5I3KkzLOzoyxwNnRljg2DNyxs6MscDZ0ZY4NgXLGzoyxwao0dFv0xwVqjeJMzS7KjLHA2VGWODYPOJljZUZY4GyoyxwaULljZUZY4LToqLfpjg0U7xJmWtnRljgbOjLHBsHlcsbOjLHA2dGWODYG6WNnRljgbOjLHBsFuSnRUTH0xwXY6PJTwao3NDznKbY2OjyRwTY6PJTwcgibpY2OjyU8E2OjyRwcgG6WNjo8kcGtlo8kcFaEnKWNlo8kcDZaPJHBsRndLGy0eSOBstHljg2BuljZaPJHBadDo8lPBpqkScprtnYaPJTwNho8lPByAzun1x7DR5KeBsNHkp4OQQ3T649ho8lPA2OjyU8IcgJun02GjyU8DYaPJTwbBjdPrGw0eSngbDR5KeDkQTdPrGw0eSngbDR5KeDkQk3T6zGg0eSnguw0eSnhDUb2kZnPK+3HsNHkp4QbDR5KeEOQE35euPYaPJTwg2GjyU8IcgJvn1x7DR5KeENbDR5KeDTSJvn1x7DR5KeEGw0eSnhDkA3z649ho8lPCDYaPJTwcgG+fXHsNHkp4QbDR5KeDkA3z649ho8lPCDYaPJTwcgG+fXHsNHkp4Gw0eSng5AN8+uPYaPJTwh7uqGh0dOsGgmKKY/7qfx/vpeM93VH+f0Hip91LOfzLWGeW6P9v0OqK47qgAPxpS2xS07z65UQBRFAckbnG5I3KzkoAyCKA1RvZao3iT05AB5gigLTvRad4kuQAeYAIACt0bmmaNzQ857AREUABploSQBGQABqllqkSemgBgAQABJbVAeaiKACEqsb2mY3tI857ABAABplpEkAEAAAAAAAAHu6pfz+g8VPupeE93VH+f0Hip91LOfzLWH1D9DqiuO64AK/GlO9tmmJwad59cgFggFhYA5I3OOxyRH9FZlQs/RYIBYWANUb2bGqI/qJPTkCwsHkBZ+iwUWneli0x/USXIFhYPICws/QAWFgN0bmmaNzQ857EUsQAAGmWhJAEZAAGqWWqRJ6aAGABAAEltUUeYAAASEb2mY3tIxPYAIAANMtIkgAgAAAAAAAA93VH+f0Hip91Lwnu6o/z+g8VPupZz+Zaw+ofodUVx3XABX5V6ByeP8Axxxk6Dyf+3HGXZkdi5cTm1P7S63QeT/244ydB5P/AG44y7Ityc2p/aXW6Dyf+3HGToPJ/wC3HGXZC5ObU/tLrdB5P/bjjLXQtB/bj/LnaSZk5tT+0ut0LQf24/ydC0H9uP8ALshcpzan9pdboWg/tx/k6FoP7cf5dkLlObU/tLrdC0H9uP8AKxyPQx/44dgLk5tT2XB0TQ5I4ydE0OSOMucLk5c/ZcHRNDkj/J0TQ5I4y5wuTlz9lwdE0OSOMnRdDG6iHOklycufrh6Po8sHR9HlhzBcnJn64ej6PLB0fR5YcwXJyZ+uHo+jywdH0eWHMFycmfrijQaOP9MLsNHlcgXJyZeuPYaPLBsNHlcgXKb8vXHsNHlg2Gjyw5AuTfl649ho8sGxoyuRS5N+Xrj2NGU2NGVyBcm/L1x7GjKbGjK5AuTfl649hRlI0NGVyBcm/L1x7KjBdlRg2Fym/L1x7KjBdlRg2FybsvWNlRgbKjBsLk3ZesbOnA2dODYXJun1jZ04GzpwbCzdPrGzpwNnTg2Fk5SxGjpwW5GDSls7pYuRgXIwaVDdLFyMC5GDaBulm5GBdjBoC5ZuxgXacGgW5ZuxgXYwaAuWbtOC3IwUEuUuRgXIwaAuWbkYFyMGkEuUuRg9zVOmI5+0H9P9VPuh4r29U/57QeKn3Qxn8y3pzO+H6CVFct3gAV+Xgkdh+fABQABqGVgSVARAAAAAAAABJVJFAAAAAAAAAAAAFRQABAAAAAAAAAAAAAAAABUUAAQABABQAAABUAUBEAAHt6p/z2g8VPuh4j29U/57QeKn3Qzn8y3pfcP0EqK5bvAAr8vSEjsPz4AKAANMtQJIAiAAAAAAAACSqSKAAAAAAIoAAAAAqKAAIAAAAAAAAAAAAAAAAKigioCKioAAKAAAAAAoCIIqAr29U/57QeKn3Q8R7eqf89oPFT7oZz+Zb0/uH6CVFct3gAV+XpAdh+fABQABbUQGrS1kCmrYLYZApq0tZICmrS1AKW0tQCltJlAKLS0AotLQCi0tAKLS1AKW0tQCltLUApbVtZUKW0tQCltLUApbS1AKW0tQCltLUApbS1EKKavQXoZCimr0F6GFKKavQXoYUopqKoW9DAUbW70F6GAKbvQXoYCimrYL0MoUU3egvQyFFNXoL0MoUU3egvQwFFN3oL0MBRthu9BehgSjbDd6Huap1R19oPFT7oeA9zVL+f0Hip91LOXzLenj/wBQ/Q0fhUVyncgAB+XpAdh+fABQABFQAAUAAAgFAAAAAAAAAAABAAAAAAFRQAAAAAAAAAAEVAQUBAVVQUBFRUQAAAARUAAVQAABAAAAFHuapfz+g8VPupeG9zVL+f0Hip91LOfzLWH1D9DKiuS7QAD8vSA7D8+ACgACKgAAoAABAKAAAAAAAAAAACAAAAAAKigAAAAAAAAAAIqAIAKIqqCAKAiAAAAAICoCqqAAAgAAACj3NUv5/QeKn3UvDe5ql/P6DxU+6lnP5lrD6h+hlRXJdoAB+XgHYfnwAAABAFAAsACwgAtQAsAEsAFsAFAEAAEAAAAAAUAAAAAAAAAAAEAEAUACwALBQLABEsAWyxACwBVsACwBFiQAAAB7mqX8/oPFT7qQYz+Zb0/qH6G/Cg5TswACv//Z;" vertex="1" parent="1">
          <mxGeometry x="615.19" y="594" width="77" height="77" as="geometry" />
        </mxCell>
        <mxCell id="IUG1O-Y_2TdF6H-YGGcq-56" value="" style="shape=image;verticalLabelPosition=bottom;labelBackgroundColor=default;verticalAlign=top;aspect=fixed;imageAspect=0;image=data:image/jpeg,/9j/4AAQSkZJRgABAQEAYABgAAD//gA+Q1JFQVRPUjogZ2QtanBlZyB2MS4wICh1c2luZyBJSkcgSlBFRyB2NjIpLCBkZWZhdWx0IHF1YWxpdHkK/9sAQwAIBgYHBgUIBwcHCQkICgwUDQwLCwwZEhMPFB0aHx4dGhwcICQuJyAiLCMcHCg3KSwwMTQ0NB8nOT04MjwuMzQy/9sAQwEJCQkMCwwYDQ0YMiEcITIyMjIyMjIyMjIyMjIyMjIyMjIyMjIyMjIyMjIyMjIyMjIyMjIyMjIyMjIyMjIyMjIy/8AAEQgCWAJYAwEiAAIRAQMRAf/EABwAAQEAAwEBAQEAAAAAAAAAAAABAgMGBQQHCP/EADsQAQABAQMHCgUEAgIDAQAAAAABAgMTURESFTFSYaEEBQc0N0F0kbHRFBZTcXIGNWKSIXMyQiIkMyX/xAAbAQEBAQADAQEAAAAAAAAAAAAAAQIDBQYHBP/EACoRAQABBAEEAQQDAAMBAAAAAAABAhESE1EDBBQVUjEzYXEFITIiI0EG/9oADAMBAAIRAxEAPwD9B6Huz+x8Ra+rvnA9D3Z/Y+ItfV3wB3B3A/nr9Wz/APu1/wCul4Wc9z9W/vtf+ul4TtaP8w6XqRGUrnSZ0oNsWhc4zpQC0LllcrFRJhcplQEsuUyoBZcqZ0iCxC50mdKAtoXOkzpQC0LnSZZQC0LllMsgpZcsmWUAsuWUyyAWX/J/lFRLB/kAsf5ACxlkyygFlyyZZQFtC5TKgFoXKZUIVLLlMoBYymUAsZTKAWAEQAAAAAAAAABRIUUAAAAAGQAAAAAV+x9D3Z/Y+ItfV3zgeh7s/sfEWvq7507vw7g7gfzz+rf32v8A10vCe7+rf32v/XS8J21H+YdLX/qQBpkAAVFGZAAAAE71TvCAAaAAAAAFAAAABUUQEUAAEAQABQAAgFRQAAAAAAEQAAAAAAAAAAhUhQAAAAABAAAAAAH7H0Pdn9j4i19XfOB6Huz+x8Ra+rvnTu/DuDuB/PP6t/fa/wDXS8J7v6t/fa/9dLwnbUf5h03U/wBSANMAACoq2ZkAQAAE71QIsADQAAAthFAQABBUBQCwAFkuAFi4AigAAAACgqKJdAAuABdQEAAAAAAS4AXLgAXFSFC4AFwALgAAAlwAUAEu/Y+h7s/sfEWvq75wPQ92f2PiLX1d86d6AO4O4H89/q2iZ59r/wBdLwrurB036p/e6/wpeK7Kir/jDzvV60xXMPju6sC7qwfYNZuLdL47urAu6sH2BmbpfJd1YF3Vg+uNbIzknrS+K7qwLurB9oZym6XxXdRd1YPtDOTdL4ruouqsH2rCTXJ5EvhuqsC6qwfcGyTyanw3VWBdVYPuDZJ5NT4bqrAuqsH3LBslPJqfBc14FzXg9ANkp5NTz7mvAua8HoBsk8mp59zXgXNeD0A2SeTU+C5rwLmvB6ImyTyannXNeBc14PRDZKeTU865rwLmvB6IbJPJqedc14FxXg9KNasz1ZSe6qeZcV4FxXg9MNsnl1PMuK8C4rweoG2Ty6nl3FeC3FeD0mUE9WTy6nl3FeBcV4PVE3Snl1PKuK8C4rweqG6Ty6nlXFeBcV4PVIN0nl1PLuK8C4rwesJvk8up5Pw9eBcV4PVDfJ5dTyrivAuK8HrIb5PLqeV8PaYHw9pg9inUqeRUnl1PG+HtMD4e0weyJ5NR5dTxvhrTA+HtMHsh5NR5dTx45NaYL8NaYcJexSySe5qPLqeL8NaYHw1ph6vaDyajy6ni/DWmHCT4a0w4S9oPJqPLqeL8NaYep8La4cJe0zSe6qPKqeF8La4ep8La4er3Q8qo8qp4Xwtrh6nwtrh6vdDyqjyqnhfC2uHCR7onl1HlVP0Doe7P7HxFr6u+cD0Pdn9j4i19XfPzPXB3B3A/BP1T+91/hS8V7X6p/e6/wpeK7Cn6Q8t1vuSANOMAAjWyYxrZIkgAgAAsakWElJAEQAAWEWAlQEZAAAAZAIgAAACxrVI1smZZlBQAAEZQxZQkpKgIgAAQEAyAZEVFAABlGpUjUrKACAAC0smNLJmQAAAAZsGbMqAIAAACD9A6Huz+x8Ra+rvnA9D3Z/Y+ItfV3zT3AdwdwPwT9U/vdf4UvFe1+qf3ur8KXiuwp+kPLdb7kgDTjAAI1smMa2SJIAIAALGpFjUkpIAiAACwiwEqAjIAAADIBEAAAAWNapGtWZZkABUUBGUMWUJKSoCIAAiwEAoDIAAqKgM41KkalZQAQAAWlkxpZMyAAAADNgzZlQBAAAAQfoHQ92f2PiLX1d84Hoe7P7HxFr6u+ae4DuCdQPwT9U/vdf4UvFdxz/zRYW3OlVdVVeXNjVkeZoPk+3Xw9j2PRp/qf/HmerRM9SXNDpNCcn26+Hsug+T7dfD2PadFx4S5odLoTk+3Xw9k0Jyfbr4ex7TomEubjWydHHMfJ8v/ADr4ezLQfJtuvh7JP8p0YNVUuaHS6D5Nt18PY0Hybbr4eye16Bpqc0Ol0Hybbr4exoPk23Xw9j2vQNNTmlh0mg+TbdfD2Z08xcmmP+dfD2Sr+V6BPRqcwOo0DybbtOHsaB5Nt2nD2Z9v2/5PHrcuOo0DybbtOHsaB5Nt2nD2Pb9v+Tx63LrDp9A8m27Th7MqeYOTbdpw9kn+Y7eOV8euXLjqtAcm27Th7GgOTbdpw9mfc9v+Txa3KjqtAcm27Th7GgOTbdpw9j3Pbfk8Wtyo6rQHJtu04exoDk23acPY9z235PErcuOqj9P8lyf87Th7L8v8l27Th7M+67b8nh9Ryg6v5f5Lt2nD2Pl/ku3acPY91235PD6jlB1fy/yXbtOHsfL/ACXbtOHse67b8nh9Rysa1dVT+nuSzP8AztOHsz+XuS/UtOHs45/nO2/K+B1ZckOt+XuS/UtOHsfL3JfqWnD2T3nbfk9f1nJjrPl7kv1LTh7Hy9yX6lpw9j3nbfk9f1nJModX8vcl+pacPZlH6d5Lk/8ApacPYq/nO2/J6/rS5MdZ8u8l+pacPY+XeS/UtOHsz73tvyeu6zkx1ny7yX6lpw9j5d5L9S04ex7ztvyeu6zkyHWfLvJfqWnD2WP07yXL/wDS04ex73tfyR/G9Zyg675c5L9S04ex8ucl+pacPZj3/aflfWdZyA6/5c5L9S04ex8ucl+pacPY9/2n5PWdZyKOv+XOS/UtOHsfLnJfqWnD2Pf9p+T1nWcnGpXWx+nOS5P/AKWnD2X5c5L9S04ezE//AEHaflfVddyI675c5L9S04ex8ucl+pacPZPf9p+T1XXciOu+XOS/UtOHsfLnJfqWnD2Pf9p+T1XXclSydZH6d5L9S04ey/LvJfqWnD2Sf5/tPyvqeu5Idb8u8l+pacPY+XeS/UtOHsnv+0/J6nruSHW/LvJfqWnD2Pl3kv1LTh7Hv+0/J6juPw5Jm6r5d5L9S04ezL5e5Lt2nD2Zn+f7T8r6juPw5MdZ8vcl27Th7Hy9yXbtOHsnv+1/J6juPw5MdZ8vcl27Th7Hy9yXbtOHse/7X8nqO4/Dkx1ny9yXbtOHsHvu1/J6juPw9Toe7P7HxFr6u+cD0Pdn9j4i19XfO9ekCdQTqB+Zc9fuFX4w896HPX7jP4w895/qf7l5/qf7kAcbAIoEa2bCNbNmr6rAAyoAAzp1MGdOpmr6NUshBxtqAAyoYM6Gavo1T9WYDjcgIoCKJcZRqUjUOJsAAABlRrZsKNbNxVR/blo+gAzZoAQGUMWUJU1CgMKAALTrRadZMf0sfVmA4by5QAvIAF5GUalSNSuOZckSABcAC6wqQMzKwoAtwQBVYsklYAEUAAAFsw6Huz+x8Ra+rvnA9D3Z/Y+ItfV3z6o4QnUE6gfmXPX7hV+MPPehz1+4VfjDz3n+p/uXn+p/uQBxuMAAjWzYRrZs1fVqABlQABnTqYM6dTNX0ap+rJFHG2AAMqGDOhmr6NU/VkKjjcgACoogzjUEahxNgAAAMqNbNhRrZuKr6uan6ADKgCAyhiyhKmoUBlQABY1osa0n6LH1ZgOFygAAAMo1BGpXHLcAAoACwEDMwsKAKgADJiySVgARQAAAVh0Pdn9j4i19XfOB6Huz+x8Ra+rvn1RwhOoJ1A/Muev3Gfxh573edeQTacumrOiP/GHxaNnbh5Xrd70Y6kxMunr7TqzXMxDzx6GjZ24NGTtw4/N6PLPh9Xh54+/Rk7cLo2duDzejyeH1eHnxrZvtjm2Y/wC8Lo+dqGJ73o8rHadXh8I+7R87UGj52oTzOlyvi9Xh8I+7R87UGj52oPM6XJ4vV4fCzp1Pr0fO1CxyGY/7QzPedLlY7Xq8PkV9fwU7UHwU7UM+V0uWvG6nD5B9fwU7UHwU7UHldLk8bqcPkZUPp+CnahY5JMf9oSe56fLVPb9S/wBGgfR8LO1CfCztQ4/I6fLWivhoG/4WdqF+Fnag8jp8mivh84+j4WdqD4WdqDyOnyaK+GqNQ3fD74LidqGN1HLemtpG64naguJ2oN1HJpraRuuN8FxvN1HJpra6NbNlFjk71u97jq6lMy5KaJYDO73l3vZzgwlgM7veXe8zgwlgyhbveuak1QsUyguaZqXhbSguaZpeC0osazNWIyMzVCxE3ZAONyAAAAMo1KxichlYtLUSyGOUylpW8MhjlMpaS8M4Vrz8hnpjKxVDYNeeZ5jJlDMYZ5nmMmUM2TVnrebiaJWKobBrvNxebkwlc4bBrvNxebjCTOGwa7zcGFS50r0Pdn9j4i19XfOB6Huz+x8Ra+rvn1Fxh3B3JP0HG84dbn7Q+V9XOHWp+0PlfNu6tuq/bSKD89lEULCSEixEIAAAAIqLZAAARQEVFhJAFQAAABAFQAAAUJRZRIABf6AABAWEAFsABYAEFAQAAAAAAAAAARFRqGZVAVAAAAuAAoAAAt0s29D3Z/Y+ItfV3zgeh7s/sfEWvq759IcwdwdyT9BxvOHW5+0PlfVzh1uftD5Xzbu/vVftoAfnUABJCRUAAAAEVFQAAEUBFRUkAVAAAAEAVABQAAlFlAABAABAWAAVAAABFUBAAAAAAAAAABEVGoZlUBQAAVAAAAAABYG3oe7P7HxFr6u+cD0Pdn9j4i19XfPpDlDuDuSfoON5w63P2h8r6ucOtz9ofK+bd396r9tAivzgCASEigAtgALAioWQAWyIqKWBFQJAFZABQARAFsACgABKLKAAFkAAEBYABUAAABVASwAJYACwAFgALAAthEVFiGZVAUAAAFQVAFQAABW3oe7P7HxFr6u+cD0Pdn9j4i19XfPpDlCdQTqBwfOkz8bP4w+LLL7OdOuz+MPieG7iI21ft+KqZuudOJnTig4cYZvK50mdOKBjBeSapM6UkXGC8rnSZ0oi2jgvLLOkzpQLRwXlc6UzpEIphJqlc6TOlBcY4S8rnSZ0oGMcF5XOkzpQMY4LyudJnSiLaOC8ss6TOliFo4XKWWdJnSgWjhLyudJnSiJaC8ss6TOliFoLyyzpM6UC0F5M6TLKC4wXlcsmWUFtCXlcsmWUExgvK5ZTLIixTBMyuWTLKC2hLyuWTLKBaC8rlkyygWgvK5ZMsoGMLlK5ZMsoGMGUrlkyygYwZSZ0mWUFxhLzyudJnSgYwXnlc6TOlAxgvPK5ZM6UC0F5XOkzpQLQXlcsmWUC0F5XOlM6QW0JMyZ0mWcUUtCXkzpMsoFoLyudIgWgvL0uh7s/sfEWvq75wPQ92f2PiLX1d89u7UJ1BOoHBc6ddn8YfE+3nTrs/jD4nh+v92r9vw1fUAcSAAJISCACgAAneqEJIAqAAAAAAIoAAAAAAAAAgSKAAgAAiosEgCoAAAAAAAAAAgCgAAAAAAAAAACCSKgqKioAAD0uh7s/sfEWvq75wPQ92f2PiLX1d89s7YJ1B3A4LnTrs/jD4n286ddn8YfE8P1/u1ft+Gr6gDiszcALF0kJCwIoti0gCFpEVFhJiUUGrJYALFgAsWAQsWUQLFlALFgELFlECxZQCxZAkCwAtiwAWLCKhCSAKAAAAAAAAAAIAt0AC4AFwALgAXAAuAIJIqC3SwAFgALPS6Huz+x8Ra+rvnA9D3Z/Y+ItfV3z2ztgnUE6gfn3O1rEcumMn/WHw30YPo546/P4w+B5LrdKmepLqa+rVlLffRhxL6MGgcWmlnbU330YF9GHFoDTSbam++jAvYwaFTVSbam69jBL2GoXVSbJbr2MC9jBpE1UmyW29jAvYakWOlSmyW69gvYaQ1UpnLdewXsYNIaqTZLdewXsYNIaqTOW69gvYaQ1UmyW69gvYwaQ1UmyW69gvYwaQ1UmyW69jAvYwaQ1UmyW69jAvYaQ1UmyW69jAvYwaQ1UmyW29jAvdzUGqk2S23u4vdzULqpM5bb3cXu5qDVSZy23u5L2MGtCOlSTXLbe7i93NQuqlnOW293F7uag1Umctt7uL3c1BqpM5bb3cXu5qDVSuctt7uL3c1BqpTOW293F7uag1Umctt5uS83NYuuFzlsvNxebmsMIM5bLzcXm5rDCDOWy83F5uawwgzlsvNxebmsMIM5bLzcXm5rDCDOWy83F5uawwhM5bLzcXm5rDCDOWy83F5uawwgzlsvNw1hhBnL2eh7s/sfEWvq75wPQ92f2PiLX1d89e7wJ1BOoH5xzx1+fxh8D7+eOvz+MPgeW6v8AuXS1/wCpAHGyAAAqAioAoAgqAigqAAAAAAAAAAAAAAAAAAAAAACKhBIAqAAAAAAAAAAAAAAAAAAAAAAAAAAAAAAPZ6Huz+x8Ra+rvnA9D3Z/Y+ItfV3z1jvgnUE6gfnHPHX5/GHwPv546/P4w+B5bq/7l0tf+pAHGyAAKggogCiAKgAAKgAAAAAAAAAAAAAAAAAAAAAAioQSAKgAAAAAAAAAAAAAAAAAAAAAAAAAAAAAD2eh7s/sfEWvq75wPQ92f2PiLX1d89Y74J1BOoH5xzx1+fxh8D0ed4/9+fxh8GSHletP/ZLpq4/5SxGWQyOO7NmIyyGRLlmIyyf5XJCXMWAzyQZIMjFgrLJBkgyMWAzyQZIMjFgM8kGSFyMWAzyQZIMjFgM8kGSDIxYDPJBkguYsBnkgyQZGLAZ5IMkGRiwGeSDJBkYsBnkgyQZGLAZ5IMkGRiwGeSFyQmRi1jZmwZsGRi1jZkgyQZGLWjbmwZsEVwY3ahtzYwM2MDODCWobc2MDNjAzgwlqG3NjAzYwM4MJahtzYwM2MDODCWobc2MDNjAzgwlqG3NjAzYwM4MJahuimDNg2QYS0jdmwZsGyDCWkbsyDNg2QYS0jdmwZsYJsg1y0jdmxgubGBshdctA3ZsYGbGBsg1y0jdmxguZTgbYNctA35lOBmU4G2DXLQN+ZTgZlOBtg1y0DfmU4Btg1y9Loe7P7HxFr6u+cD0Pdn9j4i19XfPYu6CdQTqB+dc79en8YfC+7nfr0/jD4Xk+t9yXT1/6kAcTIAod6p3qigCAAAAAAogCWAUUEVEAVCwqKiigJYRUUsIqKoRrVO9WbKAiCgAiopZYVFQsqghYACwqKhYACwoBYICBkVFQFRUAVFRYABQABUVJAAAAUAEeh0Pdn9j4i19XfOB6Huz+x8Ra+rvnuHaBOoJ1A/Oud+vz+MPhfdzv1+fxh8LyfW+5LqK/9SAOJgAA71TvVFAAAAAAAARQAAARQAAAAAAAAAACNaoqKAIAAIqKLCooKIoCCoAKAgoAABAQMioqAAAKiosAAoAAqKkgAAAAAD0Oh7s/sfEWvq75wPQ92f2PiLX1d89w7QJ1BOoH51zv1+fxh8L0udrGqeXTMR/1h8NxXg8h1upTsl1ddFWUtY2XFeBcV4OLbTyxhU1jZcV4FzXgbKOTCpr71Z3FeXUtxVgmyjlddTWNlxVgXFWBtp5NdTWNlxVgXFWBtp5NdXDWNlxVgXFWBtp5NdXDWNlxXgXFWBtp5NdXDWNlxVgXFWBtp5NdXDWNlxVgXFWBtp5NdXDWNtxVhxS4qw4pto5NdTWNlxVhxW4qw4m2jk11NQ23FWHFLirDibaOTXU1jbcVYcUuKsOJto5XXU1jbcVYcS4qw4m2jk11cNQ23FWHEuKsOJto5TXU1RrVsuKsC4qwNtHK66msbLirAuKsE2UcmuprGy4qwLirA2UcmupqVsuKsFuKsDbRyRRVw1o23NWBcVYG2jlcKuGsbLirAuKsDbRyYVcNaNtxVgXFWBto5MKuGtG24qwLirA20cmFXDUNtxVgXFWBto5MKuGsbLirAuasDbRyYVcNcDZFjVgtzVhxZ2Ucrrqa0bbmvAuasOJso5NdTWjbc1YcS5qw4myjk11NStlzVhxLmrDizsp5XXU1jZc1YFzVgbKeVwqaxsuasOJc1YcTZTyYVcNas7mrBbmrAnqUmFTWNlzVgXNWBspMKmsbLmrAuasDZSYVNY2XNWAbKeTCp9nQ92f2PiLX1d84Hoe7P7HxFr6u+e7diHcHcSOG5z65P4w+N9nOfXJ+0PjeA7n71X7fnn6gDgQAUFRUagASwAFgALAAWAAsAAACKAAAAAAAAAAAAAACgIqKlgBRUAAAAAAAAABQEUALAAAAKACAAoAIAAAAAIrZ0Pdn9j4i19XfOB6Huz+x8Ra+rvn0tsO4O4kcNzn1yfxh8b7Oc+uT9ofG8D3P3av2/PP1AHAgAAqKiwACgAAAAAIoAAJIAIoACoqACoAogCooCKgAAAoCKihAAigAAAAAAAAAKAigAAAAAAAAAAAAAAAAArZ0Pdn9j4i19XfOB6Huz+x8Ra+rvn0psO4O4kcNzn1yftD432c59cn8YfG8D3H3av2/PMf2APzlgALCooRAAKAAAAAAAAAIWAEUAAAAAAAAAAFQAAFRUAVFS5AAXWwAXLABcsAFywAXLABcsoCKAFwALgAXAAuABcAC4AFwALgAl1bOh7s/sfEWvq75wPQ92f2PiLX1d8+lth3B3EjkOX2VM8qmZjuh81xRhD7eXdZn7Q+Z8w7uurfV/f8A6/VT06bfRruKMILijCGwfn2Vcrrp4a7ijCC4owhsDZVya6eGu4owguKMIbAzq5XXTw13FGEFxRhDYGdXJrp4a7ijCC4owhsDOrk108NdxRhBcUYQ2BnVya6eGu4owguKMIbAzq5NdPDVc0YLcUYQ2BnVya6eGu4owhLmjCG0M6uU108NVzThBc04Q2hnVyYU8NVzThBc04Q2oZ1cmFPDXc04QXNOENqGdXJhTw1XVOBdU4NiGdXLOFPDC6pwLqnBmGdXJhTwwuqcC6pwZhnVyYU8MLqnAuqcGxDOrkwp4YXVOBdU4Mwzq5MKeGF1TgXVODYhnVyYU8MLqnBLqnBsFzq5TCnhhdU4F1TgzDKTGGF1TgXVODMMpMYYXVOBdU4MwykxhhdU4F1TgzDKTGGF3TgXVODMMpMYYXVOCXVODYGUmMMLunAu6cGYZSYwwu6cC7pwZhnJjDC7pwLunBmGcmMNc2dOCXdODORcpTGGF3TgXdODMMpMYYXdOBd04Mwykxhhd04F3GDMMpMYYXcYF3GDMMpMYYXcYF3GDMMpMYYXcYDMXKTGGroe7P7HxFr6u+cD0Pdn9j4i19XfPqjgDuDuJHKcu6zP2h8z6eXdZn7Q+Z8u7v79f7l+2n6AD8ygAAAAAAAAAAAAAAACKggKgKioDEBWQAAAAAAAFRQEAVJAAAAAAAAAAAAAAAAAAYyEioAKAACKCAAAAIKA1dD3Z/Y+ItfV3zgeh7s/sfEWvq759WfnDuDuJHKcu6zP2h8z6eXdZn7Q+Z8u7v79f7ftp+gA/MoAAAAAAAAAAAAAAAACCKIAqKgIgKyKgCoAKioAqAKCAAKkgAAAAAAAAAAAAAAAAAMZCRUAFAAAAQAAAAABq6Huz+x8Ra+rvnA9D3Z/Y+ItfV3z6s/OHcHcSOO5wtZjlcx/jVD5L6rCG/nLrc/aHyPm/dUU7qv2udTZfVYQX1WENY4MKTOpsvqsIL6rCGsMKTOpsvqsIL6rc1oYUmdTbfVbi+q3NQYUpsqbb6rcX1W5qDCk2VNt9VuL6rc1BhSbKm2+q3F9VuagwpNlTbfVbi+q3NQYUmyptvqtyX1W5rDCk2VNl9VuL6rc1hhSZ1Nl9VuL6rc1hhSZ1Nl9VuL6rc1hhSZ1Nl7O4vZ3NYYUmdTO9nct7O5rDCkzqbL2dxezuawwpM6mc2s7i+q3NcjUUUmdTZfVbi+qwhrDXSbKmy9q3F7Vuaw10pnU2XtW4vZ3NZBNFK51Nl7O4vZ3MBnCkzlnezuL2dzAMKTOWd7O4vZ3MAwpM5Z3s7i9ncwDCkzlnezuL2dzAMKTOWd7O4vZ3MAwpM5Z3s7i9ncwDCkzlnezuL2dzAMKTOpnezuL2dzAMKTOWd5O4vJ3MBcaUzqZ3k7i8ncwDGkzqZ3k7i8ncwDGkzqZ3k7i8ncwDGDOpneTuLydzAMYMpZ3k7i8ncwDGDKWd5O4awxgyls6Huz+x8Ra+rvnA9D3Z/Y+ItfV3z6codwdxI4rnLrc/aHyPr5y65P2h8j513X3qv2yAOAAAEVAABAAAAAAAAAAAAAAAAAAAAAAEkJFgAFQAAICElVAQAAAAAAAAAAAAAAAAAAAAAAAAAAAAAAZ9D3Z/Y+ItfV3zgeh7s/sfEWvq759MbDuDuJHFc5dbn7Q+R9fOXW5+0PkfOu6+9V+2QBwAAAioFwAsgAWAAsABYACwAFgALAAWAAsABYACwAFhJCRYABUAACAhJVQEsABYACwAFi4AWLgBYuAFj+wAsf2AFj+wAsf2AFltIAWT+wAstpACxaQAsWkALFpZ9D3Z/Y+ItfV3zgeh7s/sfEWvq759MaDuDuJHF84xPxc/wCO6HyZJwffzhH/ALU/aHzZIfNe6r/76v25I6cWack4GScG7JCZIfn2Sa4ask4GScG3JBkg2Sa4ask4Jmzg3xEZVyRgbJNUPnzZwM2cH0ZIwMkYJtk1Q+fNnAzZwfRkjAyRgbZNUPnzZwM2cH0ZIwMkYG2TVD582cDNnB9OSMDJGBtldMPmzZwM2cH05IwMkYLtNMPmzZwM2cH05IwIiME2ykdJ82bVhJm1YS+vJGBkjA2yuh8mbVhJm1YS+vJGBkjA2yaHyZtWEmbVhL68kYGSMDbJpfJm1YSZtWEvryRgZIwg2yuh8mbVhJm1YS+vJGEGSMDbJofJm1YSZtWEvryRgZIwNsmh8mZVhKZlWEvtyRgZIwg3Gh8WZVhJmVYS+3JGEGSMIN0njvizKsJMyrCX25sYQZIwg3SeO+LMqwlYoqwl9mSMIWIjCDdJHbvizKsJMyrZl92bGEGbGEG6V8d8OZVsyZlWEvuzYwgzYwg3SeO+HMqwkzKsJfdmxhBmxhCbpXx45fDmVbMmZVsy+/NjCDNjCF3SeO+DMq2ZMyrZl9+bGEGbGEJuk8d8GZVsyZlWzL782MIM2MIN0njvhzK9mS7r2ZehFNOEGbThBuk8WHn3dezJd17MvRzacITNpwg3SeLDz7uvZku69mXoZtOEGbThBulfFh593XsyXdezL0qaacIXNpwhd0rHaQ8y7r2ZLuvZl6ebThBm04QbpXxIeZd17Ml3Xsy9PNpwgzacIN0p4kcvMu69mS7r2Zenm04QzzadmPI3SviQ8m7r2ZLuvZl62bTsx5GbTsx5G6TxIeTd17Ml3Xsy9bNp2Y8jNp2Y8jdJ4kPJu69mR6ubTsx5Buk8SHl9D3Z/Y+ItfV3zgeh7s/sfEWvq759TfkDuDuSfoOQ5w61P2h8r6ucOtT9ofK+Zd39+v9v0R9AB+dQADvZMY1skkQUQQUBFgIFBUFFQQUgIFhkCI0oICgAAAAAAAQqQpZQBC4AFxYRYFhQFUAAICEFAVbgCFwAGUalSFRbgAoAC0smNLJWoAAAAGTFktlgALKAFgAUeT0Pdn9j4i19XfOB6Huz+x8Ra+rvn1l04dwdyT9ByHOHWp+0PlfVzh1qftD5XzLu/v1/t+iPoAPzqAARrZMY1qkigIqAApAQAKiKAALCLAsMkVEUABQAABQAAACFSFFAEAAEZQiwLCgCgABAAoAoAAADKAhUUAFQUBaWTGlkrUAAIqAKyYslWAAUAAAB5PQ92f2PiLX1d84Hoe7P7HxFr6u+fWnTh3ASOQ5w61P2h8robfme+tZry06sZa9Bb4/tLwvcfw/dV9WqqI/pzRVFnhD3dBb4/tJoLfH9pcPpO7+K5Q8Ie7oLfH9pNBb4/tJ6TvPiZQ8KNavc0Fvj+0roP+VPnJ6TvPiZQ8Ie7oP8AlT/aTQf8qf7Sno+8+JnDwh7ug/5U/wBpNB/yp/tJ6PvPiZw8JYe5oP8AlT/aTQf8qf7Sej7z4mcPDHuaD/lT5yaD/lT5yej7z4rnDw1e3oP+VPnJoP8AlT5yej7z4mcPEIe3oP8AlT5yscyb6fOT0fefEiuHij29C76fOU0Jvp85T0fefFrZS8Ue1oTfT5yuhd9PnJ6PvPibKXiD29C76fOU0Jvp85PR958TZS8Ue3oXfT5yaF30+cno+8+JspeIPb0Lvp85NC76fOT0fefE2UvEHt6F30+cmhd9PnJ6PvPibKXiK9rQu+nzk0Lvp85T0fefFdtLxR7Whd9PnJoXfT5yej7z4m2l4o9rQu+n+0mhd9PnJ6PvPibaXirD2dC76fOTQ2+nzk9H3nxWOrS8cezob7f2k0Nvp85PR958TbS8YezobfT5yaG30+cno+8+JtpeMQ9nQ32/tJobfT5yej7z4m2l449jQ++POTQ++nzk9H3nxXdQ8cexoffT5yaH3x5yej7z4m6h449jQ++nzk0Pvjzk9H3nxN1DyY1K9bRG+nzk0Rvp85T0XefFd1HLyR62iN9PnJojfT5yei7z4m6h5I9bRG+nzk0Rvp85PRd58V3UPKpZPUjmnJs+cror7ecr6PvPisdeh5Q9XRP4+cmifx85PR958TfQ8oeron8fOTRP4+cno+8+JvoeUyenon8fOTRe+POT0fefFd9HLzB6ei98ecmi98ecr6PvPivkUPMHp6L3x5yaL+3nJ6PvPieRQ8wenov7ech6PvPieRQ5boe7P7HxFr6u+cD0Pdn9j4i19XfPoTrQABFAQULCChYQUBBQEFAQUBBQEFAQVABQEFAQVAAUEFAQAAUBBQEFAQUBBQEFAQUAAAAAAAAAAAAAAATKoCZTKoCCgIKAgoCCgOB6Huz+x8Ra+rvgAAAAAAAAAAAAAAAAAAAAAAAAAAAAAAAAAAAAAAAAAAAAAAAAAAAAAAAAAAAAAAAAAAAAAAAAAAB//9k=;" vertex="1" parent="1">
          <mxGeometry x="728.19" y="600" width="76" height="76" as="geometry" />
        </mxCell>
        <mxCell id="IUG1O-Y_2TdF6H-YGGcq-57" value="" style="shape=image;verticalLabelPosition=bottom;labelBackgroundColor=default;verticalAlign=top;aspect=fixed;imageAspect=0;image=data:image/jpeg,/9j/4AAQSkZJRgABAQEAYABgAAD//gA+Q1JFQVRPUjogZ2QtanBlZyB2MS4wICh1c2luZyBJSkcgSlBFRyB2NjIpLCBkZWZhdWx0IHF1YWxpdHkK/9sAQwAIBgYHBgUIBwcHCQkICgwUDQwLCwwZEhMPFB0aHx4dGhwcICQuJyAiLCMcHCg3KSwwMTQ0NB8nOT04MjwuMzQy/9sAQwEJCQkMCwwYDQ0YMiEcITIyMjIyMjIyMjIyMjIyMjIyMjIyMjIyMjIyMjIyMjIyMjIyMjIyMjIyMjIyMjIyMjIy/8AAEQgCWAJYAwEiAAIRAQMRAf/EABwAAQEAAgMBAQAAAAAAAAAAAAABAgQDBQYHCP/EADQQAQABAQQIBQQBBQEBAQAAAAABAhESE1EDFBUxUmGRoQQFcbHRNDVBcvAGFiGBskIyYv/EABsBAQEBAAMBAQAAAAAAAAAAAAABAgMGBwUE/8QAKREBAAEDAwMEAwEBAQEAAAAAAAECERMEEhUDFFExM1JhBSFxMiJBI//aAAwDAQACEQMRAD8A86qK+w6+IoCCgItgoJYWKBdLCxQLpYWKfkLlhYoJdjYWKBcsSxkiIWFigl0sLFEW8pYWKBeUuwt2FgC8pdguwoXS8pdguwoF5S7BdhVEmZY3YLsMguXljdguwyC5eWN2C7DIgul5S5BchkFzdLG5BchkFzdLG5BchkFzdLG5BchkFzdLG5BchkFzdLG5BchkBuljFELhwyhUuzNUsMODDhmFzdLDDgw4Zhc3Sww4XCj+QyhUum6WGFH8gwo/kORC8m6WGFH8gwo/kORC8m6WGFH8gwqf5DkIJmU3VMMKn+QYVP8AIcgm6TfV5ceFT/IMKn+Q5A3Sm+ry48Kn+Q7v+lNHTHnugn/9U/8AUOod1/S33zQ/tT/1DNUzZy9Guqa4fe43KkblfOdkj0ABX5eVFfYdfAEAABUUAAQAAPyH5BQARQEEVAUAZAEUABYCFARREQUURQCQBEAAABFAAAAAAAAAAABYVIVJZkAEAAIZMYZAACAABAQkigIzIAA7r+lfvmh/an/qHSu6/pX75of2p/6hmr0cnR9yH3uNypG5Xz3Z4ABX5eVFfXdfAAAAFRRAAuABcD8h+S4oAlwALiKAAIgAAACwqQqAAAAAAJIAqAAACIoAAAAAAAACgACwqQqSzIAiAADJiyAAEAACAhJSVARAAB3X9LffND+1P/UOld1/S33zQ/tT/wBQzV6OXo+5D73G5Ujcr57s0AAr8y6rpcvc1XS5e7vYV+nu6nUe6qdDquly9zVdLl2l3wnd1HdVOh1XS5dpNV0uXaXfB3dR3VTodV0uXaWUeE0uXaXeOSNyTq6juann9U0uXaTVNLl2l6ATvKjuann9U0uXaTVNLl2l6AO8qO5qef1TS5dpI8Hpbd3aXoFp3p3lS9zU8/qem4fc1PTcPaXoxnvqvC9xU85qem4e0mp6bh7S9GHfV+DPLzmp6bh7Sanpsu0vRkbzvq/Bnl53UtNl7mpabL3ekE76vwmaXm9S02Xualpsvd6QO+r8GaXm9S02Xualpsvd6QO+r8GWXnI8Fpsu0rqem4fd6OFTv6/C5Zeb1PTcPuanpsvd6QTvq/Bll5vUtNw9pNT03D7vSB31fgyy83qWm4e0mpabLtL0jJJ19fgyy8zqWm4e0mpabh7S9MHf1+FyS8zqWm4e0mpabh7S9MHf1+DJLzOpabh7SseB03D2l6VlSk/kK/Bkl5nUdPw9pNR0/D2l6gZ5CvwZJeX1HT8PaTUdPw9peoF5CvwZJeX1HT8PaTUdNw9peoDkK/Bkl5fUdPw9pNQ0/D2l6kZ5Gvwu+XltR0/D2k1DT8PaXqQ5Gvwm+XltQ0/D2k1DT8PaXqQ5Gvwb3l48Dp+HtK6jp+HtL08b2SclX4Nzy2o6fh7Sajp+HtL1InJV+Dc8tqOn4e0mo6fh7S9SHJV+Fu8tHgNPb/8APaWWo6fh7T8PURvZJP5OvwPK6jp+HtPwajp+HtPw9UJydfgeV1HT8Pafg1HT8Pafh6oOTr8Dyuo6fh7T8LHgNPw9p+HqWVKT+Tr8Dymoafh7Sahp+HtPw9YJylfhbPJ6hp+HtPwahp+HtPw9YHKV+Czyeoafh7T8O5/pjwemo860NU0/4vU/ieKHZuw8l+5aP1j3hafyVdU2s5OlT/3D6fG5kxjcyfqdlgAB8ChUhWXRwBFAAGcbmDONzMigIoAAtO9Fp3pPoMwHG0AAEbwjeDIBloAVAAVYVIVkAAAAGTFkzKwAIoAAypYsqUn0GQDMKAAAAoDLQAAABDJI3qzIAIoAELG9kxjeyZqaAEAABlSxZUpKwoDLQAA7DyX7lo/WPeHXuw8l+5aP1j3hvp/6hydH/cPp8bmTGNzJ9x2MAB8ChUhWXRwBFAEBnG5gzjckigIoAAtO9Fp3pPoMwHG0AAEbwjeDIBloAVAAVYVIVkAAAAGTFkzKwAIoAAypYsqUn0GQDMKAAAAoDLQAAABG9kxjeyZkAEUACFjeyYxvZM1NACAAAypYsqUlYUBloAAdh5L9y0frHvDr3YeS/ctH6x7w30/9Q5Oj/uH0+NzJjG5k+47GAA+BQr1Uf094Xj0nb4X+3vC8ek7fD4XPaX7dc4jUfTyg9X/b3hePSdvg/t7wvHpO3wnPaX7OI1H08oPV/wBveF49J2+D+3vC8ek7fBz2l+ziNR9PKM43PUf294Xj0nb4ZbA8Nx6Tt8Mz+e0v2sfiNR9PLD1OwPDcek7fC7A8Nx6Tt8Jz2l+14jUfTyo9TsDw3HpO3wbA8Nx6Tt8HPaX7OI1H08stO96jYHhuPSdvhY8h8NH/AL0nb4J/O6X7OI1H08yPT7C8Nx19vg2F4bjr7fDPN6b7XidR9PMD0+wvDcdfb4NheG46+3wc5pvs4nUfTzBG96fYXhuOvt8GwvDcdfb4TnNN9nEaj6eaHpth+G46+3wbD8Nx19vhOb032vE6j6eZHpth+G46+3wbD8Nx19vg5zTfZxGo+nmR6bYfhuOvt8Gw/Dcdfb4Oc032vEaj6eahXpNh+G46+3wbE8Px19vhOb032cT1/p5sek2J4fjr7fBsTw/HX2+Dm9N9nE9f6ebHpNieH46+3wbE8Px19vg5vTfZxPX+nm2T0WxPD8dfb4XYvh+Ovt8JP5rTfZxXXecHo9i+H46+3wbF8Px19vhOa0/2cV13nB6PYvh+Ovt8GxfD8dfb4Oa032cV13nGVL0OxfD8dfb4NjeH46+3wnM6efK8X13QD0GxtBxV9jY2g4q+ycxp/s4vrPPj0GxtBxV9jY2g46+3wczp/s4vrPPj0GxtBxV9jY2g46+3wczp/s4vrOgHf7H0HHX2Nj6Djr7JzGn+14zrOgHf7H0HHX2Nj6Djr7HMaf7OM6zoB3+x9Bx19jY+g46+xzGn+zjOs6CN7J3uyNBH/qvsuydBxV9k5fT/AGcZ1nQjvdk6Dir7LsnQcVfZOW6H2vGdZ0I73ZOg4q+xsnQcVfZeW6H2cb1nRxvZO62ToI/9V9l2VoeKrszP5XoT6XON6zpB3eytDxVdjZWh4quycp0Tjus6Qd3srQ8VXY2VoeKrscp0Tjus6RlS7nZWh4quxHleh4quxP5TorH47rOnHc7M0PFV2NmaHiq7M8n0WuP6zph3OzNDxVdjZmh4quy8n0Tj+s6Z2Hkv3LR+se8NnZmh4quzc8r8v0Wj8dRVFVVtsZZw5Oj+S6NXUimP/WunoOrTVEy91G5kn4V2uH1gBR4RUV5XLmAEAABUVJWABLNfoALH6AFP0AB+gAP0AAAAAAAAAAAAAAABcAC4AFwAABUAAAAAAAAAASQkWEkAEAAJRZRQAEAAAEAAAABteX/V0ese8NVteX/V0ese8P06T36P6kw9h+FI3D0qPRxgCjwioryuXMAIAACoqNQACgAAAAAAAAAAAAAAAAAAAAAAAAAAAAAgAAAoAAAAAAAAkhIsJIAIAASiygAAgAAAAAAAA2vL/q6PWPeGq2vL/q6PWPeH6dJ79H9JewjcqRuV6VHo4gBR4RXDi2fgxuTy7HU3kpcw4sbkY3Ix1GSlyjixuRjcjHUZKXKrhxuRj8kxVSsdWmPVzDhx+Rj8jFWZqPLmHDj8jH5GKtc1HlzDhx+Rj8jFWZqPLmHDj8jH5GKszUeXMOHH5GPyMVaZqPLmHDj8jH5GKvwZqHMODH5GPykw1+DNR5c44MflJj8jDX4M1Hlzjgx+Rj8jDX4M1Hlzjgx+Rj8pMNfgzUeXOODH5GPyMNfgzUeXOODH5GPyMNfgzUeXOODH5SmscpXDWZqPLYGvrHKTWOUmGszUeWwNfWOUmscpMNZmo8tga+scpNY5SYa0zUeWwNfWOUmscpMNZmo8tga+scpNY5SYazNR5bA19Y5Saxykw1majy2Br6xyk1jlJhrM1HlsDX1jlJrHKTDWZqPLYGvrHKTWOUrhrM1DnkcGscpNY5LHRrTNR5c44NY5Gsclw1+DNR5c44NY5GscjDX4TNQ55RwT4jlKaxykwVmahsDX1jlJrHKTBWZqGwNfWOUmscpMFZmobA19Y5SaxykwVpmobA19Y5SazykwV+DPQ2Br6xyk1jkYK/BnobDa8v8Aq6PWPeHW6xybnlunveNoiz8x7w/RpejVHWpmfJlpn0e2jcqRuV6LHoACj53KLKPOIcCgKAACKggAWQALAAWAAsABYCQlRAGgARAAAAAAABRJ3Is7kEmQBS4AFwAS4AFwALgAXAAuABcAFAFZAFAAEncizuQQAUAAACAAVAABu+V/XUese8NJueV/XUese8ObT+7T/WqfV72NypG5XeH7YAAfO5RZR5xDgUBQAARUEkAVAAAAAAAABJVJAAaABEAAAAAAAFEncjKdzFUkAEAAAAAAAAAAAAAAAFIAFQAAABJ3IsoIAKAAAAgAoAKDd8r+uo9Y94aTc8r+uo9Y94c2n92n+tU+r3v4VPwru79oAD53KLKPOIcEqAoAAIqCSAKgAAAAAAAASJIADSAAAAAAAAAAE7mKzuRUkAEAFABAAAAUAAAAAAAAABJAFQAFSdyLKLCAAAAACwgAoAANzyv66j1j3hptzyv66j1j3hzaf3af6tM/t738Kxhk7tD9wAo+YWyWyg6RaHyrytslsopaC8lslsgWhLyWylsqxLQXlbZLZBdsFy2S2UF2wXW2S2UJNsH7W9JbLFVtCXlb0lssVLQl5W2S9KIloW8srZS2RC0F1tlbZRFtBdlbKWyIWguytlLZELQXZWyWyxUtBctlbZQLQXLZLZQXbCTJbOZbIFoC2S2QW0BbJbIJaAtktkC0BbJbILaAtktkC0CWyWyBaEuWyWyBaC5bJbIFoLlslsgWguWyWyBaC5bJbIFoLlslspIsRCLbJbKC2gW2S2UC0C2yWygWgutslsoBdbZLZQC62y3vKJnaGj9Y94aDe8o+4Uese8OToxfqQ3RP/UPokMkjcrtcPrgCj5eA6S+SoAAADFlLEFAagBFBCQAAGQQBUVAUAAAAAAAARQAFEAUABAAAAAAAAACVEAAAEAAAAAAAAJRZRQAEAAAAAAAAG/5R9w0frHvDQb/lH3DR+se8OXoe5DdH+ofRI3Kkbldqh9gAUfLwHSXybCopcAC4IrEgUBRFRVuISEgADIAACAoAAAAAAAAAACiAEIAKAAAAAAAAAAIAoAAAAAAAAACEosooACAAAAoAAAA3/KPuGj9Y94aDe8o+4aP1j3hy9D3Iao/1D6LG5UjcrtUPsACj5ZicjE5OMdQ2Q+HvlyYnIxOTjDZBvlyYnIxOTjDZBulyYnIxOTjDZBulyYnIxOTjDZBulyYkZGJycYbIN0uS/GSX+TANsG6Wd8vsBdsG6Wd+C/DANsG6Wd8vwwDbBulnfL8MA2wbpZ3y/DANsG6Wd8vwwDbBvlyX4LzjhU2wu6Wd6C9DANsG6Wd4vQwDbBulneS8xDbBeWV4vMQ2wl5ZXi8xDbBeWV4vMQ2wXlleLzENsF5ZXi8xDbBeWV4vMQtBdlaWoFi62lqBYutpagWLraWoFi62lqBYutpagWWJW0RSVAEQAAAgUFAQUBG/5R9w0frHvDRb3lH3DR+se8OXoe5DVH+ofRI3Kkbldqh9gAUfKAHU3wQAAAAAAAAAAAAAAAAAAAAAAAhCFRUaABQAAAAAAAAAAAAAABBQAAAAAAAAAAAgVFSVAEAAAgIFUBAAAb3lH3DR+se8NFveUfcNH6x7w5eh7kNUf6h9EjcqRuV2uH2ABR8oAdTfBAAAAAAAAAAAAAAAAAAAAAAACAVFRoAAAAAAAAAQAAAFABAABQAAAsABYACwAFgAUVFSQAQAACAgVQEAABveUfcNH6x7w0W95R9w0frHvDl6HuQ1R/qH0SNypG5Xa4fYAFHygc9ynIuU5OnZYfFxy4Bz3Kci5TkZYMcuAc9ynIuU5GWDHLgHPcjJlcjJMsLilrDZuUlynJM0GKWsNm5TkXKcjNBilrDZuU5FynIzQYpaw2rlORcpM0LhlqjauUlykzQYZao2rlJcpyM8GGWqNvDpyS5TkmeDDLVG3h05JcpyM8GGWqNvDpyS5TkvcQYZaqtq5TkXKckzwuKWqNq5TkXKcjNBilqjauU5FynIzQYpao2rlORcpyJ68QYpao2rlORcpyTuIMMtUbVynIuU5HcQuGWqNq5TksUU5HcQYZag3MOnIw6cjuIMMtMbeHTkuHTkncUmGWmNzDpyTDpyO4pMMtUbWHTkuHTkdxSsdGWoNrDpyXDpyO4pMMtQbWHTkuHTkdxBilqDbw6cjDpyTuIWOjMtQbeHTkYdOR3MGCWoNvDpyMOnI7iDBLUVt4dORh05J3EGCWoNvDpyMOnI7iDDLUG3h05GHTkdxBhlqLDaw6ciKKcjuIMMtUbdynIuU5J3ELhlqDbuU5FynI7iDDLUb3lH3DR+se8MLlOTc8ropjxtH+PzHvDm0/XierT/AFaelMVQ93G5UjcruUPpACj5iA6O+WACgADJiySSABlQAAAFAZaAAABVAAAC4AAAAAhcAC4AStwBC4AAsIsFxQEuoAfsuAH7LgB+y4AfsAC8lxUVmZagALyABeQALyABeVAC8gQEJeRQC8gAXkG55Z9bR6x7w0255Z9bR6x7w5tP7tP9Wn1e5jcqRuV3yH6QBR8xAdHfLAAAAGTFkkrAAyoAAACgMtACgAgoAoAAAAAAAAAAAkgAigACwiwgoAoAAAAAAAAAIKisy3AAgAAAAAAAAEBAqgIAADc8s+to9Y94abc8s+to9Y94c+m92n+rT6vcxuVI3K75D9IAo+YjkwasjBqydEyU+XzsdTjHJg1ZGDVkZKfK46nGOTBqyMGrIyU+THU42TLBqyZYNWTM9SnyR06nGOTBqyMGrJMlK7KnGOTBqyMGrIyUmypxjkwasjBqyMlJjqYDkwasjBryTJSuypxjkwasjBqyN9Pk2VOMcmDVkYNWRvp8rsqYDkwasjBqyZyUrjqcY5MGrIwasjJT5MdTjHJg1ZGDVkuSnyY6nGOTBqyMGrJMlPkx1OMcmDVkYNWS5KfJjqcY5MGrIwaskyU+THU4xyYNWRgV5JPVp8mOpxjkwK8jAryTJT5XHU4xyYNeRgV5GSnyY6nGsM8GvJY0NWRkp8mOpgOTBqyMGrIyU+THU4xyYNWRg1ZGSnyuOpxjkwasjBqyMlJjqcY5MGrIwasjJSY6nGOTBqyMGrIyU+THU4xyYNWRg1ZGSnyY6nGrONDVkuDVkzPUp8rHTqcY5MGrIwaskyUrjqcY5MGrIwasjJSY6nGOTBqyMCrIyU+THV4cY5cCrJMCrIy0+THX4cY5cCrIwKsjLT5MdfhxEOXAqyI0FeSZaPKx06/DjHLq9eRq9eRlo8rir8OIcur15Gr15GWjyYq/Dibnln1tHrHvDg1evJt+W6GqnxlEzH5j3hz6bqUz1qf3/wCrHTqifR7WNypCu/x6OUAUfPVRXmksACAAAqKSoAgAAH5AVQGQAUAAUBloAAAAhUhQAEUAAVFQABQAAAIAEaAAuABcAC4AFwAFhUhUUASwAAKio1AAKAAMo3MWUbkmFhQGWgABs+A+qp9Y94azZ8B9VT6x7w/To/fo/qVej1kfhSB6fHo/IAKPnqorzOWAAAABUUUAAAQAPyKoDIAKAAKAy0AAAAQqQoACKAAKigAIoAAAAAiyAAAAAAAAAKQsKkKy0AAAEgqKy1AAKAAMo3MWUbkkhQGWwABs+A+qp9Y94azZ8B9VT6x7w/TpPfo/qVej1kKkK9Ph+QAUfPVRXmbAAAAAqKKAIAAB+QFUBAAAABQGWgAAACFRUAAUAAVFAAQAAABQBFAFLACFgALAAWABVhUhUUAAAQFRUWAAaAAGUbmLKNySsKAy0AANnwH1VPrHvDWbPgPqqfWPeH6dJ79H9Sr0eshU/CvT6fR+QAUeDuRkXIZjyvdLn2wxuQXIZBulNsMbkFyGQbpNsMbkFyGQbpNsMbkFyGQXldsMbkFyGQXk2wxuQXIZBeTbDG5BchkF5NsMbkFyGQXk2wxuQXYZBeTbDC7C3YULzKWhjdhbsKCWhLsF2FAsxsLFAslhYoolhYoFksFQhABQAAAEAAAAEVFEUBLoKBcAC6f5W2UkC62yWygWLytslsoFoLyWyXpJRYiEmZW9JelBdsJulb0l6UDbBulb0l+rNENsG6WV+rMv1ZsRdsG+WV+rMv1ZsQ2wb6mV+rNt+XV1T4uj/P5j3hpNvy36yj1j3h+jS0xmp/pvqe0/Ckbh6LHoACjwqg8pfoAAAFAAAAAAAAAAAAAAEAWGQAAAEAAAEAAEVFSQAAAABUAAAAEVPwqAAAAAAJISKgAAACCyiwkgCoAAIqAAKgAoNvy36yj1j3hqNvy36yj1j3hz6X3qf6PaxuCNw9Ej0aAFHhhFeUv0ABcAAAAAAAAAAAAAAAAQBYZAFuABcQAABQAARUEkAEsABYAWEkAAAARU/AgIqgAAACSEipIAAACSEiwkgCoAAIqAAKgAoNvy36yj1j3hqNvy76yj1j3hz6X3qf6r2sbhFeiR6KAKPA4k8jEnk41eY7YTdLPEnkYk8mAbYN0s8SeRiTyYBtg3SzxJ5F+WCm2F3SyvyX5Yhtg3SyvyX5Yhtg3SyvyX5Yhtg3SyvyX5Yhtg3SyvyX5Yhtg3SyvyX5YibYN0s7xeliJaDdLK8XpYhtg3SyvF6WIbYXdK3pW1jCloLytpagloW8raWoFoLytoiheQALgAXCAjeKoCAAAioIWFig0lhYoXEsLFC4lhdWFLrZjdLrIS8paGN0usgvJaGN1bkKpeVtDG5BchkF5NsMbkFyGQXk2wxuQXIZEEzJthjhxzMOObMTdK7YYYcczDhmG6TbDDDjm2vL6IjxdPrHvDgbXl/wBXT6x7w/TpKpzUf1JpiIeuhU/CvSo9HEAKPnwDzNgAAAAVFFAAAAAAAAAAAEVQGQAUABSFSFZAAUAAVFAARQAAjeEbwUBFAAEVBFAGgBAACBUUUAQAAFRRQAAAAgIJWFARQABteX/V0+se8NVteX/V0+se8P0aX3qf7CVej134VPwr0yPRwACj58A8zszaQAsWkALFpFRSx+wAP2AC2kAC0gAlpAA/YALaVAZP2AB+wABUhUssACKAAKiigCAAARvCN4KAKAAIqIigDQAAAAqKi3AAAAFRUlQAuABcCAhJlYUBFAAG15f9XT6x7w1W15f9XT6x7w/Rpfep/sJV6PXKfgemx6OAAUeAw6+GTDr4Zdrdp4Y6Ldp4Y6PLMsv19pDqcOvhkw6+GXbXaeGOhdp4Y6GWTtIdTh18M9DDr4Z6O2uU8MdC5Twx0MsnaQ6nDr4ZXDr4Zdpcp4Y6JdpygnqydpDrMOvhkw6+GXZ3acoLtOUJlk7WHWYdfDJh18Muzu05QXacoXLJ2sOsw6+GTDr4ZdndpygmmnKEyydrDrMOvhkw6+GXZ3acoLlOUGWTtYdZh18MmHXwy7O7TlBdpygyydrDrMOvhkw6+GXZ3acoS7TlBlk7WHXXKuGS5Xwy7G7TlBdpyhMsnaw665VwyXK+GXY3acoLtOUGWTtYddcq4ZLlXDLsbtOUF2nKDLJ20OuuVcMlyrhl2F2nKEu05QZDt2hcq4ZLlXDLsLtOUF2nKDIdu6+5VwyXKuGXYXacoLtOUGQ7d19yrhlblWUt67GUF2MoSeoYIaNyrKS7VlLeuxlBdjKDIYIaNyrKS7VlLeuxlBdjKDIYIaNyrhku1W7pb12MoYzTGUJkMMNS7OUl2cpbVkZFkZG8ww1bs5SXZyltWRkWRkbzFDVuzlJdnKW1ZGRZGRvMLVu1ZSXaspbl2Mi7GRvMUNO7VlJdqyluXYyLsZG9cUNO7VlJdqyluXYyLsZG8xQ1LtWUl2rKW3djIsjJN5ihqXaspLtWUtuyMi7GRvMUNS7VlJdqylt2RkWRkbzFDUu1ZSt2rKW1ZGS3YyNyx0oal2rKS7VlLbuxkXYyNxihqXaspLtWUtu7GRZGRuMUNS7VlK3ZyltWRkXYyNy4oat2cpLs5S2rIyLsZG4xQ1bs5SXZyltWRkWRkbjHDVuzlLa8BTOt0/4nfHvBdjJseCiNZp/x+Y936NJV/wDej+pV0/09N+BIV6fHo/EAKPLgPJX2AAAABFQQAABFFSVRJABEAAAAQBQAAABABAAABBABAAAABjO9kxneJKACACgADIBFAAAAAAAEuABcFRS4AFwALgAXAAuABcHP4P6mn/Xu4HP4P6mn1j3fp0fv0f1mr0elhUhXqUPnACjy4DyV9gAAAARUAAEAAEVAABABAABAAABAAEAAAAAElAAAEkACAYzvZMZVJQAQAAABkAAAKAAAJIAAAAKigACgAAAAAAADn8H9TT/r3cDn8H9TT/r3fp0fv0f1mr0elhUhXqUPmgCjy47PZfp1k2X6dZee8HrPi+l3FDrB2ey+cdZNl846ycHrPidxQ6wdpsvnHWTZfOOsnB6z4ncUOrR2my+cdZNlenWTg9Z8Uz0OrHabK9OsmyvTrJwes+JnodWO02V6dZNlenWTg9Z8TPQ6tHa7K9OsmyvTrJwes+JnodUO12VzjrJsrnHWU4PWfFM9Dqh2uyucdZNlc46ycHrPiZ6HVDtdlc46ybJ/XrJwes+JnodSO22T+vWTZP69ZOD1nxM9DqR22yf16ybJ/XrJwes+KZ6HUjttk/r1k2T+vWTg9Z8TPQ6gdvsn9esmyf16ycHrPiZ6HUDt9k/r1k2T+vWTg9Z8TPQ6gdvsn9esmyf16ycHrPiZ6HTjt9kenWU2Rzp6ycHrPimah1I7bZHOnrJsjnT1lOD1nxM1DqR22yOdPWTZHOnrJwes+JmodSxne7jZHOnrKT5Pb+aesrwes+JPWodOO42Pzp6ybH509ZOD1nxTNQ6cdxsfnT1k2Pzp6ycHrPiZqHTjuNj86esmx+dPWTg9Z8TNQ6kdvsjnT1k2RzjrJwes+JmodQO32RzjrJsjnHWTg9Z8TNQ6gdvsjnHWTZHOOsnB6z4mah1A7fZHOOsmyOcdZTgtZ8TNQ6gdvsjnHWTZHOOsnBaz4mah1A7fZHOOsmyOcdZOC1nxXNQ6hXbbI509ZNkc6esnBaz4mah1I7bZHOnrJsjnT1k4LWfEzUOpHbbI509ZNkc6esnBaz4mah1I7bZHOnrJsjnT1k4LWfEzUOpHbbI509ZNkc6esnBaz4mah1I7bZHOnrJsjnT1k4LWfEzUOpc/g/qaf9e7f2Rzp6y5ND5ZhaSKrY/xzlz6b8Lq6OrTVVT+olKutTMfp2UKliu+Q/EAKIKAgoCCgIKAgoCCgIKAlpaoCWlqgAAAAAAAAAAAAAAAAAAAAAAAAAAAAAAAAAAAAAAAAAAAAAAAAAAAACKJYAFAAAAAAAAAAAAAAAAAAAAAAAAAAAAAAAAAAAAAAAAAAAAAAAAAAAAAAAAAAAAAAAAAAAAAAAAAAAAAAH//2Q==;" vertex="1" parent="1">
          <mxGeometry x="836.19" y="596.5" width="77" height="77" as="geometry" />
        </mxCell>
        <mxCell id="IUG1O-Y_2TdF6H-YGGcq-58" value="" style="group" connectable="0" vertex="1" parent="1">
          <mxGeometry x="223" y="238" width="274.12" height="30" as="geometry" />
        </mxCell>
        <mxCell id="IUG1O-Y_2TdF6H-YGGcq-59" value="Patches Embedding" style="text;html=1;strokeColor=none;fillColor=none;align=center;verticalAlign=middle;whiteSpace=wrap;rounded=0;fontSize=22;fontStyle=1;fontFamily=Times New Roman;" vertex="1" parent="IUG1O-Y_2TdF6H-YGGcq-58">
          <mxGeometry x="-30" width="210" height="30" as="geometry" />
        </mxCell>
        <mxCell id="IUG1O-Y_2TdF6H-YGGcq-60" value="" style="endArrow=classic;html=1;rounded=0;exitX=1;exitY=0.5;exitDx=0;exitDy=0;strokeWidth=4;fontFamily=Times New Roman;" edge="1" parent="IUG1O-Y_2TdF6H-YGGcq-58">
          <mxGeometry width="50" height="50" relative="1" as="geometry">
            <mxPoint x="184.12" y="18.330000000000013" as="sourcePoint" />
            <mxPoint x="274.12" y="18.330000000000013" as="targetPoint" />
          </mxGeometry>
        </mxCell>
        <mxCell id="IUG1O-Y_2TdF6H-YGGcq-61" value="" style="endArrow=none;html=1;rounded=0;entryX=0.216;entryY=1.003;entryDx=0;entryDy=0;entryPerimeter=0;exitX=0.75;exitY=0;exitDx=0;exitDy=0;strokeWidth=4;" edge="1" parent="1" source="IUG1O-Y_2TdF6H-YGGcq-54" target="IUG1O-Y_2TdF6H-YGGcq-53">
          <mxGeometry width="50" height="50" relative="1" as="geometry">
            <mxPoint x="253" y="601" as="sourcePoint" />
            <mxPoint x="303" y="551" as="targetPoint" />
          </mxGeometry>
        </mxCell>
        <mxCell id="IUG1O-Y_2TdF6H-YGGcq-62" value="" style="endArrow=none;html=1;rounded=0;entryX=0.216;entryY=1.003;entryDx=0;entryDy=0;entryPerimeter=0;exitX=0.75;exitY=0;exitDx=0;exitDy=0;strokeWidth=4;" edge="1" parent="1">
          <mxGeometry width="50" height="50" relative="1" as="geometry">
            <mxPoint x="652.69" y="593" as="sourcePoint" />
            <mxPoint x="654.69" y="503" as="targetPoint" />
          </mxGeometry>
        </mxCell>
        <mxCell id="IUG1O-Y_2TdF6H-YGGcq-63" value="" style="endArrow=none;html=1;rounded=0;entryX=0.216;entryY=1.003;entryDx=0;entryDy=0;entryPerimeter=0;exitX=0.75;exitY=0;exitDx=0;exitDy=0;strokeWidth=4;" edge="1" parent="1">
          <mxGeometry width="50" height="50" relative="1" as="geometry">
            <mxPoint x="765.19" y="593" as="sourcePoint" />
            <mxPoint x="767.19" y="503" as="targetPoint" />
          </mxGeometry>
        </mxCell>
        <mxCell id="IUG1O-Y_2TdF6H-YGGcq-64" value="" style="endArrow=none;html=1;rounded=0;entryX=0.216;entryY=1.003;entryDx=0;entryDy=0;entryPerimeter=0;exitX=0.75;exitY=0;exitDx=0;exitDy=0;strokeWidth=4;" edge="1" parent="1">
          <mxGeometry width="50" height="50" relative="1" as="geometry">
            <mxPoint x="870" y="594" as="sourcePoint" />
            <mxPoint x="872" y="504" as="targetPoint" />
          </mxGeometry>
        </mxCell>
        <mxCell id="PT-dNGUEMdsu8464TtQa-2" value="" style="shape=image;verticalLabelPosition=bottom;labelBackgroundColor=default;verticalAlign=top;aspect=fixed;imageAspect=0;image=data:image/png,iVBORw0KGgoAAAANSUhEUgAAAs4AAAF2CAYAAAB+nR6pAAAAAXNSR0IArs4c6QAAAARnQU1BAACxjwv8YQUAAAAJcEhZcwAAEnQAABJ0Ad5mH3gAAIzoSURBVHhe7Z0HfFzVnf2P1XvvxZIt996NMWDA9G4DCTgQQuoSsiT7T0KSzW7KbpLdDdmEhJSFZQOBQELovRfbuOHei2xZvfeuUfH/nZ9mQBAbJFuSpZnzhfeZ8cybp5k7d+479/fO/f3GHHOAEEIIIYQQ4mPxc98KIYQQQgghPgYJZyGEEEIIIfqBhLMQQgghhBD9QMJZCCGEEEKIfiDhLIQQQgghRD+QcBZCCCGEEKIfSDgLIYQQQgjRDySchRBCCCGE6AcSzkIIIYQQQvQDCWchhBBCCCH6gYSzEEIIIYQQ/UDCWQghhBBCiH4g4SyEEEIIIUQ/kHAWQgghhBCiH0g4CyGEEEII0Q8knIUQQgghhOgHY445uO+PevhRurq60NLSgsDAQPj5+WHMmDHuZ4UQQgghhDfhkbGdnZ0ICAhAaGjokGo/rxLObLTS0lK89dZb1mj+/v4SzkIIIYQQXgylrMvlQk5ODhYvXoyQkJAh039eJZwbGxvx9ttv4zOf+Qy6u7tt5iGEEEIIIbyb9vZ23Hjjjfj5z3+OhISEIdOAXiWc29rasHr1alx33XW44447cPbZZyMoKMj9rBBCCCGE8CZ6enpMNP/sZz/D1KlT8atf/QqRkZFm1x0KvEo4d3R0YM2aNVixYgV+97vf4ZprrrFwvRBCCCGE8D7oMGhtbcUtt9yC1NRUE87h4eESzv2hr3C+7777sHLlSglnIYQQQggvxSOcV61aheTkZNx9990ICwsbMuGsdHRCCCGEEEL0AwlnIYQQQggh+oGEsxBCCCGEEP1AwlkIIYQQQoh+IOEshBBCCCFEP5BwFkIIIYQQoh9IOAshhBBCCNEPJJyFEEKIj6Hn2DF0dvegvbMbra7erc3Z+G8+3t3jNeUQhBCfgISzEEIIcQJYI6y8oR3rDlfjwXX5+K+X9+Pfnt+Ln79yAA+sO4o391fiaHULuhwB7T3lxIQQJ0LCWQghhPgIXT3HUN/qwhv7K/Doe4V4ZFMhXtxdhrcOVmL1oSq8eaASL+4qw2ObC01AP+CI6h1FdahzXiOE8F4knIUQQog+dHR1o7S+DeuP1ODxrcV4fEsR1jhiubyxHf5jxiAsKAB+zm11swub8+vw9PYS/PHdo3jeEdI7i+qdxzssUi2E8D4knIUQQog+VDR24PV9FfjBs3vxzsEq1La4kBARhPOnJOHWpePwtfNy8Pml2bhkRjImJEUgwM8P5U3teHhDPh5Yn493c6vN+yyE8D4knIUQQggHLvKrc0Tyy7vL8Mz2EjS2d5pgvmp2Gr5zyRTcsiQby6cm48wJCXa7anEWvnvpFPzThROxNCfBItG7ixvwl/cKcd/aozhU0YSuHgloIbwJCWchhBA+D50VLR1dFmFek1uN/JoWxIUF4cJpKY5wTseyyUmYmhqFjNhQJEeFIN25nZQciYXZcbjI2efa+Rk4Z1IiwoMDsKe00fzPLzjb9sJ6tHV2y7ohhJcg4SyEEMLncXX3+pqf2FqMvSUNFj2enx2LGxZmYumEBESHBmLMGPfOffD3G2Mi+srZabbvWc6+kSEByK1sMm/0sztKcaSy2RHPyrohhDcg4SyEEMLnKatvx/q8GhypbnZEdA+mp0Xh9vMmYGxcGPz9j6OYPwIF9PysWNy8JAu3npmNhPAg1Ld24s39FfjDO0dQVNtqiw6FEKMbCWchhBA+DSPBBY6wXX2wCo1tnWbBWJITj3Hx4QgN8scny2bYPiGB/siOD8N5U5Lw1XMnYJojvlksZXthHR7eWGAZNzo65XkWYjQj4SyEEMKn4SJAFjHZW9pgCwRnpkebd5mimWnnBgItHuMTwnHF7DRcNC0ZE5MiUO+I8Tf2VeCN/ZXYV9b7N+TaEGJ0IuEshBDCp6GNIq+qGbUtnRY1npISiampke5nB06Avx/iwoOwcl4GrpiVavdrWlx4aXeZeZ4Z1e7ulnQWYjQi4SyEEMKnOVjehLzqFkc0+2Hu2BhkxIUh0BG/p0pMWCCWTUrCbctykB4TYpHnDXk1uP/dPJQ2tGmxoBCjEAlnIYQQPkuPo14PVzahsKbVos1zMmOQEhUyYIvG8aD4TnMEM/M+Xz033RYaMnPHm/sr8faBSkt5J4QYXUg4CyGE8EnoNW5u70JhbRuqmjoQ6ghnZtNIjAx273HqBDvHZO7nq2enYemEeEtrl1vZjFf2lGNzfi3qWl2KPAsxipBwFkII4ZO0d3Zb1Jf+Y4ro6NAATEiMQIwjbgcTRp7HJUTgillpuHh6iv2tTUdr8cb+CmwrqEO3lLMQowYJZyGEED4JK/rlVjSjqb0T0WGBJm5DggLg53fqNo2PQudHTmI4zp2ciCtnp5r/eUdhPZ7eXoID5Y1o7uhy7ymEGMlIOAshhPBJeoVzk4nW2LAgR9hGIDhg6E6LkSGBVrabto0ZaVHo6jmGbYV1eNYRz0yH19GlHM9CjHQknIUQQvgk7S5HOFc2m8+Z9ozxieGDkk3j40iICMbZkxKxbHKS5Xuua+nE41uKsSmvBhWN7fI7CzHCkXAWQgjhkzDizDR0La4us2pkO0I2sB/ltU+VIEecXz0nzSoMUkgz4v3MjlIrz93Z3SPxLMQIRsJZCCGEz8GFgfWtnZbVoqv7GKJDApEeEzrkEWcyZswYs4acPTEBVzkCOiIkwIqwrM2txmv7yh0h3eneUwgx0pBwFkII4XM0tXdZCrqOzh5LGceIMxfsDcXCwOPh7/ydCUmRWD4lCUvGx5u3el9pI17eU/7+gkUhxMhDwlkIIYTPUd/qQmlDuxVAiQ8PQnxEsEWbh0c29xIW5I+JyZG4dWk2JiVHoLbFhfWHa/DmgUoU1rbaexNCjCwknIUQQvgcLH9d4S57nRQVbOL5dEDxPC0tGpfMSMW8rFg0dXTimR0lePdwNUrr2917CSFGChLOQgghfA5aIaqaO9CDY7ZALzZ8cIue9BdaNiKCA7AkJx7nTEqwstzVTR1450AV3jlYaQsXWTBFCDEykHAWQgjhc5jH2RHOjDgz2hwTenoizh6Ymu5MRzxzwSC91ntLG6yy4K7ierR0dDnyXggxEpBwFkII4XNQONc0uUw4xzrCmYsDTyfMtDEtNRqrFmdhYlKk/XtXcQPuXZ2H4npaSiSdhRgJSDgLIYTwKbjozoRzC4XzMcSFOcI55PQKZ8LFianRIbjlzGzMGxtjGT/2ljbihZ2l2FPS4N5LCHE6kXAWQgjhMzBu2+bqNuHMAihMP8doc2RIQO8Op5ExY4DwoAAsyI7FsklJmJIaaZk23jlYhQ15NSiua1OmDSFOMxLOQgghfAZGmFn4hNX6KEGDA/0QFRKIMEewjgS4WJDFUc6ZlIgLpibbeztU0YS1h6rx3tEatDqiX+JZiNOHhLMQQgifgZqTFg0K5yD/MUiKCEZIoL9Fe0cSmXGhOGtiAq6YnYq48CBsL6rHk9uKcaSyGa0d3e69hBDDjYSzEEIIn4Gx2oY2F1pdXQjw87NUdKzaN9Kg3zkrLgzXzE63/M7hQf5WUfDhjQXIrWpCZ3ePe08hxHAyoNGira0NJSUl2LhxI1555RU89dRTePzxx7F//340Nja69xoYfN3OnTvtOC+99BKKiorczwghhBCDC60aDW2d5nMO9B+D+IigESmcSVRoIGZmRFtZ7impUWbTYG7njUdqrLKgEGL4GdBoUVdXh61bt+J//ud/8IMf/AC33347PvvZz+LZZ59FaWmpe6/+wwEsLy8PDz74IL7whS/g29/+tolyIYQQYqhodAvnAH8/s0EEjVDhTAKd93bpzFTL70zvc21LJ17dW4F1h6vh6uo264kQwwX7W1fPMXQ4fY8TOVqeuNC2sb3zQxsf4/Ms3uNtXXRAo0V3dzd6enqQkZGBq6++Gpdffrn7mYHDY7W0tFikedu2bZg2bRqCgk5vAnohhBDeDU/8XBxIq4Yn4jyShTOt12GB/jhrQgKum5+OkEA/5FY2W0nu9UdqLDOIEMNFc0cnDpY34vmdZfjDO4fxb8/vw51P7MS3/rYT//TYDnzjrzvs/vee2oU/vpuH0vo2Z4LnXbaiAY0W0dHRJnAvvfRSE81z5851PzNwampq8Mwzz6C+vh7p6emYNGmShLMQQoghpdfjTOHcbR7nuPBgBPmPXOFMmDIvMy4MZ+Yk4NxJiQgL8sfekka8sKsM+dUt9lmEGCropy+oacGre8vx4Pp83L/2KJ7YWmxXPtbmVmFjXg02Ha3Fe8622dl4n5M65iDvcESzt2WBGdBoERUVZQJ36dKlmDNnDtLS0tzPDIzm5mbk5ubiueees2MsXrwYycnJCAjofzogRr4Zte7q6vrQxseFEEKI4+HxOJtwZsR5hFs1PEQEB2BCcgSunpOOScmR9hnW5lZj3ZFqi+opRZ0YbFjqvbiuFdsK6vD6vko8vqUYj2wqxLM7S3GgrNGu2rBfpkaHWhaY7PhwZCeE2yQvJSoEMWG96wf8RlrKmlPktIwWhw8fxtq1a22hIUUzt4HAgY8iub29Ha2trR/a+JgQQghxPKgvTTh3cnGg36gRzoRC5MJpyViSE4+M2FDUtnTgoQ352FZYZ5E9IQaTgppWPL29BD96fi9+8dpBvHmgApVNHSaGuWj16tlp+Oq5OfjuZVPwr1dMw4+umoZ/u3o6fnjlVHvsUwsyzApFS5Q3MayjBQVvdXU11qxZg+3bt9viwilTpsDf39+9R/9gxJoZOL773e/i+uuvf39btWoV/v3f/13iWQghxN/BmGy3cx56f3Gg35jexYEj3KrhgfKDto2LpiZjubNFhgSiptmFN/dX4q39FXaOFeJU4G9jR1E9fv1mronlp7aVoKi2zXnmGGZlxOBzS7Lwi+tm4Z8unITrFmTizAkJmJkejSkpUZiYHImcpAhMSo6yx3g/OIA50iWcT5rOzk68/fbbOHr0qC0wPPvss5GYmOh+tv9QaNNvzWPk5OS8v40fP96sH35+o2MQFEIIMXxwhT+Lh7R19jj3eyzizCjuaIk4e+Dl8DNz4nHOxETLDLK7uB5rDlVbhUFOCIQYCD38XTj9ZqcjmF/cXYbHNhfixV1l2JxfaxkyJqVEYsXcdFw/PwNXzk7DeVOSMMcR0eOcfpgcFWLZXqJDA63KJTfe52O8z0qY3iWbh1E403vMPNBcEEiLRnZ2ti0MZDq6/Px8WyxIq0VxcbH9m/dP5FcODQ3FWWedhTvuuAM///nP399+9rOf4Ytf/KIWGQohhPg7Ort6UN/mgqu7x6JgrBjIqC0XCY4mKPSnp0Vj5fx0ZMeHOZ+pE1sKavHaPl5Kb7d0YUL0h/bOblQ0dWBPSQOe2VGCB9YdNS8zffMUwPOzYrHSEc1fO28iPrUgE3PHxlp5el758FWGbbTwpJ8rKCjAyy+/bJYKZua45JJL8I//+I944oknsG/fPvz0pz/FN7/5Tezatcv2Px4c8LiQMCQkBOHh4R/a+JgQQgjxUSiY6Qvucm5DHdEcFRLQGxEbhRogKjQA01KjsGJuBiYkRdjl9L++V4RdxQ2ob3W59xLixNDak1vRhL9tLsQ/P7ULT28rwdHqVoQHBziCOQZfXz4R37l4Cq5xhHNKdIjlFBfDKJxpr4iMjMTnP/958yZ//etfx1e+8hV8+ctfxsqVKzF79mykpKTgwgsvtBzRtFx8XOSY4vlEmxBCCPFRmE+2pqUTnT3HLKUbI2qjNXDGTAV8/+dOTsQZ4+NN2FQ1d+DZHaV2iV2LBcWJoDWjtsVlC//+tKEAL+4uR1Fdm9l+mC/8tnNz8KVzcrDUuZ8RF2aZM7zRcnGyDEg40zrhcrnQ0NBgVQQ9EWFaMFg6m4/zMUaXab3YsWMHNm3ahIqKCvMdh4WF4YorrrBqg303Rp6nT59ufudly5ZZFJrp6QIDA+34QgghxKlCMUnBwIgzLzdHh43ucww92rRqUOAszI6zxY7MsMGqgkwXRk+3EH1h2sKS+jasPlRlk6zVB6tQ3thuC/sumJpk0WX6mOmhT4sJHbHl6E8nA2oRLu6jYN67dy927txpi/wopsvKynDgwAHs2bMHhYWF5k9mnuaHH34Yv//97+1xwqhzUlISMjMzP7TxMUajg4ODER8fb//mfS3yE0IIMVjQqlHTTKvGBxHn0X6Vku9/8bg4XDojBemO0OHiwA1Ham2RV3N7p8Sz+BDN7V1WoOR/1+Y5tzVo7ezCpOQI3LAwE3csn+iI5lTrR96We3kwGZAyZUR58+bN+N73vofbbrsN9913n4lpLvj78Y9/jO985zt44IEHTDwzJVxtbS2qqqosIi2EEEKcTmjVYMSZldBC3xfO7idHMVwsOC0tCl9ZloP02FCUNrQ54rkGbx2oRFVTh3sv4cswU2FXTw9e2FWKZ7aXWMVJiuPLZ6bi9nMn4BJn4pUYGSzB3A/8f+Tgvv+J0EjOKDAX4U2dOhWLFi3C8uXLsWTJEsyfP99KcNOrPGHCBIsgx8XFWYnumTNnWiT5RPCYsbGxmDx5sh0jISHB/czAoEWEiw8fe+wxXHnllfYeB1KNUAghhPdSWt+Odw9Xo6C2FWnRoZYhgFX46N8czTDqHBTgj9jwQNS3dlpUvayhHXWtLqTFhCEhIgjBgQOrlyC8B4pmLoqlLeOl3eXYW9pgAvni6SkmmPk7iI8IHrW/A2pTBnGffPJJREREmN2XVt+hupo0xvmDXnMdp6Ojw4qrrFixwqLhXHSoLBtCCCHI1oI6/Or1Q9hV0mD2Bl6eXjY5ybzB3gBtGVwY+OTWYktNx9y8Ny3OwhWzUzEnM8ZSiCme6HtwIsWiJn/eWGB9n32AxUy+ePY4TEuNRswo9/ozaEqLMIvgcX3c3XffbWvqhsruKxOxEEIIn4AWjYY2l3Oi7UFIgB8iQwK8SkgyYrjImRCcPTEBk5MjbSHYi7tL8cb+CrR1dltkTvgWzKCxzZkw/uW9Qrx7uMauSMymaD5rnDOZih31ovl0IOEshBDCJ+gVzl1WICQkyB8Rwd4nGngJfn5WHFbOS0dKVIhFnbfm1+HZ7SW2MEz4DvT0v7ynDM/uLMX2onpL5nDx9GTLnDEtLVoZM04StZoQQgifoLP7GBrbejNNhAQ4wpkRZy/0LrAM8oLsOPOwxoUH4UhVM97cX4mDFU1WQll4N4wylze02+JQZlehRYmZZJZOTLA+sSC7N9I82r39pwsJZyGEEF4PxYSrqxvNHV3oPuYIZ5bbDqZVw/vEQ4D/GMvB+6mFmZiaGmn5qxlxXHOoyioMKkWdd0InDr/rssZ2vHe01jzN6w7XoMXp8+wHqxZl4cycBKRGh7pfIU4GCWchhBBeT7sjKFpdPWbToMDgZWqWFvbGiDNhSfGcxHCcNyUJszKi0dTeiSe2FpvflZMH4X0w3VxJXSv+sqkQv3vnMLYU1Dp9vsuK49x8RjbOmphgVyDEqSHhLIQQwuvh4rgWR0SQkEA/izgzMuutcELAyoIsx83KgklRwbYwbE1uFdYeqtJCQS+CX2WRI5hf2l2G3751GK/uLUdpfZtVx1wxNx3Xzs8we0a482/ZM04dCWchhBBeT5sjmnnJmoKSAoLi2ReKPYyNC7OIIy/RBzufeXdJgyOeq3G0ugXtzmRCjF5oueHVg13F9Xh9bwWe2VGK1/dVoKq5A9nx4bhsZiqunpNukyf63n2guw8LEs5CCCG8HmaXaO3oNk8z09Ax4uwLcHJAf+t18zOQFhNiRVG2F9ZZirqaFpelrBOjDy72a2jrxOHKZjz6XiH+uO6oFTihf59Ffa6anYZvXTQZix3RLHvG4CLhLIQQwutpc4QzrRqMujGbhq8IZ8JL9uMTI3DNnHRMTIpAcX2b+Z0PlDWiSSnqRh2c7BysaMRfNxfiB8/usYwpLCWfFBmMGxeNtRLaV89NswmirBmDj4SzEEIIr8c8zh291oSI4F6rhq9A8RQTGojzJidh3thYu19Y24ZX9pZjT0mDsmyMEmitKa5rxXM7SvHoe0V4aVeZM/lpsu+XlTBvPSsbV8xKw+zMaEdEh9jjks2Dj4SzEEIIr+dDEWcTzr4TcSZBAX6YkBSBJePjMTMj2tLzvZtbjU1Ha1HW0C7LxgiFXwsLmZQ1tGFnUb2VUv/r5iK8sqcMR2takRkXhrMmxFtRk+vnZ1oGlZgwWTOGEglnIYQQXk+rRZwd4ez8R6uGL1ZNG+PMGphh49LpKQgL8kdVUwc2HqnB6kOVijqPUOhZrm912aK/u9/Ixb+/sA+b8mqsCuTYuFB87sxsfOOCSeZpppdZ1oyhR8JZCCGE1/N+xNm5z1LbvhZx9hAWHGDllm9ekmUp6g5VNOEtVhUsb1J+5xEEF//lOt/NXzYV4AfP7sWfNxZif1mjLfackR5tgvnOi6fg/KlJSIwMtkmRGB4knIUQQng9FM7MqkHl7ItWDQ8Bfr1VBS+YlowZjoBmhJKC7MVdZSipU1XB0w19zPk1LZaL+fEtxXhuZynePVyNysZ2+964wPP6BZm4fFaaZczgY77al08XEs5CCCG8Hk8BFMblfCkd3fHg55+aGoWzJyYiJykCdW2deGZHCXaX1KOhzeXeSwwnjDDXtbgsyvz2gUr8aX0+Httc5HwnjVbhklFm5mW+7dzxjnDOMC8z7TaKMw8/Es5CCCG8Hos4OxsvaVvE2Qc9zn0J9PPDJTNScMa4eCvPTb8z05ptya9z7yGGCy4AZH5t+pj/+/VDuOetw9hRXI8u54ns+DDcujQb3754Mm45M8v5d4TTdxVhPp1IOAshhPB6Wj2VA537vmzV8EBLbGxYEM4YH4cLpyXbhGJbYT3WH6lBXlULOrt73HuKoYKZTMob2vHavnJHLOfiL5sLsbu4AU1tXZieGoVVizLxTxdMwkXO98OMKJEhgVYmXnbm04uEsxBCCK+Fjl36dmnVsBLTjujoLYCi0x9F2OSUKJw7OckKo3Bx4LbCOrxzqNKq0ilF3dDAdu0tld1gXuant5Xgpd3lyK1oNnF87pREXDk7zTJlcPHfuIQIs2uIkYFGDiGEEF7LMUekUDB3dPags/uYZSVQxPkD4iOCzC970fRkpEaFWAlnCrnCmlazt4jBhaKZlqHDlU3425ZC/GH1EcvNzCsiY+PCsHxKktkyblg0FjMzYhDo76cI8whDwlkIIYTXwiQRLCvd0d1jGSSYv5miOcBPpz8PCRHBWDk3wxagsW1K3CW5mapODC41zS6sP1KNX7x2CG/s643sx4YH4tp5GfjGBRPxhbPHmYDWFZGRi74ZIYQQXgsr5DW2d1r1NaZiY0YJRfE+TJDTHkxrdv6UJMzJjDEbwTpH3HGhIEs8i8GhzJmQrM2twmPvFZlNg5O6+WNj8Q/LcnDVnDTMz4p9P70cr4yIkYmEsxBCCK+Fl8Yb27rQ4QhnCubo0EAT0OIDqNHod140Pg5nTkiwghqMOm/IqzHPMycdsjufPEw1V9viwsajtXhlT7nlZWYfnJMZjStmpeKGhWMxzxHQ8RHB7leIkYyEsxBCCK+l16rRG3EOdMQhhbPKEh+flKgQLMyKxQVTkhAeFICNjnB+dW+F5Xbu6lGWjZPFFl0W1OHPGwss5R/7H33lnzkjC9ctyLCrIOqTowcJZyGEEF4LrRq9wrn7g4izI6DF8clOCMclM1IxKSUCQQF+OFDWZMU4Khrb3XuIgUB7xjsHK/H7d47YwktG85dNSsQXzhqHWenR8B8jGTba0DcmhDjt8CowU4aVNbSZ92/NoSq8uqccWwvqLM+pECcLrRq2OLCPVUPRvRMTFRLoiOZIXDwtxRapVTa1462DVdhZ1GBFUkT/oLWFkw16xZ/fVYo9JQ1W6W/x+DhcMzfdvORx4cHy2o9CJJyFEKcVpmbiCeZQeRPezXVOMjtL8cimQvzfuqN4ensJNuXVoLS+TT5LcVJ00+P8vlXD43HWqe9EUMhFO+L50pmpmDs21tqM+YVXO5NZZtnoUmGUT6Sr55hly9icX4uXd5djrTOuBQf6WXuyWuMFU5MtX7NE8+hEo4cQ4rTBy+j7yxrxqCOUv/3kTvz81YN49L1CO0nvKKrHU9uKLc/p/67NQ2lDGzrlsxQDpNfj3GXCmRaNKEWcPxG2E/3O50xMwNKcBPM3s7odFwvWtro0gf0EGpw22lJQiwfX5VubhQX6Y0FWHG5clGk2DfW/0Y2EsxDitNDc3omX95ThL45Qfml3mZX5ZfQ5NToEi8fF2QmG0cHiujYT0vetzsP2wnqVAhYDwtLRMauG02+UVaP/UNzNTI/G2Y54Hhcfjk5n4rEprzcrREdXt9mrxAdwMuFy+thWRzBz8n/fmjzkVjbbRO3MCfH43NJsTEuNQmigKgCOdiSchRDDTl2ry7zML+wqs8uY9E5OTI60S5jXzEnHirm920XTU2yxEn3Ob+yvwLu5VcirbnEfRYhPxtLR9cmqoYhz/0mMDDEv7vKpSYgJD8KRqmasPliFA+VNzsS3y72XYGVKrs9Y47TN8zvLLBDAHNjhQf44Y1wcLpuRasEAeZq9AwlnIcSwQv/f4YpmO8GsO1xjqa4mJEVg1aJM3HnxZCsGwMUzl81MxZfPGY+r56RZftO61k4T2WsPVcnvLPqNx6rBKKkizgODIm9sfBhuXDwWExIj7He3t6zRhCHzPHNS4ut0OKKZNjJWA7znrVw8ua3YmWC0IDYsEEty4rFiXgYuccYyFjWRaPYOJJyFEMNKfnUL1uRW4dV95WhxdeGM8fG4wRHNjC4nRQV/KBqYFBmMcyYm4uYzshzBE2CLk1g8YGdRveVGFeKT6Fs5kMI5SjlzBwRT0qVEhVqhDuYerm124bkdJdhRVGflo30Vzhm6e3qw1hmPaCP79Ru5OFTZjDHOf3MzY/Ctiyc7E/8cqwyo/uZdSDgLIYYFnmjoT6bwXX+kBi2O8KXn77zJSVjiiOfYsCATNn2jMvx3RmyoPb/Y2VgogCv8mW2DmTiYwk6IE8HewSscnGR5rBoxYcrjPBBY+jkk0M+sBouy45ASHYJqRzC/tb/SskawfX3tV8jJGMefJ7YW4+ltJTamVTZ1WPo+ls6+yZnonzMpEeMSwhHhjFnqbd6FhLMQYlho7+rG0eoWbHREMwsBUCjTO8mIc0ZsmHuvvyc8OMB8zhdNSzZLR31rJ94+WIkD5Y2ob/PdiJf4ZChwaNFod3XbJKs34kyPs059A4HiOdMRhQspnp2NUWiW4l7nCMbCmhafSlF37NgxlDmimVUVH9tSbG3ARc1cSHnx9BRcOz/Drp6lx4RaOwnvQ9+qEGJYqG1x4cVdZTjIXLCOiOGJ+MpZachJCnfvcWIiHPHM/KezMmIQEuRnES/mfKZXWogTwSgzF7ExlzPDfow4M3+uLp0PnDGOeJ43Nta95iAIjU67UjwzT7EvLRTsdMau9Y5YfmD9UbOMtXV2mzXja+dNsPUZvB8swezV6NsVQgw5PLkwMvX6vgpUNrZjUnIEVsxNQ5xzAu5PyVnaNxgtXJgdh6UTEix6uDGv1lb3UxwJcTxYLZDlttlfuDgrzJmAMXoq2XxyMII6LiECn1uSjez4cBTWtuGNAxXYVdJgmXK8Gc69mD3jqa3FFgA4Wt1qi0wZYb55SRZmSzD7DPqWhRBDTll9G3Y7J9eC2hYEOwKG3mb6lhlJpijuDxQ8U1IiLepFrzNLATN6zfR0Wt0vjgfz6jIy6uhmhDr9Ljyo//1N/D2M1Cc4k91zpyRh7tgY+x0y/zpzO9N+5a2WDQ4vTJn5zsEqvOZM/veWNiLImchfOC3F2ZItZV9seJCuZPgIEs5CiCGFJx2K2835dRYBZKRqelq0+ZYZRR4IqdGhJp5zEiNMSHOhIAsOdHVLOIu/x9XVbanoOLGicA4L8nc/I04WRu75+ztrQgJmpEWZh5xXkpi3uKq5w72X98CrFdXO56It5a+bi7CtoM6sZrPSoy3bz7zMWMSEBbn3Fr6AhLMQYkhhud68qmar+seTECNV09OjzDM5UPgSimdGeXiyOlzZhA1HauzkzUU7QvTFY9WgcKZo5kJTMTgwawQ35sVubOu0FJMsjuJNsN+0urrw8p5y/HHdUWesqbYMLYvHx+GmJVmYlRmNyFD1KV9DwlkIMWQwqwEv4TKbBtPPRYcEWsSYaZtOFi5Mos+ZabFc3cdQWNNqopzZNoToC/3vFnHuAUIpnBVxHjRos5qbGWvFisKD/XGwvDfH+q7ievutj3b4GbiG4n9WH8GzO0rs6paf3xhbpHzFzN6c1iEB/nblS/gWEs5CiCGD2QzoByxwxC1z505K7hXNMaGB7j0GDiOHzI861RHgrM5V4fYeMo+qEH2hcGbxkw+sGooODhb082bFh+H8KcmYnh5tbcx1DFw4V1zXZtH+0YrHmsFCLy/uLkNuZZP5uS+YmoQrZ6dhQXYcEiJUPttXkXAWQgwZ9ALuLW2wEynz5545IQGJUSEnZdPwwAgPCzKckRNneZ15mfjtgxVWApgFVoTwQPHG/mHC2awaijgPJlHOBJhXkC6ZnmK+5/KGdvxtSxG2O6KzxhGfTrOPGvheOX7Q2sP3z+ImD6zLR2l9uzPRD8LZExPw9eWTzJ7Cq13Cd5FwFkIMCZ6KbbRqMBrMCloLs2MRF3by0WYPAX5+mJ8Vh4nJkfZvntz2lzWaQBfCA7NqNDl9kJYhT1YNMbjQssHCH0tz4pEWHWq/eS6iW5tbZWkoR4t25tUJWsr+d00e/md1nl3F4gR/sjPG3HJmNj5/1jjLPa+Uc0I9QAgxJHhEc02zC6xwnBwZjPEJ4YOyQIsB6/jwIDupTU6JNJHOKNEBRzwL4YFZNRhxZtKV3sWBijgPNrRscN3BsslJOG9qkmXdoAB9c3+lZdtg7uORvHCXVyPya1rw0p4y/PHdo3h1b4X5tdlfzpucaJkzznVuaTGjaJanWUg4CyGGBAqW3cUNFvFjBoyx8eGW63SgKehOBI8zMSnCiqLw/v6yJuxzhDMX9fBkKERvVg13OrqgACuAIgYfisnpaVFYPiUJC7LiTExvL6rHi7tKscu5rXfGgpH2k2SfqG91YU9Jg4n8p7YV46XdZSiub0VaTAiWTUrENXPScenMVGfCHzFo45YY/agnCCGGhAbnZLm3pBGtjpClJ5DVArkqfTChx/mM8XEICfBDWUM7ciubUVjbik7ldRYO72fVoHCWVWNIYaSZJfH/8fwJdmWJE+f3jtbi3jV5lpGCqShHEu2dPbZw+bdvH8Zv38rF2txqu3KVHhNq1oyvnT8RF89IsUWBCjKLvkg4CyGGBBPOZQ1ocXUjOSrk/aIlgwlP1qnOiY6r3GPDA1FS12Z5nXl5WPg2tAd0OOLIsmp40tHJqjGksI1znMnsZ5dk48ycBBOnO4rq8fDGAry2r9ysM6c78sy/3+68j5f3lNniv635dTZGTU2NwqrFY/HDK6fjvMlJViFRiOMxIOHc3NyMw4cP48UXX8SDDz6I3/zmN/jlL3+JTZs2oba21r3XielxRq+ioiKsWbMGjzzyCH73u9/h17/+Ne6991488cQT2L9/P5qamtx7CyFGK/Q3s0Qto8CMNCVFBiMrPtwRzu4dBgnzV4Yzr3O8pYfiqn5WMDNf6wiLcInhhd8/C+O0OaKIIlrp6IaeAOf3yOw5i8bF4eLpyVg4LhatHd3YnF9rad1YSKS8sc2uBJwuWNCEk+u3D1SZqKeIZhXElXPTcfnMVGcSHovU6BCblAtxPAYknBsbG7F37148/fTTePjhh/Hb3/4W3//+9/H222+jsrLSvdeJoXDes2cPXnnlFfzlL3/Bn//8ZxPQPBZvKcgpzF0ul/sVQojRSLUjmhn95UkqLMgPSVHBSHa2oVhYE+mcqM8YH29RbUYX95c3orShzVb0C9+lo7vHEUU9dvmd3Y7CmZsYWtjWtGZxseC18zJs8S4nL+sOV+PhDQVYf7jGFuNxcj3cU1tOpErr2/DcjlJsK6i19HPTUqNww8JMrHTe69yxsQgO8Hc+w+CPU8J7GJBw7upiWp8eZGZm4qqrrsJll13mfqZ/dHd3Iy8vD/7+/rjwwgvxox/9CHfffTduv/12JCcn4/e//z1eeukllJWVuV8hhBiNULjSa0yhnB0fjhRH1AYM0eKa0EA/8zpz1TtFNMXz1oI6iz4L34WRTgo2aiBmQ2Du70ClEhs2eJWJOY+/dfEkq7LX6UxiWCDlrlcPmoDeWVRvaQKHUzyX1bdjrSPgN+bVoKq5wwoy3bF8ki0wptVLiP4woFEkPj4eCxYswLXXXovLL78cM2bMcD/TPwIDA7F8+XJcd911Jrrnz5+P6dOn45xzzsE111yDhIQEFBcXW9RZCDF6qWjsQEm9WzgnhCPROYkOVQyH0SGueJ+RFuUI6HATSzwxsiCK8F2YXaXV6Qvsg5xQBTGS6H5ODD20UbFAyoz0aHzuzGysnJ9hE2hm2HjnUBXuX3sUv3r9ENYdZtXPdrPTDCXMoMEJ9bM7SlHr3J+SEmXp5jhuRDrvcyiuhgnvZEDCOTw83KLNFMwTJkwwIT0Q/Pz8MGXKFMyePRsTJ040oRwdHY309HRMmzYNUVFRaGtrQ0NDg/sVQojRSGVjuxUloaeZ3mb6j4ea6WnRFkHq6j6GA2VNKKxpseiz8E1aXF1o6+yCv1s4q3DF8EPPc2xYEM7IicdVs9JwxaxUzM2MMY8zfc/P7CjBU9tKLA3cpqO1tiaiY5AtVpTj9LvTz7zWEenM0RwZ3GvvOmtigqXI5PsUor+MiJGEnmYuCmxtbUVISIgJ6E+Cs9MTbUKI0wN/fV3dPVYpkOKZUZyM2FDEOSenoYZ2jQmJESaQqptdyKtuMZ+18E0YbebVB6ZAZEqxIAnn0wbTAHLR3ZfPGY+bzhiLRc796NBA1La4LAL8+3eO4H/X5tmiPVq8WPaa/uPBOJtzPOLfeWVPufmrKZJnpkdZCe2Z6dHuvYToPyNiJKHvmd7mmpoajB8/3uwbHwfFMf3W7e3taGlp+dDGx4QQpwdGdugdrGt1WfEJihWW4WUBlKEmONDPSuLOzowxP+vB8mbzVArfhFYNE85jYJYBCefTCy1VESGBjmBNxNcvmITvXDIFl0xPMRuXJ+fzf792EP/x8gH89b0i5FW1mC/6VGAcjb5mVgTcUsC0c11IjwnBZ87IsoItWgQoTobTPpJQNL/55pt46623cMEFF2DRokWIi4tzP3t8aOdYt24d7rnnHnznO995f2OGj/vvv19ZOYQ4TTC6U1zXZjmce0VzSK9oGYaqWxbddoQzL8EylVReVTP2lTZadg1VEvQ9Wjq60ep89+ZxDg6QVWME4PE9Z8fzdxqHTy3MxG3LcnDl7DRkxoZZCssdhfV4bmcp7luTZ/mfaelgxHiguJyxaGdxPZ7aXow3D1SioqEd4+LDcdWcdBPN0cMwmRfeyWkbSShuy8vLTTBv3rwZwcHBtkCQ/mne/ziYnaOurg6FhYXIzc19f+OiwpKSEsv8IYQYflixj/aIpjamoQuwMtthQUzv5N5hiOFK/jljY8wawsVAFM/Fta0W/Ra+hXmcPYsDQ2XVGEkww05SVAgWO5Pca+dn4Pr5mbhsZirOzIlHfEQQipzf7Au7SvHY5kKzcqw+VIW9pQ2obu74xN8y0w/2lvuvx6t7yvHirjIbBxKcsWHphARcPD0F8eHB8jWLk+a0jCS0WnABIAuh/OlPf7L80N/4xjewdOlSWzD4SURERFhWj//6r/+ywimejbmhf/CDH5hPWggx/HQ5k9ayhjbL0UrBPDYudFgjffRNstwvU9Oxihm91pvyahwhr0WCvgYjzr0eZ1hRDkWcRx6UrhHBAVYwhf7n/7x2Fm5YNNaq+PEi0eHKFvx5YwF+9tJ+/ObNXHf0ucOuIPH5vteReJ/aghYdlt6/d3Ue/ralCEeqWizrzuWzUnHN3HRbC6FJlDgVTkvvyc/PxwsvvIBf/epXmDVrFj772c9apo1PijR7oC8pICDABHJYWNiHNolmIU4fzGjBlfEUzhSu6bGhw36SomCnXSMtJtQWCa7NrTbriPAtWHyHNh2LOHNx4DDYhcTJE+A/xq4UXTojBf/vwkn44ZXTrPpgWkyIRZBZEfTXb+Tih8/txX+/dsgqEe4qqkdBTSuK61qxtaAWj2wqxH84Ivvfnt9rqedo15iaGok7L5lsEW1OqIU4VQY0ktACwcV31dXVqKiosKgxZ3gsxc2FfVVVVRY95sK90tJSqyjIRX8FBQXvv/7o0aN49dVXrXog09ktXrzY7BlBQUF2bPqXOzs/+STH1HYspEIB3Xfj40KI0wMvk74vnAMd4eyI1+GO9NHfvCAr1v42o0/7y5sspzPfk/AdWlx9PM6Wx1nnhpEMvydbF+H8bmdlxmD51GRcvyATNywci/OnJFnaOGbc2HikxjJkPLG1GH/eVIAH1x/FA+vy8agjmp/dUYJ3DlZhT0mjjQO0flw3PwMXOMfilajwYJVcF6fOgEaSjo4OE8xcmEdRvHv3bhPDR44cwcaNG/Huu+9aSW6KZ4rlZ599Fo8++igOHTpkr6c3ecuWLXj++edt/8mTJ5vYpZhev369bTymKgcKMfrgpVPmZ61s7LBUYKcr4sy/x+IGjC7xfkVjOw5VNNnCI+E7eLJqMNAcHcLFgSq3PVrgZJtluymYb16ShVvOzMZF05IxxxHUzAnfWx201kpnP7TBEc+OcKaX+VBFs6UfnJgSgbMnJZhoZtnvjNgwE9JCDAYDOqPV19fbQr7vfe97uO2223DvvfdadJkC+d/+7d9w55134oEHHkBRUZFFj2tray0KzSgy4b4bNmwwIc1FfHw9y23fcMMN72//+q//atFoIcTognlXKVYsFV2nI5zdEWdWbBtOGLmiaLe8zs7W7Sj67QX1yK9uce8hfAFeYaBdg/2B6RCZolCMPrhuYX5WLL567gT8x8pZ+NbFk3HNnDTMGxtr4jrc+a3z9877tGixSuHPr52Nb100GedMSrKrDU4XEGLQGHOMXot+QgFcWVmJ7du3vy+G+0J/cUpKikWSabdgqjkK6EmTJll1QEac+VraOJhz+XhwcWBWVpa9ZqAwIs4FhytWrMB9992HlStXyvMsxDBR1+LC9sJ6fP+Z3eYp5ur1u66bBX8/v9Ny4tpm5XVL8PDGQvNJfv6scbhpcdawR8DF8MKFY8zu8vW/bsfr+yqQ6giqe26ciympUTaZE6MXXtHi2FLT0oHGti6bHFmWDec7D3a+W4psZuVIjAi2CDPT3wnvh9qSBfRWrVqF5ORk3H333bbmbaisuwMSziMdCWchTh9MIbUmtwp3v5FrqZ4un5mKf7limvvZ4ae6qQOv7SvHf7x0AJ09Pfj0gkzc6ohnWjgYhRTeCa98UFx96/GdWHOoGtkJYbj35vkYnxAhISWEFzLcwlmhFyHEoMC8ueUN7ZZZIzYsCPER/cuSM1Qw8pQdH24lvymU82tasaekwaobCu+FC1R59YMCOtB/jJV7ZqRZolkIMRhIOAshBoXWjm5bgEdhGh0WiDhHuJ5OmLaS5XxZ4pfVyuhxpn1Dwtm74cStxhHOvITPy/UxTl/UFQYhxGAh4SyEGBSY+ququVc4s+BErCNWTzeMep85IR4xznuhmGJhBEbFOzpVSdBbYaSZJZrph+WCQF79ULRZCDFYSDgLIQYFpv6qaXah+1iPI5wDLOp8umHhC1YhY1o8likrq2/H3tJGS2clvBNaNd4XzgH+jnAOlHAWQgwaEs5CiEGhVzj3RpyZAopR3tMNS+0yFdk0RzynRYegwRHM7x6uQrXzPoV30uWJODu3zLTA719WDSHEYCHhLIQ4ZZgCjDlzKVh6hXOApYYaCTDayJyvXCjY5AhnVh5jURRGJoX3wVR0TFcmq4YQYiiQcBZCnDLtnd1odoRzO3OqOlA4M+o8EqBmmpwSacI5wM/PSoLnVbegqqndvYfwJrp6+nqctThQCDG4SDgLIU6ZpvYuNDsbI8+8PB4eHGDVvEYCFE0sgpEVH4akqGC4uo/hQFkjjqqSoFfCrBoeq0ZIAK068jgLIQYPCWchxCnT0Npp4pkCJT4sCGGOaB5JUT6mphuXGI65mbH2HneXNOJgebP7WeFNsNhNbUvn+xFns2pINwshBgkJZyHEKVPf5hbOjkBl/uaREm3uS1a8I5zHxlhVw+K6VuRVN9siQeV19h5YB7fTEcy19Dgz4uwWzn6KOAshBgkJZyHEKcMSx1x4x2huQkQwQgMD3M+MHOLDg5CTFIG0mBBbQMYS4QfLmywyKbwD+pvbOrvR6upGjzMhCg70s0WqnNAJIcRgIOEshDhlKJwb27ts8R2FM60aIw1GH5OjQjAnM9Z8r6X17XjvaK0JLeEd2CJVpx8yYwqtQiy1HRHir4izEGLQkHAWQpwyFM4ULBQoceFBJlJHItEhgTh7YoKJ+7KGNmzOrzWLCRc1itEPI811rZ1m2YgIDrBFqn7OZE4IIQYLjShCiFOGNo0WFxcHwjyljPSNRCKC/c3nzCwbvJRfWt+G3Mom1DtiS4x+mjt6c4kfc5QzK1cyLaJizUKIwUTCWQhxyjBq2+KIFnpJWeKY3tKRSJAj6DNiwzAuIRyx4UFoaOvC9sJ6K4giRj+86mHC2blPOw6vMAghxGAi4SyEOGUoWFo6us2qwUhfSMDIjDgz+sgFjNPTojAhKcL8zRvzalBS39a7gxjVMOLMTCm0avDKR9QIqV4phPAeJJyFECcNBQrTuVGwtHb2RpxjHLEyUiPOHqanRWOiI5yZUYNWjcKaVvNpi9ENr3zUNPdaNWIknIUQQ4CEsxDipOGiulYrtd1tAprRXJbaDg4Y2UMLPc7jEiKskiAXlB2palYlQS+AE7ialg6zatAyxFR0QggxmEg4CyFOGqb9YvETRm4ZbQ4J9EN4sL+lpRvJMNvC2Lgws2wE+/sht7IZ+0obLIIuRi9cpFrT4rIJHa0a0aEjL5+4EGJ0I+EshDhpurp7UNvsgqv7GIICWGwiyETzaKg3kRYTisXj4hES5I/DFc3YU9KI7p4eiedRCsXyB1k1YGkR2R+FEGIwkXAWQpw0jDgzby7LHDN3My+Nj5ZiE4mRwZiVEW2RybaubhTXt+FgRRPaOrvce4jRAoVyY1vX+8VPAvzHmL+ZVxaEEGIwkXAWQpw0Xd0Uzow495ivmQsDHc0yKqClJCM21LJrhAf5W0o6T0EUMbo45vzHfsiIM+dtUSGBVgAliInFhRBiENGoIoQ4abp6elDX4gjnLkc4M+IcNnoizizJHBEciIXZcUiNDrU0ZusO11gxFNk1Rhf8vvj9cdJDsZwUGWxXQEaDZUgIMbqQcBZCnDSeiHNndw9CGHF2hDMza4wWQoP8sXhcnPmdmY5uZ3FvMZT2zm73HmI0QOHMNHSMOAc6wjklKsQWqgohxGCjkUUIcdL0Rpx7s2pYxDk0yCK5o4VA/zGWXSM7PgwxznunT3ZvaaOV4hajhx4cc4TzBxHnZArnEVqERwgxupFwFkKcNH09zhZxNo/z6BHOFPlcRJaTGGFluDkR2F5Uh/wa5XQeTTDiXOUI58b2TsvukhrjCOcgCWchxOAj4SyEOGk6LauGy7JqBAeMrqwafZmYHIEZaVFwdDN2FjUgv7rVCrqI0QErBVY0OsK5rVc4p8eGIjRQwlkIMfhIOAshThrmPeZiOsuqEehn0dtRqJuRnRCOKamRFjWn15kR5/zqFssNLEY+nORUNrbbd8fsLpmxYQhTxFkIMQRIOAshThpaNShWOlkAxd8RziEBozLizPRlmXFhJp4DnPefV9WCncUNijqPArgwlX2Qm1mGAv2tpDpvhRBisJFwFkKcFIzGUrS0dHRZ5JmXyCMpnEdhDjBmAuGCsqUTEixqzojz1oI6tLm6FXUe4bR39lgmlFbnu6K/nn2QVQODRktCcSHEqELCWQhxUjDazLRtjPIxMEvhHGHC2b3DKCMpMgTnTUkyn3a5I8T2ljbYbYcjzMTIpdXVhcKaVrR39dikhxOgAH+WfZdwFkIMPhLOQoiTosMRKi2ubjAey7Ru9JZygeBojDgT5nRmarrJKZEWsaxtcWHNoSrL1iBGLi0d3cirbrFJHMunMyf3aO2DQoiRj4SzEOKk6OjqNpsGlTMFMz2lo6n4yUeht5le57mZMSag6Zldfaga5Q3t8jqPYNgH86qaTThzwpNhwtn9pBBCDDISzkKIk4LeUlZqo6RkBgNvSP9F4T8/KxY5ieHmb95WUIviulbzz4qRB/se+6An4kzhzFR0smkIIYYKCWchxEnR4QgVRvuYQ9dbhDMzgrAYCrfY8EDzze4ubsDhyib3HmIk0d3dY0VPCmpbzTpkEWdHOCviLIQYKiSchRAnRa9VozcSGxYU4BWV2qi3aDmZkBSB2RkxYOByZ3E99pc12QRBjCzoQy9raLerAyGBfoiPCEJCRLAizkKIIUPCWQhxUjAa621WDULNxfLbC7Jizbt9tLoVhyqaUNPsktd5hMFqgbTScE6T6AhmbuyLks1CiKFCwlkIcVIwTVuLi1YNRzgHB3hVwQkWQ5mdGYPokACbHBypasbuknqLsouRQ2lDG4pqW82awclOUqSizUKIoUXCWQhxUrQ7IrI34uz2OHuBVcNDgJ8fkqJCsHxqsnMbjKPVLXhtXyWa2nsnCmJkUOiI5iNVLeZNH58YYd+ZEEIMJRLOQoiTwiLO9Dgz4mxWDe8ZThi05EKz5VOTkB4divrWTuwu4SLBZluMJk4vtMzwOymua0NlYwcCnYnOpOQIpERLOAshhhYJZyHESeHJ48wArDd5nD1EBAdgQXYccpIirLhLaX0bNufXWl5ncXrp6ulBQW0LypzvhFc+mAElOyHcJjtCCDGUSDgLIU4Kqxxo6ejcWTW8TDgzp3O487nmZ8VgamqUfdbX91XgaHWzMmycZphDfEdRPSqaOqxozYy0KBPNQf46pQkhhhaNMkKIk6J3caAnHZ13eZw90LIxb2wsZmVE2316aveVNaGgptW9hzgdsNjJTgrnxnaLNrNoTWRwoPtZIYQYOiSchRAnxQdWDS4O9L6Is4f0mDBMSYnC+IQIuFgQpaQBu5xNnB7Y5+htzq1oRlNbJ+LDgzHXmdzQWiOEEEONhLMQYsDQqcDL5R9YNbzP4+whONAP45PCcdbEBJsg7CttwJb8WrS5utAjy8awU9nUge1FdVb4hKnnUqNDMCU1yiuveAghRh4SzkKIAdPZ3WMRZ5dzS7xZOJOsuHCcOzkJsWGBls0ht7IZu4obnImD8joPJ8ymwWI0L+4qs1SIk1MiMTczxvofPelCCDHUSDgLIQYEg6ytrm5bHEgCHMFCm0ZggPcKFwqzsXGhmJ8di/iIYLMKvLavAnUtHe49xHBwsLwJWwvqcLSqBf5Od5vjiGZ+J34qeiKEGCYGJJzb29tRXl6Obdu24e2338bLL7+MF154Abm5uWhubnbv9cm0traisLAQa9assWNwW716NY4cOTKg4wghhh96mmnR4AItChZGmpmujUVDvBVGM2PCgnDOxERkxYc5gtmFdYerkV/TapFPMbR0Wd5mF9YfqcaW/Dq0OX1vQlKECWd6z4UQYrgY0JmutrYW7733Hn7961/jW9/6Fm655RZcf/31ePLJJ1FcXOze6+NhGqfS0lK8+uqr+N73vocvfvGL+PznP4/vfOc7dpz8/Hz09PRGsoQQIxOKRUacKSgjQwMR6ANpwMKcCcLZExMwITHCvM2sJsjoJ0s+i4+H7UWbRVd3j9l8urqd+86/+Rif41WM48GHuU9jWyf2lDbi9f0VVvo82ulzV8xKw/S0aHmbhRDDyoDOdt3d3SZqMzIycNVVV+Gyyy5zP9M/KJpramrw3HPP4ZFHHsHkyZNx55134vvf/z4WL16Mv/3tbxbBZuRZCDEyocihcGbEmTaNKB8RzmOczxoREmgZHJj+jMLvDUfI0etMMSj+HvYVeuHzqlqw5lAVnthajL9tKcbT24vxxr5ym3jwubpWlwnkvvqZ99ucfsa0c49uKsQvXj2IA2VNlq95QXasLdZMi1GlQCHE8DKgs11UVJSJ3YsuugiXX3455s+f736mf1B47969G/v27TMRffXVV5v4vvTSS3HhhRciOjoa+/fvNyuIEGJkQkFDq4Yn4hwdEoAAGk69HH5CThSY03nRuDizqDDavKu43hasUfiJXhhFZo7ldw9X4aENBfjT+nz8ZXMhntlegmed7Slno4D+88YC/HHdUdy7+gj+8M5h248i+S/vFeIR57n/XXsUDzu3r+wtx77SRvOanzEuHlfPTkdmXJjXpkAUQoxcBiScKWynTp2KZcuWYcGCBRZ5HggUzlu3bkVdXZ0dhwJ84sSJyMnJsYjzkiVL7LmdO3e6X3FiKLwZ/eYx+26yeQgxxDj6kNkkWACFwjkqNMAnIs4e6HGmtzYnMQLdTlvsdQTdhiM1NpFghNWX4eenDYMTCrbJk1uL8b9r8vC4c7sut9qykRytabGJBqPNjNg/vqUI9797FPe8ddgRz0dw39ojjmDOw33O6/7HEdQv7i6z46XGhGDJ+HhcPCMF501JsqqOQggx3Azr2Y6ilh7mgIAATJo0CX59FhMFBwdj5syZ6OrqQlFRkfvR40PR3NnZiba2Nlto2HfjAkYhxNBhiwNdjDi7rRohtGr4TlYDThLGJYRj5bx0JIQHWaaHdw5Wobalw+ctG93OGN/Y3mlR43veynVEbzmqmjssOs+JBlP6XTQtGec5t7S7jEsMN7+y/5gxNvGoampHYU0b8qtbLXMJ7UDRTv/iROW2c3Nwx/KJuNB5fVCAn1VyFEKI4WZYhTMFb0NDb8UtRq+ZvN6Dv78/YmNj7TEKYJfLZfsfj5aWFltc+IMf/AA33XTT+9utt96K//qv/5J4FmII4c+y1+PMiLOfCWdvzqhxPFitbmlOAiYmR5pdgCKPkVEW5fBVOJE6VNmMX795yCYSLFTCvNfXzc/Aty+ehO9eOgW3Ls3GTWdk4XNnZuNr50/A9y+biv+6dhbuun4W/u3qGfinCybh9vNyHJE83oTyv145DT+6ahr+cfkEy2iSEh3iU1c3hBAjj2EfgTyCODAw0P1ILxTMQUFBdp9RZ9ouTiScuW9oaKiJ7/j4+Pe3uLg482H3FeRCiMGn1+Pc3Serhm/95pjJITMuFGeMjzfrRnVLB17fV4HDlU0+mZ6OCyUPVTTjtb3l1g6cQGTGhuGK2Wm4ytkunJaCJc5EY0Z6NKamRtntvLGxONN57Pwpybhkegoun5WKK937e26vcB47f2oyFmTFIS0mVJ5mIcRpZ9iFMyPLFLYf9SJTJFMsEz7f18bxUcLCwsxnzZR4v/nNb97ffvnLX+KrX/2q2T6EEEMDp7N9FwdG2eJA34sCBgb44dzJibZYsLv7GLYV1GF7YR2K61qtjXwFxjdqmjuw+lAVntpWgsrGDiREBmH51CR8+ezxJpgTI4Odcd39go/Ax4MdQRwfHoTshHCL4k9JibKqgEmRIV5dkVIIMfoY1rMdBXFkZKTdb2pq+lBEmUK6sbHRHqMwZvT5ROKZx6FPOiQkxPbtu/ExIcTQwd8oFwd60tFF+pjH2QOLv4yNC7P0dDMd8cx/v76/Emtzqy1fsa+IZ/q6n99ZircPVJo9IyI4AJ9ekIkVc9MdAR1skyshhPAWhl04Z2ZmWmT56NGjH4o608Jx6NAhi0inpKTYvh+HJyr90e2TXieEODUoCK0AijurBhd3+arvlIvUGHG+YGqy5bOmRYGR501Ha9Hm6r2C5s2wMAnT8a07XIO8qmbLsXzDorFmwaC1ghMrjchCCG9iQGc7Cl1ms2C0mIv8uIiPcDEeH2PEmI9RGDOt3N69e7F9+3ZUVVXZfhTF06dPN3/ywYMHLZ9zZWWlPX/48GFs2bIFERERmDJliu0vhBiBOMq5r8eZ6eh8bXFgX+jlPWNcnGV+CHTaY39Zk/l8mcfY1eW9WTaYdo6LIl/dW4H95Y0WtJiZHm3e5PGJ4fIjCyG8kgGd7bhoj4KZkWGKXqaNo5im+GW1Pz5eUlJiQprC+IEHHrDy3Lt27bLX017BXM2MOufl5eGhhx7Cxo0bsXnzZrz00kt2Py0tDWeccYbtL4QYeVjE2dWFdkcU+mI6uo/CqPPY+DDcuCgTWfHhKKprxRuOcN5T0mAV8byV5o5O7C1twN+2FKGm2WW+5AumJWNicgTCg5VjWQjhnQxIOFM0U+R+73vfs0V49913n4npZ555Bj/+8Y+tfDbFcmFhITo6OlBbW2vRZOZbJoxIMPPFlVdeiVWrVpn4/s///E/85Cc/wYYNG/CpT33KnmNBFCHEyIMV4Vxd3Wh3dZu31awaJpx9N+JM6Otl5ofF4+MsywYF8yObCrCjqN4ro870udOe8erecrQ6fYGL//jZz56Q4NNXH4QQ3o//jxzc9z8RRpe5UQCPGzcOs2fPtuwWLL09Y8YMqwZIK8aECRPMcsGFgKwMOGvWLCQkJNgxaNfg40lJSZa3OSsry8p4z5s3D+edd54dIyYmxvYdKLSIFBQU4LHHHjMBzmMxyi2EGBw6e46ZKHx+ZxkqmtqRERuGa+dlWHo2Lo7zVfycCQTbgBMJLpw8UtmC6mYXggP8EB0WaO3kLXAicLS6BS/tKcOGI7VwOROoi6cnY/mUZExOjrS2EEKI4YITedqIn3zySdOel1xyiaU8Hqo1b2OcP+g1i78Z5V6zZg1WrFhh0fCVK1cqy4YQg0irqwv5Na349uM7LW/vouxY3PfZBbo074aZRt46UIk/vnsUe8sakRodYgsHP780G3ERwQga5ZH5bmfiVNviwrM7SpytFEeqmjHWmRR8+5IpWOD0BS4UFUKI4YRBU66vo5MhOTkZd999t2VZY8KIoUDX1IQQ/aaz+xia2rtMQIUE+Jlg9uVI80fhgjgW9mB1vLiwQBQ6kwymp3tlbznqHME52uHEoKCmxfI1H6poQnpMKFbMS8fU1EjzugshhLcj4SyE6DfMT8wUZBTOwYG9wln5xj5MbHiQZdhYMS/DsktwseCTjtDcnF9reY5HK/S37y1txF83F1naPUaXZzuf86JpKZaGTvMnIYQvIOEshOg3jDhTOLPEcnCAvy2Kk176MPQ1p8aEOIIyGQvHxSHSaaMDZU1WjnpXUb0tphuN/riCmla8d7QGG47UWOSZRV/OmZiIrIQwpZ4TQvgMEs5CiH7DTBofjTir6NDfw0nFrIwYnDsp0awbXC/35v5KvHOo0qwOo6myICPNLK++Ma8G6xzRzPzUjDAvc0Tz2RMTZNURQvgUEs5CiH7DiHODWziHuCPO4sQsHhePy2elYlxiOPNxYu2hajz6XiHqW13odsTzaIDR5cOVTY7wr8DOonpEhgbi2nnpWJAdZ9UShRDCl5BwFkL0m66eHjS2u60aFnH2l1XjY4gICTBLw81nZGFsXBjqnEnHprwaPLShAIerWqwdRzIUzUec9/mw835ZETEsKADzxsbgnEmJyIwLtfR7QgjhS0g4CyH6jVk13s+q4e+2arifFH8HbQwpUSG4cFqy2TbSokNQUt+O53aWYvXBSuRVNVtbjkSYr/lwZTPecd7nG/srbcI0KTnCPsuklEhEKouGEMIHkXAWQvSbLqaja+sVzow4y6rxybCqYkJEMFYtHovzpiTZ4sGi2jY8vrXYKu81OYJ0pIlnvh+W0X5jf4VZS1j0hp9hyfh4XDkrTd+7EMJnkXAWQvQbRpwbzKrRY5kULKuGQs6fCCPPSVEhuHRGCm5ekoXIkABL6fbKnnLcuyYPpQ1t1rYjAS4ELHPez/3v5uGl3eVoaO1ETGggrpufgYud98/vXQsChRC+ioSzEKLfeNLRWcTZXQBFEqp/sL1yEiNw/uQkE6EpUcEormuzbBt/21xkC++aO7rce58emCrvQFkjHt1UiDWHqiyDRlpMKD69MNN8zfRpy9cshPBlJJyFEP3mQ+no5HEeMGwv+oNvXDQWZ01IsLRuRbWteGJrMV7eU449JQ3vt+9wwpRzLa4u5FYwe0YlHnOEfGl9G5Idcb/MEcx8v5OSI5WvWQjh80g4CyH6DbNA9Fo1jjkiqjerhhgYoY74ZEXBW84ch2vmpJuYrmruwN+2FJltY7cjnilihxNeSTha3WKR5j9vKkC9I96jwgJx+cw0fPHs8RZ1ZsRcCCF8HY2EQoh+wShoR2c32lzdFqG0yoFBtGoo5DxQ6BFOjQ4xz/DXL5hoxVIC/Pywq7gev3krF39xBCzLWw9H5Lm8oR1v7a/Ab52/++7haruqkB0fjs8vHYeLpicjPjxI9gwhhHAj4SyE6BdMT9bW2WPRZorlkAA/hAX5y6pxkoQ6bZeTGI4Lpibh2rnpWDwuzqK6W/Lr8NKecjy7owRvH6g0KwfzKQ8mzrzHFngeqmjCW87feMb5W+sP95bSnpEWjWvnp2P5lCTzZAcp0iyEEO+jEVEI0S/aGG3u7LUQBPqPsXR0ElWnBlPVpURz8d1YrHTE6hnj4hEbFmQL9Oh7ZmYLLtI7XNWM2haXfQeM9p8sfC3FMdPLFVS34lVHoNMi8vq+SisBPj0tyiodMtqcnRCu71cIIT6CRkUhRL+gaGvp6LYIc3hQgC0UUyq6U4ct6O9MRJbmJOBL54zHV8/NMQ80Be7Oogb86o1c/OfLB/DQhnzsLm6wzBfHTkI88xXtnb1R5icdUf7PT++2HM37HZFOr/qFU5PxuTPHWZ5mRr6Vck4IIf4eCWchRL+gt7nV1WU2jYgQf/M4i8GBEpWLBOktPn9KEm5bNgGfWpBplfoa21yWbYM5le9dfQR3vXIQ//fuUbywqwwbjtTYc/k1LZY6rqa5A9XOxjzMR6qasSW/Fi/vKTPR/cvXD+InL+7DPW8dNmsGPdQtHV2YmhqFzy7JwvXO35udGY2o0EBNiIQQ4gSMOXYyoYsRSkdHB9asWYMVK1bgvvvuw8qVKxESEuJ+VghxKjDayVLRf1x3FJOTI3Hr0mwTW2LwYbT5YHkTNjvCl1tpfTsqm9pR39pp9o70mFCkxYYiKTIY0SGBiAwNsKsAAf5jzL/s6u4xUUwRXdHYgXJHVFNY17V02vFZgIWvHZcQjoXZcTh7YgKyHNEua4YQYrTR3d2N1tZWrFq1CsnJybj77rsRFhYGP7+hGc8knIUQ/WJjXg2e3V6Cv20tdsRWLG46IwtXzEpzPyuGAgpgepvXHqrC2txqE9GN7V3och5nwg0O3xzAOYrbPc9oPob/O/85t7RceG6ZHIMe6glJLMSSiLPdRU0CHDEuhBCjkeEWzhothRD9orWjC03ORhEWFRKI0MAA9zNiqAh0Bn4WSTlvShLuWD4Rv/r0HPzr5VNxy5nZuHBaMuZnxWJCYoRFj1n+nAs26T3n95MSHYxpaVFm/eAk586LJ9vrf33DHPzL5dNw6axUy8/sP0QnFyGE8EYUcRZC9Ivnd5biyW3FWHe4BlfPScPKeRk4Myfe/awYajhSM8cyfcwsmELbBUt0s1gK/ecdXT3v532mZYML/CKCAxETFmjim5HmWOd+mNvSIYQQ3oAizkKIEQkFWlN7b8SZHtnQQA0fwwnbnR7k1JhQK5iybHKipY7jIkJGoL98znjcdm6ObV86ezw+uyTbmdykW8R5TmYMsuLDbOGfRLMQQpw8OvMJIfoFU9ExwknZRQHGAh5CCCGELyHhLIToF0xF12wR5zGWyUEeZyGEEL6GhLMQol94Is5EEWchhBC+iISzEOIT4aIzRpyZG/gDj7OEsxBCCN9CwlkI8bH0HDtmCwNZrpkCmh5nCucQLQ4UQgjhY+jMJ4T4WCiWG9o60d7VDX+/MZYvmLmCA1hNQwghhPAhJJyFEB8LUwM3tHaio7PHyj1HhwYiyLnlIkEhhBDCl5BwFkJ8LD3uiHNHV7flEWYxjQBVmxNCCOGD6OwnhPhYuo8dQ32rC+2d3RZxjglzhLOKaAghhPBBJJyFEB8LPc41zS60uXqsjHN8hISzEEII30TCWQjxsVA4Vzd3oK2zy4RzUmSwRZ6FEEIIX0NnPyHEx9IrnF1odXUjONAfSVEhtjhQCCGE8DV09hNCfCwmnFs60EbhHOCHZEWchRBC+Cg6+wkhTsgxZ+vs6en1OHd2W/7mXquGPM5CCCF8DwlnIcQJYSo65m+ua3HZbUiAHxIjQxRxFkII4ZPo7CeEOCFMQVfX6oKruwestR0a5G95nCWchRBC+CI6+wkhTggXBFY2tqOr+5iV2mbVQIpmFQ0UQgjhi0g4CyFOSEtHF8opnHuOmWhmtFmiWQghhK8i4SyEOCHNFM4NHY5w7kGsI5rjI4LdzwghhBC+h4SzEOKEUDiXNbSZVSM2LBAJEs5CCCF8GAlnIcQJ6RXOvVaN2DBGnIPczwghhBC+h4SzEOK4HDt2DM3ttGpQOPcgxhHOCeESzkIIIXwXCWchxHFhlLmxrRMVje3o7j6GuPBAJETKqiGEEMJ3kXAWQhyXqqYOK7XN6oHhwQFm1YgKCeh9UgghhPBBBiycXS4XDhw4gBdeeAH3338/fv/73+ORRx7Bpk2bUFtba5d3P4ny8nKsX7/eXnfffffh3nvvxcMPP4y33noLJSUl6Onpce8phDhdMNJc3eSC/5gxSI4KMatGUIC/+1khhBDC9xiQcKZorqiowMsvv4wHHngAv/3tb3HPPffY7ZNPPomdO3faPicSz3y8paUF27Ztw6OPPmqCmcKbG+/zmO+9954JcCHE6YWLAhl1DvAfg7FxYZbHWQghhPBlBiScS0tL8frrr+OPf/wjIiIi8PWvfx133303zj77bBPDv/vd71BZWYnOzk73Kz5Md3e37ffUU09ZhPraa6/Ff/7nf+Kuu+7CqlWrcPDgQTzxxBMWeRZCnF6Yhq6yud0qBWbFUzjLpiGEEMK3GZBwzs/Px+rVq5GRkYFzzjkH559/PhYuXIhPf/rTmDp1qtks3n33XVRXV7tf8WFowTh8+DCampqQlZWFCy64wF6/YMECLF26FLNnz0Zrayvy8vLcrxBCnA56jh1DUW2bRZ2DAvyQkxhhVg0hhBDCl+m3cKbNgsJ49+7dmDlzJubMmWPiNy4uDvPmzcP06dMREhKCzZs3f6zVguLZz8/P9o2JiUFkZKRtUVFRCAsLQ1BQEPz9P9lHyeN0dXVZdLvvxqi2EOLkYbGT+tZOS0PX2NaF0EB/jEsIR4ysGkIIIXycfgtnitS6ujqzYkyYMAHx8fHuZ4AxY8YgJSUF6enp70eUjwcF8/jx4xEaGorCwkLs2LHDxHhZWRkOHTqEPXv2IDo6GpMnT3a/4vhQNNMrzcg2X9t3q6mp6dcCRSHE8Wnv6kZedTNqW3vXK1AwZ8aGIkIZNYQQQvg4/RbOtFC0tbXZfUaHg4M/nM+VYphbfX39CT3OjCTPnz8f11xzjVk7/vVf/9VsHvQ6/8u//IuJ8UsuucQ80x9Hc3OzZfX49re/jRUrVry/fepTn8KPfvQjtLe3u/cUQgyUlo4u7Cqqt6hzXHgQJqVEICTIH37OBFkIIYTwZfotnGmB8NggAgICLHrcF/6bwpiR6ROlk2P0iqKXiwwZLWb0mTYPiumcnByLaB85cgTFxcXuVxyfwMBAjBs3DmeddRauuOKK97fLLrsMZ5xxhr0/IcTJ0dTehW2FFM4uJEYGY3paNEIClYZOCCGE6Ldwphj1eI+P5yX2CGuK2o+Kag98fvv27bbxGJ/5zGdw22234fbbb8eNN95oXmemo1u7dq37FceH/miK7VtuuQV33nnn+9s3v/lNizrzPQghBo6rqwe1LR3YV9poArpXOEfZAkEhhBDC1+n32ZAL97iRxsZGdHR02H0PtEfQysEFf1zgdzwYjWYOaL6eGTVoy5g1axZmzJiBc889FzfddJN5lymcTxS1JvRUUxxTQIeHh39o42NCiJOD9oyCmjaUNbaj0/kNJkWGYGpqFIIlnIUQQoj+C2dGm2NjY20RIBcAchGeB1owuDCPFouJEyda5PhEUGAz8uyJYFMEc+N9j8WCopnHHA2L/Fpd3diSX4sfPrcXP35+L17bW47Wji4rUyzEaCO/pgXbCmstswZT0OUkhiMsKMB+o0IIIYSv02/hzBMn8zcz1/KuXbuwdetWy7dMrzKLmTBNHasGLl682FLUFRUVWbEU5nVmiW3PMZKTky1azQwaLHjCLB1VVVV2rC1btpio5j4eQT3S2VlUj+d3luHVPeV4xdne2F/hCI86dPdIOovRRXtnNw5XNmGH06eZx3lqShQmJkfC38/5Lbr3EUIIIXyZAV1/zc7OxrJly0wsr1+/3oQxbx9//HFb1MfnlyxZYtkxKIofeughK8V99OhRez2jynPnzjVLBVPRvfbaa1i3bh02bNiAd955x4qrMGMHxfmJfNIjDYrktw5Uoryx3YpFbMirxSt7K1Dd3IHO7hPbTYQYSVAoVzh9+GB5E45UtVi1wOnpURZxFkIIIUQvA1KnaWlpuPDCC3HrrbeaT5nltu+44w7zJFMQc5FfUlKS+Y/pd2YkmcVQPH5oWjEuuugiS0HHgimPPfYYvvvd71pauUceeQSZmZn2HDNkjAZoJUmJDkFmXKj7EaCsvg0b82rw8u4y5377qLCbCMErJOsOV2N/WZOJZgrmycmRSInSmgEhhBDCwxhH2A1I2dGOweIlLL9NYczsGPQ0M9rMFHEsYEKLBffZt2+f5XaeNGkSUlNT7fX8c7Ru8PVMS+fJucz9EhMTLUUdrRonk1KOAn3NmjWW0/m+++7DypUrh3yxIC9t06rx6zdz3Y8AYUH+GJ8YgRVz07FsUiImJEW4nxFi5MErIzXNLvzspf1Yf6QGIYF+uGHhWFw+K9UqBgohhBAjFVp8WWtk1apVph8Z1GUyi6FyLgxYOI9kTodw7ujqwYYj1bjr1YM4Wt1iiwU9nDE+HtfOz8C189JVPEKMWKqaOrCloA53v34IxfVtmJUeje9dOsUmf6oWKIQQYiQz3MJ5dBiJRzBM0zUxKRI3LsxEVnz4h/Ld0rKx8UiNpfjSYkExEqG3ubiuDc/vKEVlcwcSI4Isb/OklEiJZiGEEOIjSDgPAiwScfGMVNx58WQsn5LkfrSXtw9W4s4ndqGyUWXAxcijtsWFA+WN2JBXjaa2TsxIj8YF05IR4K+hQQghhPgoOjsOAowyJ0QEY97YWFy/IBOfXphpC6wIhcne0gbsd8RJXavLHhNipMAKge8drUVDexcyYsMwMyMGk5iCTtYiIYQQ4u+QcB4kqDOiwwJxzqRE3HxGlvmbY8N6KyjSB72vtAnVzRLOYmRAi0ZLR5flbN7ubAF+YzA/KxYz06IQFx5k/VkIIYQQH0bCeZChAJmSGoXfrpqLuWNj7DFmLWBFtoY2CWcxMujsPoaC2lbsL2tEYU0rgv39zGY0LS3avYcQQgghPoqE8xDASmsRwQG4YlaaRaDbXN1493A1fv/2ETyysQCuLpYUd+8sxGmAZeHf3F9hmWBiwwPtCsnY+DDrt0IIIYQ4PhLOQwCvclM8L8yOxaLsOLNwMOXX5vxavHOoCruKG+wyuRCnA5bWZpXLTXm1KHdukyNDsHxqEpKjQhDgL4+GEEIIcSIknIeQjNhQzM6IxpzMGESFBFiO5wPlTXhpd5lZNxiJVuBZDDd1LS7sK2vEoYom898z0swrI9Ghge49hBBCCHE8JJyHEFZQnDM2Fv9wTg6mp0cj0hHPLMn99PYSPONsFC89yu8shpmjNa14Y18FWpyJGysDznImd4w2B/bJQS6EEEKIv0dnyiEmPMgfE5Mj8JnFYzEtNQpdjlBuaOvEmwcqcf/aPPx5YwGaO7osy4EQQ01TexeOVjVjR3E9Ojq7LW/zwqw4sxbJpCGEEEJ8PBLOQ4yfI0iiQgOxdEICzsyJR05ihIlkLspafajKos/P7ShBSV2bxLMYcopqW5Fb2Yzqpg6zZkxNjcQEZ2InhBBCiE9GwnkY8BvjiOeQQCyfmozLZ6UiJiwQYUH+ll2DeXT/+ek92HCkBi3tWjAohg5Oy3YV15vPnraMqWlRGO9M5Dz5xoUQQgjx8Ug4DyPZCeH41IJM/G7VPNy4aCxykj6I9P11cxFe2FWGY4o6iyGAVzNcnT3YVdKA3IomhAX6Y2lOAjJiQt17CCGEEOKTkHAeRkIdsZIWE4J5WbG4cnYazp+chJzEcItIM8PBuiPVVv64rbPb/QohBgdmcPEUO2H/SogMtmwvic6tEEIIIfqHhPMwQ5FMAU3RsnxaMs6amGi2Daaq213SiBd3l6OA4sb5txCDRWNbJ9Y7EzPmbQ4PDsDEpAhkx4chMkQp6IQQQoj+IuF8GpmfFYtr52UgJSoEQQF+jmBusRzP7xyoRGlDm3svIU6dulYX3nL6VWVTh+UX50JVCmhnHieEEEKIfiLhfBqhZkl3RMwdyydaBJAwVd3fthThvjV5eGVPObp7jqlIijglals6kFfVgvyaVnR0dSMzNgyLxsUjJNDfvYcQQggh+oOE82mGFQWZqm7lvHQsHh9viwOZqm5tbjWe31WKF52ttrnDvbcQA6e4rg27SurR2N5pnubxieEWdQ70189fCCGEGAg6c55mKF7iI4Lw6YVj8ekFGZiUHImkqBDUtriw+mAV7l2bh01Hay3Pc4urS9FnMSB4xeJIVQu2FtTb/ampUZicEmXRZtk0hBBCiIEh4TxC4ILBi6al4Jefmm1VBlkKmUL5UHkz/uWZPbjnrVzsKWlQiW7Rb5jZkFUp86qaLaMG+87sjBhMTYl07yGEEEKIgSDhPEJg9I+LtZjr+dKZqbh6ThoWZMWhs7vHos+0bjy6qdCqDVbLuiH6QbejnDnZor+Z862M2DDLHc4rGkIIIYQYOBLOIwiKZ15C50LB86ck4ZIZKZa2joK6pL4N7zri+ZntJZYd4XBls0p0i4+ly5l0bSuoM898eJA/5o6NMW8z0x8KIYQQYuBIOI9Q6HW+fGYqPrskC+MTwhEc4IeaFhee21lqGTde3F2G6iYXmtq7rHQ3RbR0tPBAP3NLRxe2F9WjsLbVyryfOzlRBU+EEEKIU0DCeQTDRYPLJiXhH5dPwDmTEt2PMktCK/6yqRBffWQrfvf2YWzMq0FVU4cjlDpNMAlR3+bCTkc0lzW026QqOSoEC7JjERsW5N5DCCGEEANFwnkEw4wbceFBmJ8Vh1WLxuIfluXgzAnxCAsKQHljO3YVN+D1fRV4aEMBfv1mLn7x2iH81ysH8J8vH3DuH8TvHVH9iCOw3z5QaZfr6ZcWvgGvRqzJrbIczhTN09OikBARjCCloBNCCCFOGp1FRzj0Pcc74pmX2T+/NBsr5qZjmiOCokMD4XKE8JGqZryxv8IWDj64Pt9sHPeuOWK3f1x3FH/eWIAntxU7Arsc2wrrUVrfhvZOlfP2Zvj98qrEhrxas/IwQ8u8rFhHNCsFnRBCCHEqSDiPEsY4iofZEFiim95n5uM9EfQ60/dc3eyyNGQv7irDL1/PxU9e3IfX9lWYrUN4LxWN7ThQ3oRDztbh9AMWPGGGFn8/qWYhhBDiVJBwHmX4OQL63MlJuPOSybj35vn4w2fm4SfXzMCXzh5nFQhnpkfjwqnJ+OySbHx6YSbmjY0xrzSFNO0aj2wqwH+/fghPbSvGoYomNLd3uY8svIWdRQ1WNMfPEcq9eZujEB0WqGizEEIIcYpIOI9CUqNDLE3deY6APm9KEi6alowrZ6eZUF61eCyuW5BheaCvmZuOGxeNdR7LwhWzUs3ywQqE7+ZW4entJWbjeGVvOXIdAa3UdqMfLgxlju89pQ04WN5kHvkzxsdhckqkvM1CCCHEIKCz6SiFkeegAD/L+0wLx6yMGFzliGcK5Yunp2B+ViyWjI/H9QsybVHhbc5GoT0xmVXjxmBrQZ0jnAtNPHOBIfNC17W6tIBwFENbxr7SRhPN/C45UVqYHWdFdYQQQghx6kg4+wAs5z0hOQJfXz4R33C26+Zn2ALDsGB/E1oPrM/H957abQK6slH+59EK8zbzO8yrbkGCI5rPmpiAsfFhCA8KcO8hhBBCiFNBwtkHoLeVl+1jwoIwOzPGLBxfO28Crp6djsy4MCvpzSjlU9tK8PKeMsvIwKpzYvTQ0NZpnvUdRfWobe5AakwoLpmeYino5G0WQgghBgcJZx+CAop5oaekROLsiYm4cnYqLp+VaoUxmHBhT0kDXt1bged3ltriMmbfkPN55EN7elFtq+VtLnImPWHBAZicHGmTJEWbhRBCiMFDwtlHYWqyM8bH4/NLx5n/2RaQBfhhW2EdfvvWYfzx3aMWvWzt6PL6Ut78fFxY1+Vs9Hh3dHajzdVt1gdmHWls70Rjm7M5t83OY63Oc/QTW5lz9zFOJ62uLmfS04iXdpXbe+PEiB53TpIC/BVuFkIIIQYLCWcfJzIkwDJ0/Mvl03DZzFRkxoahrbMHm/Pr8OimAos+t3d1e23WDX4qiuGKpnYrJrO7pAHvHKrCszt6s478YfVh/PerB/EfLx/AXa8ctAnF09uKseFINWpaRsZiynWHqy3aXNXcYX52TojOzElwPyuEEEKIwWLMMQf3/VFPR0cH1qxZgxUrVuC+++7DypUrERIS4n5WnAiKYgrA3SWNWE8R5gjHPaWNCA/2t+jlORMTLVNHemyoeaVHM4ws17e6UFDbavYGLoakaGZkmVFkbow0M3LLCnxtzsYc2Hwd7SzhwQG2sXIj0wKmRociw2kXesXHOhsfZ+R+OOB7LKhpwZ825GPtoWqLiC+fkoRPLcjEwnFxo/67EkIIIT6J7u5utLa2YtWqVUhOTsbdd9+NsLAw+PkNzTnQ/0cO7vujHjZeQUEBHnvsMVx55ZWYOnUqAgLk8fwkWJUwwOlgaTGhSIwMNuFH8Vjb7EJRXZsVTokJC0RUSCAinW20VqBj+elCRyxvKajD2twqrHYmCIzUbjhSg10lDcitaLbnq1s67POzpDnbhjmQgwL87XO3d/ZWZGSbbC+stzR+xfVtFn2mcOXrKL4ptGmT8Hdez2MMNhT1hXWteGVPOd46UGl/PycpAjcuHosZ6dH2PQkhhBDeDuO/nZ2dePLJJxEREYFLLrkEgYEs+jU0WkURZ/F3MJK5o7AOf1qfb+KSApKCmjmib1w41vJGD1F/HDLYzWnDeGZ7CZ7dUYq61s4P2U8CHFEcFhRgvuDMuFAkO5+ReZBjnS3GHUXu6OpGWT0tHS2WwYK3nmOwOdgmE5MiMXdsjNklGPVNctptKCK/XAT4tiOY73r1oIn1KSlRttjzBuc7ig0Lcu8lhBBCeDfDHXGWcBZ/B6OljM7uK2swccY0dYxwpseG4awJCfjc0mwThCy+MlrYVVyPl/eU4zlHNFc2dZjNggsip6ZGYWxsqAlkCmdGifm5gh2hTMEb6Pyb0XgG2Z1mMfHMiUWj0z5VTe0WcT5U7myOkGYEmAKckXlG6DnZyEmMsAgwF+ulOGI8NOjU2oxCnRaTl3aX44VdpZZGcFxiuKWeu35+JlJjQmTREEII4TPIqnEKyKoxOLAqIcUjxSSjl4y21rZ0oqKx3TaKaH+nQ4Y5IpB+35EMM2UwI8YLu8rwpjMJYI7qKamROH9KMpZPTbLKejMdYcuKilnx4UiPcUebI4Lts0eFBiIipNfXzFvmwqYgpvDmQsoU55beb/qb0xzRGh0aZH7xkvo2s7mUNbSj3GkzljrnY8yZTSsH7R/+zsa27g8UzPXO59hX1ojX9lbg7YNVtpiRAv2SGam4YGqyRZ1Hq41GCCGEOBkY/x1Oq4aEszghFMwsoMHILAUfPc8UfzuL603IRThi0mNFGKoOeqrQxrC/rAl/21LkiM4me78r52XgytlpWDQuzj4fo8ADFZyekucU2OMTIzAzIwbTU6NMeDNTyRjnPx6TqeKKatuwuaAWB8qbrP2YxaP7GNDpCOhOR9h39fSgx7llE/K4nqZk5J8LE5uc/auaXNhb2oBX9lTguZ2lKHaOyfdO4X/9/AzMyoyRaBZCCOFzSDifAhLOg4+fI8ZCgwIwISmy1yZQ1xs15eI4RnIZlWXUlSJyJFJa346HNuRjd3GDRdEpNG86I8sixIMpNCl4afWgnWWOI6LPn5KIWenRFrVnhLm6ucMEc+/EowFv7q80zzUFMBcV0kdOSwjfI98X29qzmPG9vFo8ua0YT24vxntHa80mkhUfhgunJeMfluUgOz58xLa/EEIIMZQMt3CWx1n0C0Y+C2pasTm/1ry1+8ubzM/LdHXMGXzWxARMSo5AcMDI8T2zDDXf709f3I/yhnbzGX/2zCx7v4yWDyX8WTW09fqgS52/XVLXisOVLcit7F1UWOk8zqp+tFrEhAZZlJrvidFvTlYYgaaYZsS8vrXXJkMhHeDvh8Xj4rB0QrxNAuih7o34u/+wEEII4UMMt8dZYSrRLxjRnJAUgQumJeOauelY6IhQplpjBPR5R0i/vLsMWwvqLB8yLQYjAYvuFtWj1LmlP3lqaiTmj421IiFDDWe6FMX0TnNB5VVz0rHCabcVczNw9Zw0XDQtxZ4LdH7Y5Y1tVrHxjf0VeGZHCZ7eVmLZP15y2nT94RrzZdNjzUI1V81OteMwXzMXNvJ7kWgWQgghhgcJZ9FvKNC4MO7aeRnmE2a6NQq3Q+W9HuJHNxVadglGerto4j2N0OrAvMwbHWHPBYJTU6JsESA9ycPtBebfYzR5Zka0027p+OaFk/HPl03FF84ah0tnppjXmpOS5OgQs75QcNPikei8V6bGm+uI/ctnpuKLZ4/Ddy+dioumJ5slRAghhBDDi6waYsCwwzQ54pg+501Ha/DY5iKUN3YgyH8MMhxBd9XsNJwzidaNyCHzGH0c7NENbS7837tH8cD6fLS0d+HrF0zClbNSrUjI6YbvjwsC21wfVCakD7q5vdNS3RHaNWh7YeYS+p5DA/3Ma85qjv3NxCGEEEJ4O7JqiBEPZRvTtE1MjsB5U5KwanEWFmX3lnhmXmF6oB/bXIzX91WgrtWFru6e3hcOE92OMt1b2oi8qhaLfLMkNv3XXMQ4EqDuZVuxDZn6juW6GXGenh6NOWNjbJudGYMZ6VE2+eBCQBadoQ9aolkIIYQ4fQxYOHd1daGsrAw7duzA6tWr8eabb2L9+vU4cuQIWlpabFHUJ9HT04OmpiYcPHgQGzduxNtvv23HWbt2LQ4fPozGxkb3nmIkwywS4xMirGIdt6UTEiyn8aGKZry8pwxPbiux0tZ51S22sG04YO9jHmWW1c6rbraILa0OFKcjPec0xTTblBt92Fr0J4QQQowsBiycKY7feOMNMIvdDTfcgKuuugpf+cpX8PDDD1sqOIriT8LlciEvLw//8z//g9tvvx3XXnstrr76atxyyy144IEHkJub695TjHTo302KDLEFa3csn4hPL8y04iCszvfWgUr8+/P7baHbkcomyxTxydOqU4N/gxaIrfm1yK9uNc/w8qnJlr9ZCCGEEOJUGJBwLi0txeuvv44//vGPlivvjjvuMC/JWWedhW3btuG3v/0tqqqqLJ/eiaAX5bXXXsNvfvMbFBcXm/C+6667TER/5zvfwZlnnomoqCj33mK0QC8zrRCXzUzFty6ebD7nmNBAy1H8/M5S/Pfrh3DXqwex+Wit2TeGCuaY3nCkBhWNHVY+Oz0mBHPHxljFPyGEEEKIU2FAwpkR5XfeecfE77x580z0Xn755bjmmmsQHx+PXbt2YevWraivr3e/4sMwGk0rxubNm1FUVITzzjsPl156qW1MWH3xxRdj1qxZSEhIcL9CjCZoL2AZauZJZsq1FfPSTbS2d/ZgR1E9Xtlbjr++V4gnthbjnYNVyK9usfLdgwUzaTD1HL3V1S0d5h+ekRFtmUBUIEQIIYQQp0q/1QS9y4WFhdiyZQvmzJmDpUuXYvr06UhLS8NFF11kQpr7vPvuu6iurna/6sPQH03RfPToUcTExJhwZnSZQruurg7BwcEmwGNjY92vODH8WxTiFPF9t/5YRcTQQU8u06mdNTERnzszG9fNz8Di8XFm52A0+NmdpXhgXT4e2VRgVg5W9CuoabHnmFmCVouThZUMcyub8e7hKrR0dFue5MXj4nu9wu59hBBCCCFOln4LZ4rS2tpas2tMmjTpQ1FhXqZPTU1FZmam+ZO58O94UNTu2bMH7e3tJpL/93//F1/96ldx8803m+2DFhC+/pPEL0Uz7SA8DlOQ9N34mDj9sKogI76Xz0rDdy+dgjuWT8DSnARboFfZ2I41h6pw9xu5+OYTO83C8cqeMiv0wfRs/Vlgejx2OSJ8/eFq1LV22qLA6e6CJ8Odt1kIIYQQ3km/hXNbW5sJU4paRoQ/mh85PDzcNopr5lM+HnxtZWWlZdPYv3+/RZnPPvtsy7c8bdo0s4E89dRTeO+999yvOD5coMgsHD/5yU/wpS996f3ttttuw69+9asT/n0xvFCw0r5BAb14fDw+tzQb375oMq6dn2Hp11o7u6wU9nv5tfjLe0X42Yv78cPn9uK/XzuERzcVmDeaAnt3SQPKGtocUd1ldoy+sEohPdO0fjAN3ibnWEzZtmxSoqV0Cwv2V7RZCCGEEINCv4UzI7yeRX+MFgcEfDi1F/8dGBhoEV9Gp08ExTcFM20bCxYsMI80C5YsX77cbBs7d+7Ehg0b3HsfH0a4uTG5ted+33+LkQWtEimOeJ6fFYvLZ/WWjGbZblbDY0Q4MjgQRXWteOtgpSN+y/A0y05v792e4rbtg+3ZHaV4cXcZXtlTbhvFMrN2PL29GBvyalHf2mminMJ5YlKk8h4LIYQQYtDod+VA+pDvvfde3HPPPfjlL3+Jc845BykpKe5nYZkynnzySezduxc//elPsWzZMvczH0DR/IUvfMF80lwE+OCDD1p2DordhoYGPPPMM/jrX/9qlV+Ylu5EIphvmcKbQr6vSGekmTmlWT1GlQNHNsy1zNzOO4vqsbWwDruKGqxct8t5nCWyu7uPoQf0sTv3uTnfOftDcICfRbGDHDFO6ItudXXZPlwAOD4hHBdMS8b18zNUlloIIYTwcqgDqS9HXOXA0NBQeyOEBUo+aodgpJl2Di76Cwo6fuovCh9GlfnBkpKS4O/v/744ZsSaCw35QemRpjA+kabna7g/RbHHIuLZGA0XI58A53uODg3Eguw43HxGFn589XTcf8sC/GzFDHx1WQ6umpOGC6YmW5R6bFyYlZ1mT+no7LFFgDUtLtuY7s7RzFZZj6nwvuy89sZFY5Ho/FsIIYQQYjDpt3CmDYOimFkv8vPzzW7hgQKX3uXy8nJkZ2ebgD0eFLxcQMgoM2cHfYUx/c/Nzc12n+L3k2YKPBb3Od4mRj6cL9EDzTLS9EBnJ4RjamoUFo2Lx4XTknHtvHTcsDATty4dh6+dPwF3XjwZ37hgIm47N8ceu8kR2zedMda5n42vLBuPr503waLMLP3N43ki0kIIIYQQg0W/1QUFKa0ZkydPNjvGgQMHTCwzOszczIcOHbJI9Ny5c23xYE1NDXbv3m0LAT15nRlhZgo7Ps/sHFwgyIIptGmwjDf9zdyH4rpvNFp4P/ymKaTjwoOQkxRhkWiW8KaIXjkvw1Lb3epst5yZhc8uybIotWf7rLN9agHT3sVbERYhhBBCiKFgQGG58ePHm7eZVQLpaeYiviNHjuCRRx6x+4w0n3/++WbD2LFjh3mh77//fhPPhPYK5n9mVJpRaz7HvM4U4evWrTOPNI+xaNEi218ID5xERYQEWj7ozLgwjE8Md7YIZMWHm00jQBFmIYQQQgwxA1Ib9CBfcMEFuPXWWy26zNRvX//617F27VqLNN9+++0mmj3ZNRhNZuTZk1uZ4od2D1YcvOWWW6ygyi9+8Qt8//vfx9NPP43FixfjuuuuM3EthBBCCCHESML/Rw7u+58IBTH9yXFxce/7nSmmZ8+ebfmYFy5caI/T1sHFfVxMOHXqVNv4GkILBhcIUmAzupyYmGjWDO7DY7ACIYupnIxNgysrWRb8sccew5VXXmnH/GjaPCGEEEII4R1wvRyzrNG1QI16ySWXmF4dKrtvv9PRjQaY6WPNmjWWF1rp6IQQQgghvJsRm45OCCGEEEIIX0bCWQghhBBCiH4g4SyEEEIIIUQ/kHAWQgghhBCiH0g4CyGEEEII0Q8knIUQQgghhOgHXpuO7g9/+IPdKh2dEEIIIYR34klHd/PNNyMlJWXI09F5lXBmhUJWMaRgZrlvFkGRcBZCCCGE8E48wvnLX/4y0tPTTTizwJ6Ecz9obm7G22+/jRtvvBFjx45FQkLCkDWcEEIIIYQ4vVDG9vT0YP/+/bjiiitw1113WbVqVqoeCrwu4nzo0CE8+OCD1ogSzQOHM7fa2lo8//zzmDNnDmbOnGmlK8XgoPYdWtS+Q4vad2hR+w4tat+hh5KS5a9Xr15tUeBLL70UAQEBw6LH+HcXLlyIa665xkpvK+LcDzxfWH19PYKDg222MVS1yr0Vl8uFAwcOWNT+H/7hH/CFL3zBvEJicFD7Di1q36FF7Tu0qH2HFrXv0MOgJQXznXfeiaqqKvzf//2f2SaGKvrrgfqP69w4EYqMjBxS7edVwpnw43CTYD45OLDwcsfKlSvxta99DV/5ylc0sAwiat+hRe07tKh9hxa179Ci9h16PML5G9/4BiorK/HII49YGw+1cCYe7TfU+s/rvAxsMIbnPY2n7eQ2T1tqG5pN7Tu0m9p3aDe179Buat+h3dS+w7MNdzt7tN9QIxOwEEIIIYQQ/UDCWXwIztZ4SYXG+qCgoGGZvfkSat+hRe07tKh9hxa179Ci9h0e2K5MBeytNhj/Hzm47wthcOVxS0uLrU7Nzs62gUYMHmrfoUXtO7SofYcWte/QovYdeug1bmpqQlpaGubPn29ZNbxpkuJ1iwPFqcHu0NbWhoMHD1oFnuTkZKX1G0TUvkOL2ndoUfsOLWrfoUXtOzxwclJQUGBZziZMmGBtLOEshBBCCCGEj6GplhBCCCGEEP1AwlkIIYQQQoh+IOEshBBCCCFEP5BwFkIIIYQQoh9IOAshhBBCCNEPlFVjFMO6+0VFRdi6dSv27duH8vJyNDc3Y9GiRbjwwgsxefLkD6Xa4Ve9bds2bNq0Cbt27UJ7eztiY2Mxbdo0XHLJJUhMTLSk5R46Ojpw5MgRvP766zh8+LDlvoyMjLTjXnDBBRg3bhwCAwPde8Pq05eVleHVV1+1dD8NDQ2WAH3evHn2nmbNmuXec3TQ3/ZluzY2NmL16tXYv38/SkpK7N/BwcGW8mj69Ok477zzEBMT86H2euyxx/DWW2/Zvh/lrLPOwtlnn/2hNvPV9iVso+eff972ZRv0hW0wfvx4XH/99Zg0aZL7UfXfgbRvRUUF/uM//sNuT8Q555xj/XLmzJn2b1/vv+xP69evt7Zl6q26ujrLV5uQkIApU6bYbz4pKelDYyrTdOXn5+Ptt9+219XX19vz7L8XXXQRJk6ciNDQUPfevd9hbW0tXnnlFezZswfV1dVWuINjyhlnnGG5iPuO8T09PSgsLMSGDRuwefNm25/FPvhdL1myxL67vscfyQykffm5eT7bsmULtm/fbm3M/sUczfHx8TYusD9mZWVZ+3lgG/3yl790/+vDsK14XuT50fMd+mr7enjppZes7xYXF7sf+QD+fjlGLF261P2I9/ZfFUAZxbBTUhhQDB84cMA6KDs1xQA7ZkZGxvudkvtSPLDjr1u3zn40XV1d1jH5I2Cycoo8ijtPvkV29DfeeMOEB3NfMicjByP+LQ5IUVFRJrYJTwh5eXl46qmnTJjX1NTYj4AnVQ5iFDE8Pn8EoyXhfH/bl5+dn5efnZ/V07bcKEQ4EHBQ5yAUHR3tPjrw17/+FS+++KIJCgoIDloeOMCPHTvW8owSX25fwn739NNP49133zUB6Ol3hANxXFycneB4kvSg/tv/9mWfZdvyti/8/GyXd955x06mbOPU1FR7ztf7L9/7M888g9zcXLvP/sXPVFVVZb95imJ+fgYnPGMqvw9OsJ977jkbc/kaTmZ4DN4PDw9Henq67csJOcdmtjHbn5MOHp99+ejRo/Zdsd9zzGbbc7zx/E44xnvEDR/jazmhz8zMtDbuKx5HKgNpXz5O4bd27VqbKLJt2R58Dfdj/2d78rNzHPbw3nvvgRKIvwMKRAY7PPDYzEHMMcLX29fTf1944QXTEHyeQYi+n5P7sqAM24B4c/+VcB7FeIQZTzo8CTLKs3HjRuvAnMmxk/UVHo8//jhee+01OzF99atfxaWXXmqdkIPKs88+azNGRuHYiXmi+8tf/mJRPh7j85//PC6//HI7aXJwYsfnQMNoEZ/n4L9mzRr85Cc/sWNcffXVuO6665CTk2P784TBkwIHor4z2JFMf9uXbcVBm8KD4uKKK67ANddcY1E0DhKMglCwsIIS28YzCDFax9exrb7yla9YxJTfCTfuSyHhERG+3L6EgyyjI3wN9+Ow5WkrRk8ZveAJke3FAVv9d2DtyygO25ARNk+7cmMElCe73bt34zOf+YxFfTwRH1/vv/xMb775pk0SGC3mb55tzPGT7cUxdc6cOfZ5OVlhv2R/5OMUArfccou9hm3MK4CMlPL7YBvzlkKGkTe2GScmbNdVq1bZOE1xyKtbnJDz32w7vp9Dhw7hrrvuskkTx6Fbb73V3h/7OwUPRTl/AxRDI52BtC/bi5MxikCK36uuugpXXnmltSWDFRRufI59l+OyB577KB7ZThwjbrrppvf7MF/L9qJI45jty+3L/ks4fnBM4bj5jW98AzfccMP77cXxg5Nlvp54c/+VcB7F8KTECBtPNlOnTrXylpytcQb30RMjZ5F33323zfDYIS+++GKbSbNTUjzzR8JOz2NwHw7sFNqcdf6///f/bLDh8fj3eCmHPyBy5pln2kDF6B7FIW+/853v4Pzzz7cTJ1/juUTLk+Py5cst0jca6G/7cmMbcjDhxjblD5vtyLbi8zxh8hIWL8l6hAGFB2fRvPzEAYrfBwd2bmxT/n2PyOaJ1Vfbl3iEMyMjfJxWC09bsT37thcFo/rvwNqX7cZ2YFt62pUbo9UUtnx85cqVNjH0vMbX+y8/Iz83f/MUF2xr/u45SaFQYHR99uzZNh7wM3ESzckcI+8UBGwDvo4TPk4gGGWjkJgxY4aJPUb1KPgY7GAf5qSG7UXhwLYtLS3Fjh07TJDwO+X+HMd5fE4mP/vZz9okie+HcH+2M/8mx6GRzkDal2Mtx2BOQvruz8c9z7Ev83UcOzx9mML5ySeftH7HY/HYffswRaCnD9PO4Kvty/5FOG6yn/Fz83zGvnii9qLY9db+29t7xKiEP352cHZ2dnoODuyQH4WDMS0Z7JgcpDkwc192dp7s2BE5k6usrLQTIWeK7PSMJnlOsjy+Z3/OSjlD5MyTx+T+vKxCcc4OTQHOwYr784TBv8d/0ypC4UNhMxrob/tyoGBUgsKEooxtw39TbPA1PAZn0OSjr2eb0Urwi1/8Aj/72c9w3333mcDg433x5fbtC9uA7cP5Pj25999/v/2bwpqRUaL+28tA2pd9mM/xxMeN99lnaaPgmEB/qOeE1xdf7r9sJ7YJ+xQvW1M4cGM7c+NVD8K25WdiO9JmxH0oOjgWsw34/TDqxuPQYsAJBNueQoH7c0yhsKaI4P48NicrHG8oJLhx8sFJIicmPK5HCPFvsY35b/pE2cYf/W5GKgNpX88YzM/MduLz3JdjMH/rfD334RjB277wu6F95ve//z3+/d//Hb/+9a9N7HFs6LuvL7dvX9gOtLgwEPfTn/7U2o12DPZDzxhMvLn/Sjj7AIx0UDjzUggHaf5YPPBEyI7MmSCf5+UuDiQ80VFQUHjwh+W5VMOOzH35Q+NxeTLg/nwdxQs9TjxZ9/2x8e8xgsIfBi0jHhHp7XAQ4cDBAZiDBtuyrzeLAwPblu3MAYGLISg6GCnlzJ4Digdfb1/2U4orDsK85L1z506zwFC0MUrBEx8HVD6n/nvqsB25sJATEFo9li1bZu3YF/Xf48PfPNuNJ3z2V/Y19jG2B8dYfn62A/sioYDxTG7Y7uy7nj5JIc324TE8fZh4Junsw5wAsm0pPvid8Tvhb6UvbF/2e54HeMy+Ame0cbz2PREUf5yM0RZAAU1R5ok2E577eEWG+zGiTAsBxxKOKYyWesYRovbt/Zz8/DyPMTLsaa8nnnjCbtmGHry5/0o4+wA88fGExM7GQZsDSF8oSigweMJi5/UMNhxgProvT3jc33Py8xyXr+PfYQf/aFSKx+D+nuNyP2+HJ0B+Ts7M6X2mJYCXnPoKZ14Gu/nmm/G9733PfGD0nXNWzdn7Qw89ZJduPfh6+1JkMCpHn+0///M/W6Tj9ttvt8GU7fvjH/8Ye/futb6o/nvqULix7/JERrGxePFiE3Z9Uf/9ezztxoglMzkw0kYRwD7GvkYRxr7Mz3y8duBjbAO2hafNODZTXPfF02ae43I/Hpv3GdVjpLUv/JsUiRzjeQWS73M0cqL2PREUZozgczLH4AWvbvSFVz8+97nP4Vvf+hZ++MMf4tvf/rZlk6AgZB/mxJzfA1H7wn7ftGzRbsXfPH3OvKLHBb+8+sfX8dxHvLn/SjgLMchw4OCA/cADD9iCKHo5b7vtNhuE+jJ37lzzmlMQMupBHy4HpS996Utmm+FiIQ4mnoHIl+FgSvHGS9xsN17yX7BggfnguKCHUX1e5mMEWZw6FG48GfKW7cz27xslJuq/H4aflZE3igcK4G9+85smNMTgMND2pcBi6kMKYIpmemk5hvSFE+8bb7zR+i6PxckgF61+6lOfMsHHBWm8SuAL9Kd9OfGgH5yLf+kn5xjAhZjcl2MFFxXytz9aJw79RcLZB+AlEk+EjTM7Dih98UTcOCvkzM7jjeTjH92X8HHP5VTPcfk6/h0eh8/3hX+Tm+e4fS/ZeBsUCby8x0VYvHTFwZcZBDgg89JXXzy2Ge7DS1mM6FEQ0oPL4/CSGaNPbE9fb18O5B5rANuN0QdGQrjojW3raS9eylP/PTU46eNEhAun2GcpNviZPyqc1X8/gGKBIu3ll1+2vsoMLszKwDYibDt+Nj5HgcLP+9F2YF/lY9yPbeFpM17GPlGbeY7L/Th+8z77Nv9GX/hvHp/7cF++j9HEJ7VvX9hWbDPmDqZ1iP2Z2R8ojmkP6Avby+O5Z19nX6aY5pjCqyPMxMHXsz+rfXstE5yE8HH+5nlL/zGj9OyvtF3wWBTR3tx/JZx9AF72YAdnR6Y/iIumPHBAYIdkh2dUiYMHOyUFCgdv7t/3ZMeZJC+ncBbOTsz9uD9fx9fzZMkfBI/rgfljuT+f5w+vr13Bm+BnZjvS3/nII49YWzEhPNP88NIU2/OTYJtyEOfgwAHEM+iofY8PPysHW/Zttgv7svrvqcHxgRkIOAmhF5Er7/t7ovLF/sv3z0v7jz76qPnseemaEUtOJNgOhO1H0caxmH2U+3nEAduHj7Ffsl0+2if5PVC8efow4d/kpIRtxb/D4/I3QFsNH2e/7wu/Bx6HYud4NpGRTH/a1wPbiF55roFg9JQL1Djxo8WL2SH6MwYTthPbk2MHRSC/F7Xv8fH85tkX2af5W+77m/fG/ivh7ANQWHCWyA7K2SBN/R54cuNAw0penG0zgsTOTFsBX8fOSo8YOz5hB2ZqKb6GJzlGmLg/X8cfCn2m7PR9T4z8e/yh8CTMfbi/t8HPywGWl/YefvhhWxjxxS9+0VL/8Yf+0WjdieAJlO3FAZsDCduLg72vt++JYDt5BmEOvmxr9d9Tg5M/5nflSYoWDGbc6a/g8LX+y8/BRWR//vOfzZpCz/eKFStMSPT9zVOAcEEgH+fnp7BjXyQcg2kxYrtThLDvevok92dmE/Zjtq0H9mmKQn5H/H54y42Xz+lL5wSlL3w9c+Qymnq8KO1Ipb/t64FtyUkf/cpsU9oKaB3iuNDfPkzYfhwjPOMJX6v2PT7sl1xMyP7M3zx1hOc37639V3mcRzHs9BwoeNLhTJGdi7NsCggKAs9lD/4A2JHZGdmJKZ55kuLJjQsBWA2Iq+I5y+TsnJfBOVNkR+UqWV625Q+Ax2J5zgcffNCECBOe8xINTwocXBip4o+Q9z0/Oh6DFcb4HFfmc5Ec39dooL/ty/04y2aUmZe7+G8memfKHc8+nkGD3wOjnhwcKCLYttyfz/MxJox/6KGHrP3YVkwDxtm1L7cvJyQclOm944SEkQs+TksMF++wChtFB/svoyV8nfpv/9uX8DMTRoyYW5VtxEgzr5hQPPeF+6j/9lZeY99jAQ1Gi6+99lrrfxQO/I2zTdg2/KxsA/Yz9kf2W2Z5YGSZz3PspXDh2Mw2p2eU/ZffE8Ubr2DxeDwOj8HXs9w5254eUxav4ISDz1O4cF0FxyPuy+Pwb9G2wDzo9KSz3zOQMtIZSPty45UMnsuYl5ltRAFIu4Hnt8/9OXbwu+D+bD+2DduffZqv5++Ewvtvf/ubjSk8H3KM4DnRl9uXtxxHODbwN+tpb2oKZjfieEFdwfUQ9JJ7e/+VcB7FUFCws/JkxAgRZ4w8cVEUUBRzFsjOzs7I2R9PSOzoPMFxUGCH5CUapknigH3ZZZeZX8lzouNgww7MEyR/AIxKM1rHW3bec889106q7PDs4ByU+Pf4nvg3OKvke+IPhYsMeEJgZgn+IEYD/W1fwoH3t7/9rQ0sbAcuCOTzXCzBx7ixTTkAM6rEaAgXX3HiwoGb+zEKRWHH74aL4Cgk+H34evt6RAd94/Td0nfoaS9P9Jj9kQn26VdU/+1lIOMD+yvhWMATFAWIxxdK4dEXngTVf3vTbd1zzz3WXmxTRs4YRWMbeH7zbCuOu4ymeSKeFCRcyMrIM/sy+yQ3+vVZFIX+Wu7L74Xw2GxvbhTePC77MKNvrI7H7Afs72w3ChC2J98bhTj35xhPkUJBxIVvjOrx+xjpDKR9KdLYryjIGLxg/+Y5j/2t7xjMCTiDRhyD2U5sd2bl4ffAcYL/Zp9kH2Y70evruQLgy+3LjWMo24pjCH+7bC/+5tmXOZZQBLP/cgGhRwQTb+y/Y5yZxAfXzMSoggMwxe/vfvc7i7wdD864WQqXs0l+1TyBMl0UZ3UcRHjCpIhgSh52ZF6a8sAOz07+8MMP22DCWSlPopyVMpMBI6rs8B54IuBl1z/96U92QmXn5wmDPyaKckavRhP9bV/OsFlR7Z/+6Z9scDgRXHnMgYIDFAcFRv9YfY2TGQpvDhoUGhQdPCajghzgPfhq+zJyxEjkr371KxuoeYJk3+QlOwpf7sMBlR7Svv1R/Xdg4wNhLmZWuWQkiq9jBMlzAvTACYn6b28lOV7a5u2J4LjKxcGszkYoRChMWEGQAoQRTo657IvMEMNsBZxce2Af5mSGET2m96Ow4ffB34OnAiwnih44WeJ3zokPBSTHI1qS2Oc59vAKQN/jj2QG0r7Tpk37xL5OOJZ897vftbGCYo+TSkaoKZT5e2HbJicnW5SZ/ZL93zPhIb7avsycw0kI+y2jv/zcjDiz71I3sJ048eV5sO944a39V8J5FMOvjj92noAYWTsenCmy43Ej3I8nMIpmRoB4YuM+FCGc8fUdJPg8j8/LqLxlp2Yn5/6c/XGWz5mlB+7Pkyr354yf+/N47Og8QfYV5aOB/rYvPxsHAw4QFBAngpdmuS/bme1EIcfvwfMathWFnOeYvK/27e2/vKXVgPtTfLAtPJFlfm6KNvblj7aX+u/Axgee6HgJlxsjc3y+bxsRHlf99wPLCj/TieC4yr7piZCx7Sg4GL1jG7Avsw3YF7kv9+O/PbDNuI+nzfg32aZsYx6XbffR74ffOcd4btyffZ7H5f5s477HH8kMpH3Zfp/U1wn35QI0tgmPy/7Lfsw25nfDtuQ4wnZlW7GdP4qvti9/r+y3bF++lu3Fz8rzmefz8zz40d+8N/ZfCWchhBBCCCH6weiYGgkhhBBCCHGakXAWQgghhBCiH0g4CyGEEEII0Q8knIUQQgghhOgHEs5CCCGEEEL0AwlnIYQQQggh+oGEsxBCCCGEEJ8I8P8Bi2FbhWFVfvcAAAAASUVORK5CYII=;" vertex="1" parent="1">
          <mxGeometry x="-650" y="549.19" width="319.9" height="166.63" as="geometry" />
        </mxCell>
        <mxCell id="PT-dNGUEMdsu8464TtQa-4" value="" style="endArrow=classic;html=1;rounded=0;shape=flexArrow;strokeWidth=4;fontFamily=Times New Roman;fillColor=#6d8764;strokeColor=#3A5431;" edge="1" parent="1">
          <mxGeometry width="50" height="50" relative="1" as="geometry">
            <mxPoint x="-300" y="630.5799999999999" as="sourcePoint" />
            <mxPoint x="-205" y="630.5799999999999" as="targetPoint" />
          </mxGeometry>
        </mxCell>
        <mxCell id="PT-dNGUEMdsu8464TtQa-6" value="Reshape" style="text;html=1;strokeColor=none;fillColor=none;align=center;verticalAlign=middle;whiteSpace=wrap;rounded=0;fontSize=22;fontStyle=1;fontFamily=Times New Roman;" vertex="1" parent="1">
          <mxGeometry x="-360" y="570" width="210" height="30" as="geometry" />
        </mxCell>
        <mxCell id="PT-dNGUEMdsu8464TtQa-8" value="Pseudo-image" style="text;html=1;strokeColor=none;fillColor=none;align=center;verticalAlign=middle;whiteSpace=wrap;rounded=0;fontSize=22;fontStyle=1;fontFamily=Times New Roman;" vertex="1" parent="1">
          <mxGeometry x="-180" y="503" width="210" height="30" as="geometry" />
        </mxCell>
      </root>
    </mxGraphModel>
  </diagram>
</mxfile>
